STARTFONT 2.1
FONT -FreeType-Levenim MT-Medium-R-Normal--241-1320-132-132-P-1008-ISO10646-1
SIZE 132 132 132
FONTBOUNDINGBOX 288 307 -11 -91
STARTPROPERTIES 16
FOUNDRY "FreeType"
FAMILY_NAME "Levenim MT"
WEIGHT_NAME "Medium"
SLANT "R"
SETWIDTH_NAME "Normal"
ADD_STYLE_NAME ""
PIXEL_SIZE 180
POINT_SIZE 1320
RESOLUTION_X 132
RESOLUTION_Y 132
SPACING "P"
AVERAGE_WIDTH 1008
CHARSET_REGISTRY "ISO10646"
CHARSET_ENCODING "1"
FONT_ASCENT 228
FONT_DESCENT 60
ENDPROPERTIES
CHARS 236
STARTCHAR 0020
ENCODING 32
SWIDTH 334 0
DWIDTH 81 0
BBX 0 0 0 0
BITMAP
ENDCHAR
STARTCHAR 0021
ENCODING 33
SWIDTH 243 0
DWIDTH 59 0
BBX 20 163 20 0
BITMAP
03FC00
0FFF00
3FFF80
3FFF80
7FFFC0
7FFFC0
7FFFC0
7FFFC0
7FFFC0
7FFFC0
7FFFC0
7FFFC0
7FFFC0
7FFFC0
7FFFC0
7FFFC0
7FFFC0
7FFFC0
7FFFC0
7FFFC0
7FFFC0
7FFFC0
7FFFC0
7FFFC0
7FFFC0
7FFFC0
7FFFC0
7FFFC0
7FFFC0
7FFFC0
7FFFC0
7FFFC0
7FFFC0
7FFFC0
7FFFC0
7FFFC0
7FFFC0
7FFFC0
7FFFC0
7FFFC0
7FFFC0
7FFFC0
7FFFC0
7FFFC0
7FFFC0
7FFFC0
7FFFC0
7FFFC0
7FFFC0
7FFFC0
7FFFC0
7FFFC0
3FFFC0
3FFFC0
3FFFC0
3FFFC0
3FFFC0
3FFFC0
3FFFC0
3FFFC0
3FFFC0
3FFFC0
3FFFC0
3FFFC0
3FFFC0
3FFFC0
3FFFC0
3FFFC0
3FFFC0
3FFFC0
3FFFC0
3FFFC0
3FFFC0
3FFFC0
3FFFC0
3FFFC0
3FFFC0
3FFFC0
3FFFC0
3FFFC0
3FFFC0
3FFFC0
3FFFC0
3FFFC0
3FFFC0
3FFFC0
3FFFC0
3FFFC0
3FFFC0
3FFFC0
3FFFC0
3FFFC0
3FFFC0
3FFFC0
3FFFC0
3FFFC0
3FFFC0
3FFFC0
3FFFC0
3FFFC0
3FFFC0
3FFFC0
3FFFC0
3FFFC0
3FFFC0
1FFF80
1FFF80
0FFF00
03FC00
000000
000000
000000
000000
000000
000000
000000
000000
000000
000000
000000
000000
000000
000000
000000
000000
000000
000000
000000
000000
000000
01F800
07FE00
0FFF00
1FFF80
3FFFC0
3FFFC0
7FFFE0
7FFFE0
7FFFE0
FFFFE0
FFFFF0
FFFFF0
FFFFF0
FFFFF0
FFFFF0
FFFFF0
FFFFF0
FFFFF0
FFFFF0
FFFFF0
FFFFF0
FFFFF0
7FFFF0
7FFFE0
7FFFE0
7FFFE0
7FFFE0
3FFFC0
3FFFC0
1FFF80
0FFF00
07FE00
01F800
ENDCHAR
STARTCHAR 0022
ENCODING 34
SWIDTH 479 0
DWIDTH 116 0
BBX 97 70 10 94
BITMAP
000000003FF000000000000000
00000001FFFE000000001FF000
00000003FFFF000000007FFC00
00000007FFFF80000001FFFF00
0000000FFFFFC0000003FFFF00
0000001FFFFFC0000007FFFF80
0000003FFFFFC000000FFFFF80
0000003FFFFFC000001FFFFF80
0000007FFFFFC000003FFFFF80
0000007FFFFF8000003FFFFF80
000000FFFFFF8000007FFFFF80
000000FFFFFF000000FFFFFF00
000001FFFFFF000000FFFFFF00
000001FFFFFE000001FFFFFE00
000003FFFFFE000001FFFFFE00
000003FFFFFC000003FFFFFC00
000007FFFFF8000003FFFFFC00
000007FFFFF8000007FFFFF800
000007FFFFF0000007FFFFF000
00000FFFFFE000000FFFFFF000
00000FFFFFE000000FFFFFE000
00001FFFFFC000001FFFFFC000
00001FFFFF8000001FFFFFC000
00003FFFFF8000003FFFFF8000
00003FFFFF0000003FFFFF0000
00007FFFFE0000007FFFFF0000
00007FFFFE0000007FFFFE0000
0000FFFFFC000000FFFFFC0000
0000FFFFF8000000FFFFFC0000
0001FFFFF8000001FFFFF80000
0001FFFFF0000001FFFFF00000
0001FFFFF0000003FFFFE00000
0003FFFFE0000003FFFFE00000
0003FFFFC0000007FFFFC00000
0007FFFFC0000007FFFF800000
0007FFFF8000000FFFFF800000
000FFFFF0000000FFFFF000000
000FFFFF0000001FFFFE000000
001FFFFE0000001FFFFE000000
001FFFFC0000003FFFFC000000
003FFFFC0000003FFFF8000000
003FFFF80000007FFFF8000000
007FFFF00000007FFFF0000000
007FFFF0000000FFFFE0000000
007FFFE0000000FFFFE0000000
00FFFFC0000001FFFFC0000000
00FFFFC0000001FFFF80000000
01FFFF80000003FFFF00000000
01FFFF00000003FFFF00000000
03FFFF00000007FFFE00000000
03FFFE00000007FFFC00000000
07FFFC0000000FFFFC00000000
07FFFC0000000FFFF800000000
0FFFF80000001FFFF000000000
0FFFF00000001FFFF000000000
1FFFF00000003FFFE000000000
1FFFE00000003FFFC000000000
1FFFC00000007FFFC000000000
3FFFC00000007FFF8000000000
3FFF80000000FFFF0000000000
7FFF00000000FFFF0000000000
7FFF00000000FFFE0000000000
7FFE00000001FFFC0000000000
FFFC00000001FFF80000000000
FFFC00000001FFF80000000000
FFF800000001FFF00000000000
FFF000000001FFE00000000000
7FE000000000FFC00000000000
7FC000000000FF800000000000
1F00000000003E000000000000
ENDCHAR
STARTCHAR 0023
ENCODING 35
SWIDTH 619 0
DWIDTH 150 0
BBX 140 169 5 0
BITMAP
0000000000003FFF8000000000007FFF0000
0000000000003FFF8000000000007FFF0000
0000000000007FFF000000000000FFFE0000
0000000000007FFF000000000000FFFE0000
0000000000007FFF000000000000FFFE0000
0000000000007FFF000000000000FFFE0000
0000000000007FFF000000000000FFFE0000
000000000000FFFE000000000001FFFC0000
000000000000FFFE000000000001FFFC0000
000000000000FFFE000000000001FFFC0000
000000000000FFFE000000000001FFFC0000
000000000001FFFC000000000003FFF80000
000000000001FFFC000000000003FFF80000
000000000001FFFC000000000003FFF80000
000000000001FFFC000000000003FFF80000
000000000003FFF8000000000007FFF00000
000000000003FFF8000000000007FFF00000
000000000003FFF8000000000007FFF00000
000000000003FFF8000000000007FFF00000
000000000003FFF8000000000007FFF00000
000000000007FFF000000000000FFFE00000
000000000007FFF000000000000FFFE00000
000000000007FFF000000000000FFFE00000
000000000007FFF000000000000FFFE00000
00000000000FFFE000000000001FFFC00000
00000000000FFFE000000000001FFFC00000
00000000000FFFE000000000001FFFC00000
00000000000FFFE000000000001FFFC00000
00000000001FFFC000000000003FFF800000
00000000001FFFC000000000003FFF800000
00000000001FFFC000000000003FFF800000
00000000001FFFC000000000003FFF800000
00000000001FFFC000000000003FFF800000
00000000003FFF8000000000007FFF000000
00000000003FFF8000000000007FFF000000
00000000003FFF8000000000007FFF000000
00000000003FFF8000000000007FFF000000
00000000007FFF000000000000FFFE000000
00000000007FFF000000000000FFFE000000
00000000007FFF000000000000FFFE000000
00000000007FFF000000000000FFFE000000
0000000000FFFF000000000001FFFE000000
0000000000FFFE000000000001FFFC000000
0000000000FFFE000000000001FFFC000000
0000000000FFFE000000000001FFFC000000
0000000000FFFE000000000001FFFC000000
0000000001FFFC000000000003FFF8000000
0000000001FFFC000000000003FFF8000000
FFFFFFFFFFFFFFFFFFFFFFFFFFFFFFFFFFF0
FFFFFFFFFFFFFFFFFFFFFFFFFFFFFFFFFFF0
FFFFFFFFFFFFFFFFFFFFFFFFFFFFFFFFFFF0
FFFFFFFFFFFFFFFFFFFFFFFFFFFFFFFFFFF0
FFFFFFFFFFFFFFFFFFFFFFFFFFFFFFFFFFF0
FFFFFFFFFFFFFFFFFFFFFFFFFFFFFFFFFFF0
FFFFFFFFFFFFFFFFFFFFFFFFFFFFFFFFFFF0
FFFFFFFFFFFFFFFFFFFFFFFFFFFFFFFFFFF0
FFFFFFFFFFFFFFFFFFFFFFFFFFFFFFFFFFF0
FFFFFFFFFFFFFFFFFFFFFFFFFFFFFFFFFFF0
FFFFFFFFFFFFFFFFFFFFFFFFFFFFFFFFFFF0
FFFFFFFFFFFFFFFFFFFFFFFFFFFFFFFFFFF0
FFFFFFFFFFFFFFFFFFFFFFFFFFFFFFFFFFF0
FFFFFFFFFFFFFFFFFFFFFFFFFFFFFFFFFFF0
FFFFFFFFFFFFFFFFFFFFFFFFFFFFFFFFFFF0
000000000FFFE000000000001FFFC0000000
000000000FFFE000000000001FFFC0000000
000000001FFFC000000000003FFF80000000
000000001FFFC000000000003FFF80000000
000000001FFFC000000000003FFF80000000
000000001FFFC000000000003FFF80000000
000000001FFFC000000000003FFF80000000
000000003FFF8000000000007FFF00000000
000000003FFF8000000000007FFF00000000
000000003FFF8000000000007FFF00000000
000000003FFF8000000000007FFF00000000
000000007FFF000000000000FFFE00000000
000000007FFF000000000000FFFE00000000
000000007FFF000000000000FFFE00000000
000000007FFF000000000000FFFE00000000
00000000FFFE000000000001FFFC00000000
00000000FFFE000000000001FFFC00000000
00000000FFFE000000000001FFFC00000000
00000000FFFE000000000001FFFC00000000
00000000FFFE000000000001FFFC00000000
00000001FFFC000000000003FFF800000000
00000001FFFC000000000003FFF800000000
00000001FFFC000000000003FFF800000000
00000001FFFC000000000003FFF800000000
00000003FFF8000000000007FFF000000000
00000003FFF8000000000007FFF000000000
00000003FFF8000000000007FFF000000000
00000003FFF8000000000007FFF000000000
00000003FFF8000000000007FFF000000000
00000007FFF000000000000FFFE000000000
00000007FFF000000000000FFFE000000000
00000007FFF000000000000FFFE000000000
00000007FFF000000000000FFFE000000000
0000000FFFE000000000001FFFC000000000
0000000FFFE000000000001FFFC000000000
0000000FFFE000000000001FFFC000000000
0000000FFFE000000000001FFFC000000000
0000001FFFC000000000003FFF8000000000
0000001FFFC000000000003FFF8000000000
0000001FFFC000000000003FFF8000000000
0000001FFFC000000000003FFF8000000000
0000001FFFC000000000003FFF8000000000
0000003FFF8000000000007FFF0000000000
0000003FFF8000000000007FFF0000000000
FFFFFFFFFFFFFFFFFFFFFFFFFFFFFFFFFFE0
FFFFFFFFFFFFFFFFFFFFFFFFFFFFFFFFFFE0
FFFFFFFFFFFFFFFFFFFFFFFFFFFFFFFFFFE0
FFFFFFFFFFFFFFFFFFFFFFFFFFFFFFFFFFE0
FFFFFFFFFFFFFFFFFFFFFFFFFFFFFFFFFFE0
FFFFFFFFFFFFFFFFFFFFFFFFFFFFFFFFFFE0
FFFFFFFFFFFFFFFFFFFFFFFFFFFFFFFFFFE0
FFFFFFFFFFFFFFFFFFFFFFFFFFFFFFFFFFE0
FFFFFFFFFFFFFFFFFFFFFFFFFFFFFFFFFFE0
FFFFFFFFFFFFFFFFFFFFFFFFFFFFFFFFFFE0
FFFFFFFFFFFFFFFFFFFFFFFFFFFFFFFFFFE0
FFFFFFFFFFFFFFFFFFFFFFFFFFFFFFFFFFE0
FFFFFFFFFFFFFFFFFFFFFFFFFFFFFFFFFFE0
FFFFFFFFFFFFFFFFFFFFFFFFFFFFFFFFFFE0
FFFFFFFFFFFFFFFFFFFFFFFFFFFFFFFFFFE0
000001FFFC000000000001FFFC0000000000
000001FFFC000000000001FFFC0000000000
000003FFF8000000000003FFF80000000000
000003FFF8000000000003FFF80000000000
000003FFF8000000000003FFF80000000000
000003FFF8000000000003FFF80000000000
000003FFF8000000000007FFF80000000000
000007FFF0000000000007FFF00000000000
000007FFF0000000000007FFF00000000000
000007FFF0000000000007FFF00000000000
000007FFF0000000000007FFF00000000000
000007FFF000000000000FFFE00000000000
00000FFFE000000000000FFFE00000000000
00000FFFE000000000000FFFE00000000000
00000FFFE000000000000FFFE00000000000
00000FFFE000000000001FFFC00000000000
00001FFFE000000000001FFFC00000000000
00001FFFC000000000001FFFC00000000000
00001FFFC000000000001FFFC00000000000
00001FFFC000000000003FFF800000000000
00001FFFC000000000003FFF800000000000
00003FFF8000000000003FFF800000000000
00003FFF8000000000003FFF800000000000
00003FFF8000000000007FFF800000000000
00003FFF8000000000007FFF000000000000
00003FFF8000000000007FFF000000000000
00007FFF0000000000007FFF000000000000
00007FFF0000000000007FFF000000000000
00007FFF000000000000FFFE000000000000
00007FFF000000000000FFFE000000000000
0000FFFF000000000000FFFE000000000000
0000FFFE000000000000FFFE000000000000
0000FFFE000000000001FFFC000000000000
0000FFFE000000000001FFFC000000000000
0000FFFE000000000001FFFC000000000000
0001FFFC000000000001FFFC000000000000
0001FFFC000000000003FFF8000000000000
0001FFFC000000000003FFF8000000000000
0001FFFC000000000003FFF8000000000000
0001FFFC000000000003FFF8000000000000
0003FFF8000000000007FFF8000000000000
0003FFF8000000000007FFF0000000000000
0003FFF8000000000007FFF0000000000000
0003FFF8000000000007FFF0000000000000
0003FFF8000000000007FFF0000000000000
0007FFF000000000000FFFE0000000000000
0007FFF000000000000FFFE0000000000000
ENDCHAR
STARTCHAR 0024
ENCODING 36
SWIDTH 545 0
DWIDTH 132 0
BBX 100 223 16 -31
BITMAP
000000000007F0000000000000
00000000003FFC000000000000
00000000007FFE000000000000
00000000007FFE000000000000
00000000007FFF000000000000
0000000000FFFF000000000000
0000000000FFFF000000000000
0000000000FFFF000000000000
0000000000FFFF000000000000
0000000000FFFF000000000000
0000000000FFFF000000000000
0000000000FFFF000000000000
0000000000FFFF000000000000
0000000000FFFF000000000000
0000000000FFFF000000000000
0000000000FFFF000000000000
0000000000FFFF000000000000
0000000000FFFF000000000000
0000000000FFFF000000000000
0000000000FFFF000000000000
0000000000FFFF000000000000
0000000000FFFF000000000000
0000000000FFFF000000000000
0000000000FFFF000000000000
0000000000FFFF000000000000
0000000000FFFF000000000000
0000000000FFFF000000000000
0000000000FFFFF80000000000
0000000007FFFFFFC000000000
00000000FFFFFFFFFC00000000
0000000FFFFFFFFFFFC0000000
0000007FFFFFFFFFFFF8000000
000001FFFFFFFFFFFFFF000000
000007FFFFFFFFFFFFFFE00000
00001FFFFFFFFFFFFFFFF80000
00003FFFFFFFFFFFFFFFFF0000
0000FFFFFFFFFFFFFFFFFFC000
0001FFFFFFFFFFFFFFFFFFF000
0003FFFFFFFFFFFFFFFFFFF800
0007FFFFFFFFFFFFFFFFFFFE00
000FFFFFFFFFFFFFFFFFFFFF00
001FFFFFFFFFFFFFFFFFFFFF80
003FFFFFFFFFFFFFFFFFFFFFC0
007FFFFFFF80007FFFFFFFFFE0
007FFFFFF0000001FFFFFFFFE0
00FFFFFF800000001FFFFFFFF0
01FFFFFE0000000003FFFFFFF0
01FFFFF80000000000FFFFFFF0
03FFFFE000000000001FFFFFF0
03FFFFC0000000000007FFFFF0
07FFFF80000000000001FFFFE0
07FFFF000000000000007FFFE0
0FFFFE000000000000001FFFC0
0FFFFC0000000000000007FFC0
0FFFF80000000000000003FF80
1FFFF80000000000000000FF00
1FFFF000000000000000003C00
1FFFF000000000000000000000
1FFFF000000000000000000000
1FFFE000000000000000000000
3FFFE000000000000000000000
3FFFE000000000000000000000
3FFFC000000000000000000000
3FFFC000000000000000000000
3FFFC000000000000000000000
3FFFC000000000000000000000
3FFFC000000000000000000000
3FFFC000000000000000000000
3FFFC000000000000000000000
3FFFC000000000000000000000
3FFFC000000000000000000000
3FFFC000000000000000000000
3FFFC000000000000000000000
3FFFE000000000000000000000
3FFFE000000000000000000000
3FFFE000000000000000000000
1FFFE000000000000000000000
1FFFF000000000000000000000
1FFFF000000000000000000000
1FFFF800000000000000000000
1FFFF800000000000000000000
0FFFFC00000000000000000000
0FFFFE00000000000000000000
0FFFFE00000000000000000000
07FFFF00000000000000000000
07FFFF80000000000000000000
03FFFFC0000000000000000000
03FFFFE0000000000000000000
01FFFFF8000000000000000000
01FFFFFC000000000000000000
00FFFFFF000000000000000000
007FFFFF800000000000000000
007FFFFFE00000000000000000
003FFFFFF80000000000000000
001FFFFFFE0000000000000000
000FFFFFFF8000000000000000
0007FFFFFFE000000000000000
0003FFFFFFF800000000000000
0001FFFFFFFE00000000000000
0000FFFFFFFFC0000000000000
00007FFFFFFFF0000000000000
00001FFFFFFFFC000000000000
00000FFFFFFFFF000000000000
000003FFFFFFFFC00000000000
000001FFFFFFFFF80000000000
0000007FFFFFFFFE0000000000
0000001FFFFFFFFF8000000000
00000007FFFFFFFFE000000000
00000001FFFFFFFFF800000000
000000007FFFFFFFFE00000000
000000001FFFFFFFFF80000000
0000000007FFFFFFFFC0000000
0000000001FFFFFFFFF0000000
00000000003FFFFFFFFC000000
00000000000FFFFFFFFE000000
000000000003FFFFFFFF800000
000000000000FFFFFFFFC00000
0000000000003FFFFFFFF00000
0000000000000FFFFFFFF80000
00000000000003FFFFFFFC0000
000000000000007FFFFFFE0000
000000000000001FFFFFFF0000
0000000000000007FFFFFFC000
0000000000000001FFFFFFC000
00000000000000007FFFFFE000
00000000000000001FFFFFF000
00000000000000000FFFFFF800
000000000000000003FFFFFC00
000000000000000000FFFFFC00
0000000000000000007FFFFE00
0000000000000000001FFFFF00
0000000000000000000FFFFF00
00000000000000000007FFFF80
00000000000000000003FFFF80
00000000000000000001FFFF80
00000000000000000001FFFFC0
00000000000000000000FFFFC0
000000000000000000007FFFC0
000000000000000000007FFFE0
000000000000000000003FFFE0
000000000000000000003FFFE0
000000000000000000001FFFE0
000000000000000000001FFFE0
000000000000000000001FFFF0
000000000000000000001FFFF0
000000000000000000000FFFF0
000000000000000000000FFFF0
000000000000000000000FFFF0
000000000000000000000FFFF0
000000000000000000000FFFF0
000000000000000000000FFFF0
000000000000000000000FFFF0
000000000000000000000FFFF0
000000000000000000000FFFF0
000000000000000000000FFFF0
000000000000000000000FFFF0
000000000000000000001FFFF0
000000000000000000001FFFE0
000000000000000000001FFFE0
000000000000000000001FFFE0
000000000000000000003FFFE0
000000000000000000003FFFE0
000000000000000000003FFFC0
000000000000000000007FFFC0
078000000000000000007FFFC0
0FE00000000000000000FFFFC0
1FF80000000000000001FFFF80
3FFE0000000000000003FFFF80
3FFF8000000000000003FFFF00
7FFFE00000000000000FFFFF00
FFFFF80000000000001FFFFE00
FFFFFE0000000000003FFFFE00
FFFFFFC00000000000FFFFFC00
FFFFFFF80000000003FFFFFC00
FFFFFFFF000000000FFFFFF800
7FFFFFFFF0000000FFFFFFF000
7FFFFFFFFFC0001FFFFFFFE000
3FFFFFFFFFFFFFFFFFFFFFE000
1FFFFFFFFFFFFFFFFFFFFFC000
0FFFFFFFFFFFFFFFFFFFFF8000
03FFFFFFFFFFFFFFFFFFFF0000
01FFFFFFFFFFFFFFFFFFFC0000
007FFFFFFFFFFFFFFFFFF80000
001FFFFFFFFFFFFFFFFFF00000
0003FFFFFFFFFFFFFFFFC00000
0000FFFFFFFFFFFFFFFF000000
00001FFFFFFFFFFFFFFE000000
000007FFFFFFFFFFFFF0000000
000000FFFFFFFFFFFFC0000000
0000001FFFFFFFFFFE00000000
00000001FFFFFFFFE000000000
000000000FFFFFF80000000000
0000000000FFFF000000000000
0000000000FFFF000000000000
0000000000FFFF000000000000
0000000000FFFF000000000000
0000000000FFFF000000000000
0000000000FFFF000000000000
0000000000FFFF000000000000
0000000000FFFF000000000000
0000000000FFFF000000000000
0000000000FFFF000000000000
0000000000FFFF000000000000
0000000000FFFF000000000000
0000000000FFFF000000000000
0000000000FFFF000000000000
0000000000FFFF000000000000
0000000000FFFF000000000000
0000000000FFFF000000000000
0000000000FFFF000000000000
0000000000FFFF000000000000
0000000000FFFF000000000000
0000000000FFFF000000000000
0000000000FFFF000000000000
0000000000FFFF000000000000
0000000000FFFF000000000000
0000000000FFFF000000000000
0000000000FFFF000000000000
0000000000FFFF000000000000
00000000007FFE000000000000
00000000007FFE000000000000
00000000003FFC000000000000
00000000000FF0000000000000
ENDCHAR
STARTCHAR 0025
ENCODING 37
SWIDTH 710 0
DWIDTH 172 0
BBX 149 170 12 -4
BITMAP
00000007FF000000000000000007FFF8000000
000000FFFFF8000000000000000FFFF0000000
000007FFFFFF000000000000000FFFF0000000
00001FFFFFFFC00000000000001FFFE0000000
00007FFFFFFFF00000000000001FFFE0000000
0000FFFFFFFFF80000000000003FFFC0000000
0003FFFFFFFFFE0000000000003FFFC0000000
0007FFFFFFFFFF0000000000007FFF80000000
000FFFFFFFFFFF8000000000007FFF80000000
001FFFFFFFFFFFC00000000000FFFF00000000
003FFFFFFFFFFFE00000000000FFFF00000000
007FFFFFFFFFFFF00000000001FFFE00000000
00FFFFFFFFFFFFF80000000001FFFE00000000
01FFFFFFFFFFFFFC0000000003FFFC00000000
03FFFFFC01FFFFFE0000000003FFFC00000000
07FFFFE0003FFFFE0000000007FFF800000000
07FFFF80000FFFFF0000000007FFF800000000
0FFFFE000003FFFF800000000FFFF000000000
0FFFFC000001FFFF800000000FFFF000000000
1FFFF8000000FFFFC00000001FFFE000000000
1FFFF00000007FFFC00000001FFFE000000000
3FFFE00000003FFFE00000003FFFC000000000
3FFFC00000001FFFE00000003FFFC000000000
3FFF800000000FFFE00000007FFF8000000000
7FFF800000000FFFF00000007FFF8000000000
7FFF0000000007FFF0000000FFFF0000000000
7FFF0000000007FFF0000000FFFF0000000000
7FFE0000000003FFF0000001FFFE0000000000
FFFE0000000003FFF8000001FFFE0000000000
FFFE0000000003FFF8000003FFFC0000000000
FFFC0000000001FFF8000003FFFC0000000000
FFFC0000000001FFF8000007FFF80000000000
FFFC0000000001FFF8000007FFF80000000000
FFFC0000000001FFF800000FFFF00000000000
FFFC0000000001FFF800000FFFF00000000000
FFFC0000000001FFF800001FFFE00000000000
FFFC0000000001FFF800001FFFE00000000000
FFFC0000000001FFF800003FFFC00000000000
FFFC0000000001FFF800003FFFC00000000000
FFFE0000000003FFF800007FFF800000000000
FFFE0000000003FFF800007FFF800000000000
7FFE0000000003FFF00000FFFF000000000000
7FFF0000000007FFF00000FFFF000000000000
7FFF0000000007FFF00001FFFE000000000000
7FFF800000000FFFF00001FFFE000000000000
3FFF800000000FFFE00003FFFC000000000000
3FFFC00000001FFFE00003FFFC000000000000
3FFFE00000003FFFE00007FFF8000000000000
1FFFE00000007FFFC00007FFF8000000000000
1FFFF0000000FFFFC0000FFFF0000000000000
0FFFFC000001FFFF80000FFFF0000000000000
0FFFFE000003FFFF80001FFFE0000000000000
07FFFF80000FFFFF00001FFFE0000000000000
03FFFFE0003FFFFE00003FFFC0000000000000
03FFFFFC01FFFFFE00003FFFC0000000000000
01FFFFFFFFFFFFFC00007FFF80000000000000
00FFFFFFFFFFFFF800007FFF80000000000000
007FFFFFFFFFFFF00000FFFF00000000000000
003FFFFFFFFFFFE00000FFFF00000000000000
001FFFFFFFFFFFC00001FFFE00000000000000
000FFFFFFFFFFF800001FFFE00000000000000
0007FFFFFFFFFF000003FFFC00000000000000
0003FFFFFFFFFE000003FFFC00000000000000
0000FFFFFFFFF8000007FFF800000000000000
00007FFFFFFFF0000007FFF800000000000000
00001FFFFFFFC000000FFFF000000000000000
000007FFFFFF0000000FFFF000000000000000
000000FFFFF80000001FFFE000000000000000
0000000FFF000000001FFFE000000000000000
0000000000000000003FFFC000000000000000
0000000000000000003FFFC000000000000000
0000000000000000007FFF8000000000000000
0000000000000000007FFF8000000000000000
000000000000000000FFFF0000000000000000
000000000000000000FFFF0000000000000000
000000000000000001FFFE0000000000000000
000000000000000001FFFE0000000000000000
000000000000000003FFFC0000000000000000
000000000000000003FFFC0000000000000000
000000000000000007FFF80000000000000000
000000000000000007FFF80000000000000000
00000000000000000FFFF00000000000000000
00000000000000000FFFF00000000000000000
00000000000000001FFFE00000000000000000
00000000000000001FFFE00000000000000000
00000000000000003FFFC00000000000000000
00000000000000003FFFC00000000000000000
00000000000000007FFF800000000000000000
00000000000000007FFF800000000000000000
0000000000000000FFFF000000000000000000
0000000000000000FFFF000000000000000000
0000000000000001FFFE000000000000000000
0000000000000001FFFE000000000000000000
0000000000000003FFFC000000000000000000
0000000000000003FFFC000000000000000000
0000000000000007FFF8000000000000000000
0000000000000007FFF8000000000000000000
000000000000000FFFF0000000000000000000
000000000000000FFFF0000000000000000000
000000000000001FFFE0000000000000000000
000000000000001FFFE000000007FF00000000
000000000000003FFFC0000000FFFFF8000000
000000000000003FFFC0000007FFFFFF000000
000000000000007FFF8000001FFFFFFFC00000
000000000000007FFF8000007FFFFFFFF00000
00000000000000FFFF000000FFFFFFFFF80000
00000000000000FFFF000003FFFFFFFFFE0000
00000000000001FFFE000007FFFFFFFFFF0000
00000000000001FFFE00000FFFFFFFFFFF8000
00000000000003FFFC00001FFFFFFFFFFFC000
00000000000003FFFC00003FFFFFFFFFFFE000
00000000000007FFF800007FFFFFFFFFFFF000
00000000000007FFF80000FFFFFFFFFFFFF800
0000000000000FFFF00001FFFFFFFFFFFFFC00
0000000000000FFFF00003FFFFFC01FFFFFE00
0000000000001FFFE00003FFFFE0003FFFFE00
0000000000001FFFE00007FFFF80000FFFFF00
0000000000003FFFC0000FFFFE000003FFFF80
0000000000003FFFC0000FFFFC000001FFFF80
0000000000007FFF80001FFFF00000007FFFC0
0000000000007FFF80001FFFE00000007FFFC0
000000000000FFFF00003FFFE00000003FFFE0
000000000000FFFF00003FFFC00000001FFFE0
000000000001FFFE00003FFF800000000FFFE0
000000000001FFFE00007FFF800000000FFFF0
000000000003FFFC00007FFF0000000007FFF0
000000000003FFFC00007FFF0000000007FFF0
000000000007FFF800007FFE0000000003FFF0
000000000007FFF80000FFFE0000000003FFF8
00000000000FFFF00000FFFE0000000003FFF8
00000000000FFFF00000FFFC0000000001FFF8
00000000001FFFE00000FFFC0000000001FFF8
00000000001FFFE00000FFFC0000000001FFF8
00000000003FFFC00000FFFC0000000001FFF8
00000000003FFFC00000FFFC0000000001FFF8
00000000007FFF800000FFFC0000000001FFF8
00000000007FFF800000FFFC0000000001FFF8
0000000000FFFF000000FFFC0000000001FFF8
0000000000FFFF000000FFFC0000000001FFF8
0000000001FFFE000000FFFE0000000003FFF8
0000000001FFFE000000FFFE0000000003FFF8
0000000003FFFC0000007FFE0000000003FFF0
0000000003FFFC0000007FFF0000000007FFF0
0000000007FFF80000007FFF0000000007FFF0
0000000007FFF80000007FFF800000000FFFF0
000000000FFFF00000003FFF800000000FFFE0
000000000FFFF00000003FFFC00000001FFFE0
000000001FFFE00000003FFFE00000003FFFE0
000000001FFFE00000001FFFE00000003FFFC0
000000003FFFC00000001FFFF00000007FFFC0
000000003FFFC00000000FFFFC000001FFFF80
000000007FFF800000000FFFFE000003FFFF80
000000007FFF8000000007FFFF800007FFFF00
00000000FFFF0000000007FFFFE0003FFFFE00
00000000FFFF0000000003FFFFFC01FFFFFE00
00000001FFFE0000000001FFFFFFFFFFFFFC00
00000001FFFE0000000000FFFFFFFFFFFFF800
00000003FFFC00000000007FFFFFFFFFFFF000
00000003FFFC00000000003FFFFFFFFFFFE000
00000007FFF800000000001FFFFFFFFFFFC000
00000007FFF800000000000FFFFFFFFFFF8000
0000000FFFF0000000000007FFFFFFFFFF0000
0000000FFFF0000000000003FFFFFFFFFE0000
0000001FFFE0000000000000FFFFFFFFF80000
0000001FFFE00000000000007FFFFFFFF00000
0000003FFFC00000000000001FFFFFFFC00000
0000003FFFC000000000000007FFFFFF000000
0000007FFF8000000000000000FFFFF8000000
0000007FFF800000000000000007FF80000000
000000FFFF0000000000000000000000000000
ENDCHAR
STARTCHAR 0026
ENCODING 38
SWIDTH 607 0
DWIDTH 147 0
BBX 113 166 16 0
BITMAP
000000000000FFFF80000000000000
00000000007FFFFFFE000000000000
0000000007FFFFFFFFE00000000000
000000003FFFFFFFFFFC0000000000
00000001FFFFFFFFFFFF0000000000
00000007FFFFFFFFFFFFE000000000
0000001FFFFFFFFFFFFFF800000000
0000007FFFFFFFFFFFFFFC00000000
000001FFFFFFFFFFFFFFFF00000000
000003FFFFFFFFFFFFFFFFC0000000
00000FFFFFFFFFFFFFFFFFE0000000
00001FFFFFFFFFFFFFFFFFF8000000
00003FFFFFFFFFFFFFFFFFFC000000
00007FFFFFFFFFFFFFFFFFFE000000
0000FFFFFFFFFFFFFFFFFFFF000000
0001FFFFFFFFFFFFFFFFFFFF800000
0003FFFFFFFFFFFFFFFFFFFFC00000
0007FFFFFFFE0003FFFFFFFFE00000
000FFFFFFFC000001FFFFFFFF00000
001FFFFFFC00000003FFFFFFF00000
001FFFFFF000000000FFFFFFF80000
003FFFFFC0000000003FFFFFF80000
007FFFFF00000000000FFFFFFC0000
007FFFFE000000000007FFFFFC0000
00FFFFF8000000000001FFFFFE0000
00FFFFF0000000000000FFFFFE0000
01FFFFE00000000000007FFFFF0000
01FFFFE00000000000003FFFFF0000
01FFFFC00000000000001FFFFF0000
03FFFF800000000000000FFFFF0000
03FFFF800000000000000FFFFF8000
03FFFF0000000000000007FFFF8000
07FFFF0000000000000003FFFF8000
07FFFE0000000000000003FFFF8000
07FFFE0000000000000001FFFF8000
07FFFC0000000000000000FFFF8000
07FFFC0000000000000000FFFF8000
0FFFFC00000000000000007FFF8000
0FFFFC00000000000000007FFF0000
0FFFFC00000000000000003FFF0000
0FFFF800000000000000001FFE0000
0FFFF800000000000000000FFC0000
0FFFF8000000000000000007E00000
0FFFF8000000000000000000000000
0FFFF8000000000000000000000000
0FFFF8000000000000000000000000
0FFFF8000000000000000000000000
0FFFF8000000000000000000000000
0FFFF8000000000000000000000000
0FFFF8000000000000000000000000
0FFFF8000000000000000000000000
0FFFF8000000000000000000000000
07FFFC000000000000000000000000
07FFFC000000000000000000000000
07FFFC000000000000000000000000
07FFFC000000000000000000000000
07FFFE000000000000000000000000
03FFFE000000000000000000000000
03FFFE000000000000000000000000
03FFFF000000000000000000000000
01FFFF800000000000000000000000
01FFFF800000000000000000000000
00FFFFC00000000000000000000000
00FFFFE00000000000000000000000
007FFFF00000000000000000000000
007FFFF80000000000000000000000
003FFFFC0000000000000000000000
001FFFFF0000000000000000000000
001FFFFFC000000000000000000000
000FFFFFF000000000000000000000
0007FFFFFF00000000000000000000
0003FFFFFFF8000000000000000000
0001FFFFFFFFFF0000000000000000
0000FFFFFFFFFFE000000000000000
00007FFFFFFFFFF000000FFFFFFF80
00001FFFFFFFFFF000007FFFFFFF80
000007FFFFFFFFF00000FFFFFFFF80
000001FFFFFFFFF80001FFFFFFFF80
0000007FFFFFFFF80001FFFFFFFF80
0000000FFFFFFFF80003FFFFFFFF80
00000000FFFFFFF80003FFFFFFFF80
00000003FFFFFFF80003FFFFFFFF80
0000001FFFFFFFF80003FFFFFFFF80
000000FFFFFFFFF80003FFFFFFFF80
000007FFFFFFFFF80003FFFFFFFF80
00001FFFFFFFFFF80003FFFFFFFF80
00007FFFFFFFFFF00001FFFFFFFF80
0000FFFFFFFFFFF00001FFFFFFFF80
0003FFFFFFFFFFE00000FFFFFFFF80
0007FFFFFFFFFF8000003FFFFFFF80
000FFFFFFFFF8000000007FFFFFF80
001FFFFFFFC0000000000000FFFF80
003FFFFFF800000000000000FFFF80
007FFFFFC000000000000000FFFF80
00FFFFFF0000000000000000FFFF80
01FFFFFC0000000000000000FFFF80
03FFFFF00000000000000000FFFF80
03FFFFE00000000000000000FFFF80
07FFFF800000000000000000FFFF80
07FFFF000000000000000000FFFF80
0FFFFE000000000000000000FFFF80
0FFFFE000000000000000000FFFF80
1FFFFC000000000000000000FFFF80
1FFFF8000000000000000000FFFF80
3FFFF8000000000000000000FFFF80
3FFFF0000000000000000000FFFF80
3FFFF0000000000000000000FFFF80
3FFFE0000000000000000000FFFF80
7FFFE0000000000000000000FFFF80
7FFFC0000000000000000000FFFF80
7FFFC0000000000000000000FFFF80
7FFFC0000000000000000000FFFF80
7FFFC0000000000000000000FFFF80
FFFFC0000000000000000000FFFF80
FFFF80000000000000000000FFFF80
FFFF80000000000000000000FFFF80
FFFF80000000000000000000FFFF80
FFFF80000000000000000000FFFF80
FFFF80000000000000000000FFFF80
FFFF80000000000000000000FFFF80
FFFF80000000000000000000FFFF80
FFFF80000000000000000000FFFF80
FFFF80000000000000000000FFFF80
FFFF80000000000000000000FFFF80
FFFF80000000000000000000FFFF80
FFFF80000000000000000000FFFF80
FFFF80000000000000000000FFFF80
FFFF80000000000000000000FFFF80
7FFFC0000000000000000000FFFF80
7FFFC0000000000000000000FFFF80
7FFFC0000000000000000000FFFF80
7FFFC0000000000000000000FFFF80
7FFFE0000000000000000000FFFF80
7FFFE0000000000000000000FFFF80
3FFFE0000000000000000000FFFF80
3FFFF0000000000000000000FFFF80
3FFFF0000000000000000000FFFF80
1FFFF8000000000000000000FFFF80
1FFFFC000000000000000000FFFF80
1FFFFE000000000000000000FFFF80
0FFFFE000000000000000000FFFF80
0FFFFF000000000000000000FFFF80
07FFFFC00000000000000000FFFF80
07FFFFE00000000000000000FFFF80
03FFFFF80000000000000000FFFF80
01FFFFFE0000000000000000FFFF80
01FFFFFFC000000000000000FFFF80
00FFFFFFFC00000000000000FFFF80
007FFFFFFFFC000000000000FFFF80
007FFFFFFFFFFFFFFFFFFFFFFFFF80
003FFFFFFFFFFFFFFFFFFFFFFFFF80
001FFFFFFFFFFFFFFFFFFFFFFFFF80
000FFFFFFFFFFFFFFFFFFFFFFFFF80
0007FFFFFFFFFFFFFFFFFFFFFFFF80
0003FFFFFFFFFFFFFFFFFFFFFFFF80
0001FFFFFFFFFFFFFFFFFFFFFFFF80
00007FFFFFFFFFFFFFFFFFFFFFFF80
00003FFFFFFFFFFFFFFFFFFFFFFF80
00000FFFFFFFFFFFFFFFFFFFFFFF80
000003FFFFFFFFFFFFFFFFFFFFFF80
000000FFFFFFFFFFFFFFFFFFFFFF80
0000003FFFFFFFFFFFFFFFFFFFFF80
00000007FFFFFFFFFFFFFFFFFFFF80
00000000FFFFFFFFFFFFFFFFFFFF80
0000000007FFFFFFFFFFFFFFFFFF80
000000000001FFFFFFFFFFFFFFFF80
ENDCHAR
STARTCHAR 0027
ENCODING 39
SWIDTH 280 0
DWIDTH 68 0
BBX 50 70 10 94
BITMAP
000000001FF800
00000000FFFF00
00000001FFFF80
00000003FFFF80
00000007FFFFC0
0000000FFFFFC0
0000001FFFFFC0
0000001FFFFFC0
0000003FFFFFC0
0000003FFFFF80
0000007FFFFF80
0000007FFFFF80
000000FFFFFF00
000000FFFFFF00
000001FFFFFE00
000001FFFFFC00
000003FFFFFC00
000003FFFFF800
000007FFFFF000
000007FFFFF000
00000FFFFFE000
00000FFFFFC000
00001FFFFFC000
00001FFFFF8000
00003FFFFF0000
00003FFFFF0000
00007FFFFE0000
00007FFFFC0000
00007FFFFC0000
0000FFFFF80000
0000FFFFF00000
0001FFFFF00000
0001FFFFE00000
0003FFFFC00000
0003FFFFC00000
0007FFFF800000
0007FFFF000000
000FFFFF000000
000FFFFE000000
001FFFFC000000
001FFFFC000000
003FFFF8000000
003FFFF8000000
007FFFF0000000
007FFFE0000000
00FFFFE0000000
00FFFFC0000000
00FFFF80000000
01FFFF80000000
01FFFF00000000
03FFFE00000000
03FFFE00000000
07FFFC00000000
07FFF800000000
0FFFF800000000
0FFFF000000000
1FFFE000000000
1FFFE000000000
3FFFC000000000
3FFF8000000000
7FFF8000000000
7FFF0000000000
7FFE0000000000
FFFE0000000000
FFFC0000000000
FFF80000000000
FFF00000000000
FFE00000000000
7FC00000000000
3F000000000000
ENDCHAR
STARTCHAR 0028
ENCODING 40
SWIDTH 297 0
DWIDTH 72 0
BBX 52 233 16 -41
BITMAP
00000000001F00
00000000003FC0
0000000000FFE0
0000000001FFE0
0000000001FFF0
0000000003FFF0
0000000007FFF0
000000000FFFF0
000000000FFFE0
000000001FFFE0
000000003FFFC0
000000003FFFC0
000000007FFF80
00000000FFFF80
00000000FFFF00
00000001FFFF00
00000001FFFE00
00000003FFFE00
00000003FFFC00
00000007FFFC00
00000007FFF800
0000000FFFF800
0000000FFFF000
0000001FFFE000
0000003FFFE000
0000003FFFE000
0000007FFFC000
0000007FFFC000
000000FFFF8000
000000FFFF8000
000001FFFF0000
000001FFFF0000
000003FFFE0000
000003FFFE0000
000007FFFC0000
000007FFFC0000
00000FFFF80000
00000FFFF80000
00001FFFF00000
00001FFFF00000
00003FFFF00000
00003FFFE00000
00007FFFE00000
00007FFFC00000
0000FFFFC00000
0000FFFF800000
0001FFFF800000
0001FFFF800000
0001FFFF000000
0003FFFF000000
0003FFFE000000
0007FFFE000000
0007FFFE000000
0007FFFC000000
000FFFFC000000
000FFFF8000000
001FFFF8000000
001FFFF8000000
001FFFF0000000
003FFFF0000000
003FFFF0000000
003FFFE0000000
007FFFE0000000
007FFFE0000000
007FFFC0000000
00FFFFC0000000
00FFFFC0000000
00FFFF80000000
01FFFF80000000
01FFFF80000000
01FFFF00000000
03FFFF00000000
03FFFF00000000
03FFFF00000000
03FFFE00000000
07FFFE00000000
07FFFE00000000
07FFFC00000000
07FFFC00000000
0FFFFC00000000
0FFFFC00000000
0FFFF800000000
0FFFF800000000
1FFFF800000000
1FFFF800000000
1FFFF800000000
1FFFF000000000
1FFFF000000000
3FFFF000000000
3FFFF000000000
3FFFF000000000
3FFFE000000000
3FFFE000000000
3FFFE000000000
3FFFE000000000
7FFFE000000000
7FFFE000000000
7FFFC000000000
7FFFC000000000
7FFFC000000000
7FFFC000000000
7FFFC000000000
7FFFC000000000
7FFFC000000000
FFFFC000000000
FFFF8000000000
FFFF8000000000
FFFF8000000000
FFFF8000000000
FFFF8000000000
FFFF8000000000
FFFF8000000000
FFFF8000000000
FFFF8000000000
FFFF8000000000
FFFF8000000000
FFFF8000000000
FFFF8000000000
FFFF8000000000
FFFF8000000000
FFFF8000000000
FFFF8000000000
FFFF8000000000
FFFF8000000000
FFFF8000000000
FFFF8000000000
FFFF8000000000
FFFF8000000000
FFFFC000000000
7FFFC000000000
7FFFC000000000
7FFFC000000000
7FFFC000000000
7FFFC000000000
7FFFC000000000
7FFFC000000000
7FFFE000000000
7FFFE000000000
3FFFE000000000
3FFFE000000000
3FFFE000000000
3FFFE000000000
3FFFE000000000
3FFFF000000000
1FFFF000000000
1FFFF000000000
1FFFF000000000
1FFFF000000000
1FFFF800000000
0FFFF800000000
0FFFF800000000
0FFFF800000000
0FFFFC00000000
0FFFFC00000000
07FFFC00000000
07FFFC00000000
07FFFE00000000
07FFFE00000000
03FFFE00000000
03FFFE00000000
03FFFF00000000
01FFFF00000000
01FFFF00000000
01FFFF80000000
01FFFF80000000
00FFFF80000000
00FFFFC0000000
00FFFFC0000000
007FFFC0000000
007FFFE0000000
007FFFE0000000
003FFFE0000000
003FFFF0000000
003FFFF0000000
001FFFF0000000
001FFFF8000000
000FFFF8000000
000FFFF8000000
000FFFFC000000
0007FFFC000000
0007FFFE000000
0003FFFE000000
0003FFFE000000
0003FFFF000000
0001FFFF000000
0001FFFF800000
0000FFFF800000
0000FFFF800000
00007FFFC00000
00007FFFC00000
00007FFFE00000
00003FFFE00000
00003FFFE00000
00001FFFF00000
00001FFFF00000
00000FFFF80000
00000FFFF80000
000007FFFC0000
000007FFFC0000
000003FFFE0000
000003FFFE0000
000001FFFF0000
000001FFFF0000
000000FFFF8000
0000007FFF8000
0000007FFF8000
0000003FFFC000
0000003FFFC000
0000001FFFE000
0000001FFFE000
0000000FFFF000
0000000FFFF000
00000007FFF800
00000007FFF800
00000003FFFC00
00000003FFFE00
00000001FFFE00
00000001FFFF00
00000000FFFF00
00000000FFFF80
000000007FFF80
000000003FFFC0
000000003FFFC0
000000001FFFE0
000000000FFFE0
000000000FFFF0
0000000007FFF0
0000000003FFF0
0000000001FFF0
0000000001FFE0
0000000000FFE0
00000000003FC0
00000000001F00
ENDCHAR
STARTCHAR 0029
ENCODING 41
SWIDTH 297 0
DWIDTH 72 0
BBX 52 233 5 -41
BITMAP
0F000000000000
3FC00000000000
7FE00000000000
7FF00000000000
FFF80000000000
FFFC0000000000
FFFC0000000000
FFFE0000000000
7FFF0000000000
7FFF8000000000
3FFF8000000000
3FFFC000000000
1FFFE000000000
1FFFE000000000
0FFFF000000000
0FFFF000000000
07FFF800000000
07FFFC00000000
03FFFC00000000
03FFFE00000000
01FFFE00000000
01FFFF00000000
00FFFF00000000
00FFFF80000000
007FFFC0000000
007FFFC0000000
003FFFE0000000
003FFFE0000000
001FFFF0000000
001FFFF0000000
000FFFF8000000
000FFFF8000000
0007FFFC000000
0007FFFC000000
0003FFFE000000
0003FFFE000000
0001FFFF000000
0001FFFF000000
0001FFFF800000
0000FFFF800000
0000FFFFC00000
00007FFFC00000
00007FFFC00000
00003FFFE00000
00003FFFE00000
00003FFFF00000
00001FFFF00000
00001FFFF80000
00000FFFF80000
00000FFFFC0000
000007FFFC0000
000007FFFC0000
000007FFFE0000
000003FFFE0000
000003FFFF0000
000003FFFF0000
000001FFFF0000
000001FFFF8000
000000FFFF8000
000000FFFF8000
000000FFFFC000
0000007FFFC000
0000007FFFC000
0000007FFFE000
0000003FFFE000
0000003FFFE000
0000003FFFF000
0000001FFFF000
0000001FFFF000
0000001FFFF800
0000000FFFF800
0000000FFFF800
0000000FFFFC00
0000000FFFFC00
00000007FFFC00
00000007FFFC00
00000007FFFE00
00000007FFFE00
00000003FFFE00
00000003FFFE00
00000003FFFF00
00000003FFFF00
00000001FFFF00
00000001FFFF00
00000001FFFF80
00000001FFFF80
00000000FFFF80
00000000FFFF80
00000000FFFF80
00000000FFFFC0
00000000FFFFC0
000000007FFFC0
000000007FFFC0
000000007FFFC0
000000007FFFC0
000000007FFFC0
000000007FFFE0
000000003FFFE0
000000003FFFE0
000000003FFFE0
000000003FFFE0
000000003FFFE0
000000003FFFE0
000000003FFFE0
000000003FFFE0
000000003FFFF0
000000001FFFF0
000000001FFFF0
000000001FFFF0
000000001FFFF0
000000001FFFF0
000000001FFFF0
000000001FFFF0
000000001FFFF0
000000001FFFF0
000000001FFFF0
000000001FFFF0
000000001FFFF0
000000001FFFF0
000000001FFFF0
000000001FFFF0
000000001FFFF0
000000001FFFF0
000000001FFFF0
000000001FFFF0
000000001FFFF0
000000001FFFF0
000000003FFFF0
000000003FFFF0
000000003FFFE0
000000003FFFE0
000000003FFFE0
000000003FFFE0
000000003FFFE0
000000003FFFE0
000000003FFFE0
000000007FFFE0
000000007FFFE0
000000007FFFE0
000000007FFFC0
000000007FFFC0
000000007FFFC0
00000000FFFFC0
00000000FFFFC0
00000000FFFFC0
00000000FFFF80
00000000FFFF80
00000001FFFF80
00000001FFFF80
00000001FFFF80
00000001FFFF00
00000001FFFF00
00000003FFFF00
00000003FFFF00
00000003FFFE00
00000007FFFE00
00000007FFFE00
00000007FFFE00
00000007FFFC00
0000000FFFFC00
0000000FFFFC00
0000000FFFFC00
0000000FFFF800
0000001FFFF800
0000001FFFF800
0000001FFFF000
0000003FFFF000
0000003FFFF000
0000003FFFE000
0000007FFFE000
0000007FFFE000
0000007FFFC000
000000FFFFC000
000000FFFFC000
000000FFFF8000
000001FFFF8000
000001FFFF8000
000003FFFF0000
000003FFFF0000
000003FFFE0000
000007FFFE0000
000007FFFE0000
000007FFFC0000
00000FFFFC0000
00000FFFF80000
00001FFFF80000
00001FFFF00000
00001FFFF00000
00003FFFE00000
00003FFFE00000
00007FFFC00000
00007FFFC00000
0000FFFFC00000
0000FFFF800000
0000FFFF800000
0001FFFF000000
0001FFFF000000
0003FFFE000000
0003FFFE000000
0007FFFC000000
0007FFFC000000
000FFFF8000000
000FFFF8000000
001FFFF0000000
001FFFF0000000
003FFFE0000000
003FFFE0000000
007FFFC0000000
007FFF80000000
00FFFF80000000
00FFFF00000000
01FFFF00000000
01FFFE00000000
03FFFE00000000
03FFFC00000000
07FFFC00000000
07FFF800000000
0FFFF800000000
0FFFF000000000
1FFFE000000000
1FFFE000000000
3FFFC000000000
3FFFC000000000
7FFF8000000000
7FFF0000000000
FFFF0000000000
FFFE0000000000
FFFC0000000000
FFFC0000000000
7FF80000000000
7FF00000000000
3FE00000000000
0F800000000000
ENDCHAR
STARTCHAR 002A
ENCODING 42
SWIDTH 396 0
DWIDTH 96 0
BBX 72 67 12 99
BITMAP
00000000FE00000000
00000001FF80000000
00000001FF80000000
00000003FFC0000000
00000003FFC0000000
00000003FFC0000000
00000003FFC0000000
00000003FFC0000000
00000003FFC0000000
00000003FFC0000000
00000003FFC0000000
00000003FFC0000000
00000003FFC0000000
00000003FFC0000000
00000003FFC0000000
00000003FFC0000000
00000003FFC0000000
00000003FFC0000000
00000003FFC0000000
00000003FFC0000000
00000003FFC0000000
1F000003FFC00000F8
3FE00003FFC0000FFC
7FFE0003FFC0007FFE
7FFFC003FFC003FFFE
FFFFF803FFC01FFFFE
FFFFFF03FFC0FFFFFF
7FFFFFE3FFC7FFFFFE
7FFFFFFFFFFFFFFFFE
7FFFFFFFFFFFFFFFFE
3FFFFFFFFFFFFFFFFC
0FFFFFFFFFFFFFFFF0
03FFFFFFFFFFFFFF80
007FFFFFFFFFFFFC00
000FFFFFFFFFFFE000
0000FFFFFFFFFF0000
00001FFFFFFFF80000
000003FFFFFFC00000
0000007FFFFE000000
0000003FFFFC000000
0000003FFFFC000000
0000007FFFFE000000
000000FFFFFF000000
000001FFFFFF800000
000001FFFFFF800000
000003FFFFFFC00000
000007FFE7FFE00000
00000FFFC7FFE00000
00000FFFC3FFF00000
00001FFF81FFF80000
00003FFF00FFFC0000
00003FFE00FFFC0000
00007FFE007FFE0000
0000FFFC003FFF0000
0001FFF8001FFF8000
0001FFF0001FFF8000
0003FFF0000FFFC000
0007FFE00007FFE000
0007FFC00003FFE000
000FFF800003FFF000
000FFF800001FFF000
000FFF000000FFF000
000FFE0000007FF000
000FFC0000007FF000
000FFC0000003FF000
0007F80000001FE000
0001E0000000078000
ENDCHAR
STARTCHAR 002B
ENCODING 43
SWIDTH 574 0
DWIDTH 139 0
BBX 129 129 5 14
BITMAP
00000000000000FFFF0000000000000000
00000000000000FFFF0000000000000000
00000000000000FFFF0000000000000000
00000000000000FFFF0000000000000000
00000000000000FFFF0000000000000000
00000000000000FFFF0000000000000000
00000000000000FFFF0000000000000000
00000000000000FFFF0000000000000000
00000000000000FFFF0000000000000000
00000000000000FFFF0000000000000000
00000000000000FFFF0000000000000000
00000000000000FFFF0000000000000000
00000000000000FFFF0000000000000000
00000000000000FFFF0000000000000000
00000000000000FFFF0000000000000000
00000000000000FFFF0000000000000000
00000000000000FFFF0000000000000000
00000000000000FFFF0000000000000000
00000000000000FFFF0000000000000000
00000000000000FFFF0000000000000000
00000000000000FFFF0000000000000000
00000000000000FFFF0000000000000000
00000000000000FFFF0000000000000000
00000000000000FFFF0000000000000000
00000000000000FFFF0000000000000000
00000000000000FFFF0000000000000000
00000000000000FFFF0000000000000000
00000000000000FFFF0000000000000000
00000000000000FFFF0000000000000000
00000000000000FFFF0000000000000000
00000000000000FFFF0000000000000000
00000000000000FFFF0000000000000000
00000000000000FFFF0000000000000000
00000000000000FFFF0000000000000000
00000000000000FFFF0000000000000000
00000000000000FFFF0000000000000000
00000000000000FFFF0000000000000000
00000000000000FFFF0000000000000000
00000000000000FFFF0000000000000000
00000000000000FFFF0000000000000000
00000000000000FFFF0000000000000000
00000000000000FFFF0000000000000000
00000000000000FFFF0000000000000000
00000000000000FFFF0000000000000000
00000000000000FFFF0000000000000000
00000000000000FFFF0000000000000000
00000000000000FFFF0000000000000000
00000000000000FFFF0000000000000000
00000000000000FFFF0000000000000000
00000000000000FFFF0000000000000000
00000000000000FFFF0000000000000000
00000000000000FFFF0000000000000000
00000000000000FFFF0000000000000000
00000000000000FFFF0000000000000000
00000000000000FFFF0000000000000000
00000000000000FFFF0000000000000000
00000000000000FFFF0000000000000000
FFFFFFFFFFFFFFFFFFFFFFFFFFFFFFFF80
FFFFFFFFFFFFFFFFFFFFFFFFFFFFFFFF80
FFFFFFFFFFFFFFFFFFFFFFFFFFFFFFFF80
FFFFFFFFFFFFFFFFFFFFFFFFFFFFFFFF80
FFFFFFFFFFFFFFFFFFFFFFFFFFFFFFFF80
FFFFFFFFFFFFFFFFFFFFFFFFFFFFFFFF80
FFFFFFFFFFFFFFFFFFFFFFFFFFFFFFFF80
FFFFFFFFFFFFFFFFFFFFFFFFFFFFFFFF80
FFFFFFFFFFFFFFFFFFFFFFFFFFFFFFFF80
FFFFFFFFFFFFFFFFFFFFFFFFFFFFFFFF80
FFFFFFFFFFFFFFFFFFFFFFFFFFFFFFFF80
FFFFFFFFFFFFFFFFFFFFFFFFFFFFFFFF80
FFFFFFFFFFFFFFFFFFFFFFFFFFFFFFFF80
FFFFFFFFFFFFFFFFFFFFFFFFFFFFFFFF80
FFFFFFFFFFFFFFFFFFFFFFFFFFFFFFFF80
FFFFFFFFFFFFFFFFFFFFFFFFFFFFFFFF80
00000000000000FFFF0000000000000000
00000000000000FFFF0000000000000000
00000000000000FFFF0000000000000000
00000000000000FFFF0000000000000000
00000000000000FFFF0000000000000000
00000000000000FFFF0000000000000000
00000000000000FFFF0000000000000000
00000000000000FFFF0000000000000000
00000000000000FFFF0000000000000000
00000000000000FFFF0000000000000000
00000000000000FFFF0000000000000000
00000000000000FFFF0000000000000000
00000000000000FFFF0000000000000000
00000000000000FFFF0000000000000000
00000000000000FFFF0000000000000000
00000000000000FFFF0000000000000000
00000000000000FFFF0000000000000000
00000000000000FFFF0000000000000000
00000000000000FFFF0000000000000000
00000000000000FFFF0000000000000000
00000000000000FFFF0000000000000000
00000000000000FFFF0000000000000000
00000000000000FFFF0000000000000000
00000000000000FFFF0000000000000000
00000000000000FFFF0000000000000000
00000000000000FFFF0000000000000000
00000000000000FFFF0000000000000000
00000000000000FFFF0000000000000000
00000000000000FFFF0000000000000000
00000000000000FFFF0000000000000000
00000000000000FFFF0000000000000000
00000000000000FFFF0000000000000000
00000000000000FFFF0000000000000000
00000000000000FFFF0000000000000000
00000000000000FFFF0000000000000000
00000000000000FFFF0000000000000000
00000000000000FFFF0000000000000000
00000000000000FFFF0000000000000000
00000000000000FFFF0000000000000000
00000000000000FFFF0000000000000000
00000000000000FFFF0000000000000000
00000000000000FFFF0000000000000000
00000000000000FFFF0000000000000000
00000000000000FFFF0000000000000000
00000000000000FFFF0000000000000000
00000000000000FFFF0000000000000000
00000000000000FFFF0000000000000000
00000000000000FFFF0000000000000000
00000000000000FFFF0000000000000000
00000000000000FFFF0000000000000000
00000000000000FFFF0000000000000000
00000000000000FFFF0000000000000000
00000000000000FFFF0000000000000000
00000000000000FFFF0000000000000000
00000000000000FFFF0000000000000000
00000000000000FFFF0000000000000000
ENDCHAR
STARTCHAR 002C
ENCODING 44
SWIDTH 206 0
DWIDTH 50 0
BBX 31 76 5 -41
BITMAP
00003F00
0000FFC0
0001FFE0
0003FFF0
0007FFF0
0007FFF8
0007FFF8
000FFFFC
000FFFFC
000FFFFC
000FFFFC
001FFFFC
001FFFFE
001FFFFE
001FFFFE
001FFFFE
001FFFFE
001FFFFE
001FFFFE
001FFFFE
001FFFFE
001FFFFE
001FFFFE
001FFFFE
000FFFFE
000FFFFE
000FFFFE
000FFFFE
0007FFFE
0007FFFE
0007FFFC
0003FFFC
0003FFFC
0003FFFC
0001FFFC
0001FFFC
0001FFFC
0001FFFC
0001FFFC
0001FFF8
0001FFF8
0001FFF8
0001FFF8
0003FFF8
0003FFF0
0003FFF0
0003FFF0
0007FFF0
0007FFE0
0007FFE0
000FFFE0
000FFFC0
001FFFC0
001FFFC0
003FFF80
003FFF80
007FFF00
00FFFF00
00FFFE00
01FFFE00
03FFFC00
07FFF800
0FFFF800
1FFFF000
3FFFE000
7FFFE000
FFFFC000
FFFF8000
FFFF0000
7FFE0000
7FFC0000
3FF80000
1FE00000
1FC00000
0F800000
06000000
ENDCHAR
STARTCHAR 002D
ENCODING 45
SWIDTH 454 0
DWIDTH 110 0
BBX 101 15 5 61
BITMAP
FFFFFFFFFFFFFFFFFFFFFFFFF8
FFFFFFFFFFFFFFFFFFFFFFFFF8
FFFFFFFFFFFFFFFFFFFFFFFFF8
FFFFFFFFFFFFFFFFFFFFFFFFF8
FFFFFFFFFFFFFFFFFFFFFFFFF8
FFFFFFFFFFFFFFFFFFFFFFFFF8
FFFFFFFFFFFFFFFFFFFFFFFFF8
FFFFFFFFFFFFFFFFFFFFFFFFF8
FFFFFFFFFFFFFFFFFFFFFFFFF8
FFFFFFFFFFFFFFFFFFFFFFFFF8
FFFFFFFFFFFFFFFFFFFFFFFFF8
FFFFFFFFFFFFFFFFFFFFFFFFF8
FFFFFFFFFFFFFFFFFFFFFFFFF8
FFFFFFFFFFFFFFFFFFFFFFFFF8
FFFFFFFFFFFFFFFFFFFFFFFFF8
ENDCHAR
STARTCHAR 002E
ENCODING 46
SWIDTH 206 0
DWIDTH 50 0
BBX 20 35 15 0
BITMAP
01F800
07FC00
0FFE00
1FFF00
3FFF80
3FFF80
7FFFC0
7FFFC0
7FFFE0
7FFFE0
FFFFE0
FFFFE0
FFFFF0
FFFFF0
FFFFF0
FFFFF0
FFFFF0
FFFFF0
FFFFF0
FFFFF0
FFFFF0
FFFFF0
FFFFF0
FFFFF0
7FFFF0
7FFFE0
7FFFE0
7FFFE0
3FFFE0
3FFFC0
1FFFC0
1FFF80
0FFF00
07FE00
01F800
ENDCHAR
STARTCHAR 002F
ENCODING 47
SWIDTH 454 0
DWIDTH 110 0
BBX 101 173 5 -5
BITMAP
0000000000000000000007FFF8
000000000000000000000FFFF0
000000000000000000000FFFF0
000000000000000000001FFFE0
000000000000000000001FFFE0
000000000000000000003FFFC0
000000000000000000003FFFC0
000000000000000000007FFF80
000000000000000000007FFF80
00000000000000000000FFFF00
00000000000000000000FFFF00
00000000000000000001FFFE00
00000000000000000001FFFE00
00000000000000000003FFFC00
00000000000000000003FFFC00
00000000000000000007FFF800
00000000000000000007FFF800
0000000000000000000FFFF000
0000000000000000000FFFF000
0000000000000000001FFFE000
0000000000000000001FFFE000
0000000000000000003FFFC000
0000000000000000003FFFC000
0000000000000000007FFF8000
0000000000000000007FFF8000
000000000000000000FFFF0000
000000000000000000FFFF0000
000000000000000001FFFF0000
000000000000000001FFFE0000
000000000000000003FFFE0000
000000000000000003FFFC0000
000000000000000007FFFC0000
000000000000000007FFF80000
00000000000000000FFFF80000
00000000000000000FFFF00000
00000000000000001FFFF00000
00000000000000001FFFE00000
00000000000000003FFFE00000
00000000000000003FFFC00000
00000000000000007FFFC00000
00000000000000007FFF800000
00000000000000007FFF800000
0000000000000000FFFF000000
0000000000000000FFFF000000
0000000000000001FFFE000000
0000000000000001FFFE000000
0000000000000003FFFC000000
0000000000000003FFFC000000
0000000000000007FFF8000000
0000000000000007FFF8000000
000000000000000FFFF0000000
000000000000000FFFF0000000
000000000000001FFFE0000000
000000000000001FFFE0000000
000000000000003FFFC0000000
000000000000003FFFC0000000
000000000000007FFF80000000
000000000000007FFF80000000
00000000000000FFFF00000000
00000000000000FFFF00000000
00000000000001FFFE00000000
00000000000001FFFE00000000
00000000000003FFFC00000000
00000000000003FFFC00000000
00000000000007FFF800000000
00000000000007FFF800000000
0000000000000FFFF000000000
0000000000000FFFF000000000
0000000000001FFFE000000000
0000000000001FFFE000000000
0000000000003FFFC000000000
0000000000003FFFC000000000
0000000000007FFF8000000000
0000000000007FFF8000000000
000000000000FFFF0000000000
000000000000FFFF0000000000
000000000001FFFE0000000000
000000000001FFFE0000000000
000000000003FFFC0000000000
000000000003FFFC0000000000
000000000007FFFC0000000000
000000000007FFF80000000000
00000000000FFFF80000000000
00000000000FFFF00000000000
00000000001FFFF00000000000
00000000001FFFE00000000000
00000000003FFFE00000000000
00000000003FFFC00000000000
00000000007FFFC00000000000
00000000007FFF800000000000
0000000000FFFF800000000000
0000000000FFFF000000000000
0000000001FFFF000000000000
0000000001FFFE000000000000
0000000001FFFE000000000000
0000000003FFFC000000000000
0000000003FFFC000000000000
0000000007FFF8000000000000
0000000007FFF8000000000000
000000000FFFF0000000000000
000000000FFFF0000000000000
000000001FFFE0000000000000
000000001FFFE0000000000000
000000003FFFC0000000000000
000000003FFFC0000000000000
000000007FFF80000000000000
000000007FFF80000000000000
00000000FFFF00000000000000
00000000FFFF00000000000000
00000001FFFE00000000000000
00000001FFFE00000000000000
00000003FFFC00000000000000
00000003FFFC00000000000000
00000007FFF800000000000000
00000007FFF800000000000000
0000000FFFF000000000000000
0000000FFFF000000000000000
0000001FFFE000000000000000
0000001FFFE000000000000000
0000003FFFC000000000000000
0000003FFFC000000000000000
0000007FFF8000000000000000
0000007FFF8000000000000000
000000FFFF0000000000000000
000000FFFF0000000000000000
000001FFFE0000000000000000
000001FFFE0000000000000000
000003FFFC0000000000000000
000003FFFC0000000000000000
000007FFF80000000000000000
000007FFF80000000000000000
00000FFFF00000000000000000
00000FFFF00000000000000000
00001FFFE00000000000000000
00001FFFE00000000000000000
00003FFFE00000000000000000
00003FFFC00000000000000000
00007FFFC00000000000000000
00007FFF800000000000000000
0000FFFF800000000000000000
0000FFFF000000000000000000
0001FFFF000000000000000000
0001FFFE000000000000000000
0003FFFE000000000000000000
0003FFFC000000000000000000
0007FFFC000000000000000000
0007FFF8000000000000000000
0007FFF8000000000000000000
000FFFF0000000000000000000
000FFFF0000000000000000000
001FFFE0000000000000000000
001FFFE0000000000000000000
003FFFC0000000000000000000
003FFFC0000000000000000000
007FFF80000000000000000000
007FFF80000000000000000000
00FFFF00000000000000000000
00FFFF00000000000000000000
01FFFE00000000000000000000
01FFFE00000000000000000000
03FFFC00000000000000000000
03FFFC00000000000000000000
07FFF800000000000000000000
07FFF800000000000000000000
0FFFF000000000000000000000
0FFFF000000000000000000000
1FFFE000000000000000000000
1FFFE000000000000000000000
3FFFC000000000000000000000
3FFFC000000000000000000000
7FFF8000000000000000000000
7FFF8000000000000000000000
FFFF0000000000000000000000
ENDCHAR
STARTCHAR 0030
ENCODING 48
SWIDTH 574 0
DWIDTH 139 0
BBX 108 168 15 -2
BITMAP
000000000003FFF8000000000000
00000000007FFFFFC00000000000
0000000003FFFFFFFC0000000000
000000001FFFFFFFFF0000000000
000000007FFFFFFFFFE000000000
00000001FFFFFFFFFFF000000000
00000007FFFFFFFFFFFC00000000
0000000FFFFFFFFFFFFF00000000
0000003FFFFFFFFFFFFF80000000
0000007FFFFFFFFFFFFFE0000000
000000FFFFFFFFFFFFFFF0000000
000001FFFFFFFFFFFFFFF8000000
000003FFFFFFFFFFFFFFFC000000
000007FFFFFFFFFFFFFFFE000000
00000FFFFFFFFFFFFFFFFF000000
00001FFFFFFFFFFFFFFFFF800000
00003FFFFFFF001FFFFFFFC00000
00007FFFFFF00001FFFFFFE00000
00007FFFFFC000003FFFFFE00000
0000FFFFFF0000000FFFFFF00000
0001FFFFFC00000003FFFFF80000
0001FFFFF800000001FFFFF80000
0003FFFFF000000000FFFFFC0000
0007FFFFC0000000007FFFFE0000
0007FFFF80000000003FFFFE0000
000FFFFF80000000001FFFFF0000
000FFFFF00000000000FFFFF0000
001FFFFE000000000007FFFF8000
001FFFFC000000000003FFFFC000
003FFFF8000000000001FFFFC000
003FFFF8000000000001FFFFC000
007FFFF0000000000000FFFFE000
007FFFF0000000000000FFFFE000
007FFFE00000000000007FFFF000
00FFFFE00000000000007FFFF000
00FFFFC00000000000003FFFF800
01FFFFC00000000000003FFFF800
01FFFF800000000000001FFFF800
01FFFF800000000000001FFFFC00
03FFFF000000000000000FFFFC00
03FFFF000000000000000FFFFC00
03FFFF000000000000000FFFFE00
07FFFE0000000000000007FFFE00
07FFFE0000000000000007FFFE00
07FFFE0000000000000007FFFF00
07FFFC0000000000000007FFFF00
0FFFFC0000000000000003FFFF00
0FFFFC0000000000000003FFFF00
0FFFFC0000000000000003FFFF80
0FFFF80000000000000001FFFF80
1FFFF80000000000000001FFFF80
1FFFF80000000000000001FFFF80
1FFFF80000000000000001FFFFC0
1FFFF80000000000000001FFFFC0
1FFFF00000000000000000FFFFC0
3FFFF00000000000000000FFFFC0
3FFFF00000000000000000FFFFC0
3FFFF00000000000000000FFFFC0
3FFFF00000000000000000FFFFE0
3FFFE00000000000000000FFFFE0
3FFFE00000000000000000FFFFE0
7FFFE000000000000000007FFFE0
7FFFE000000000000000007FFFE0
7FFFE000000000000000007FFFE0
7FFFE000000000000000007FFFE0
7FFFE000000000000000007FFFE0
7FFFE000000000000000007FFFE0
7FFFE000000000000000007FFFF0
7FFFC000000000000000007FFFF0
7FFFC000000000000000007FFFF0
FFFFC000000000000000007FFFF0
FFFFC000000000000000003FFFF0
FFFFC000000000000000003FFFF0
FFFFC000000000000000003FFFF0
FFFFC000000000000000003FFFF0
FFFFC000000000000000003FFFF0
FFFFC000000000000000003FFFF0
FFFFC000000000000000003FFFF0
FFFFC000000000000000003FFFF0
FFFFC000000000000000003FFFF0
FFFFC000000000000000003FFFF0
FFFFC000000000000000003FFFF0
FFFFC000000000000000003FFFF0
FFFFC000000000000000003FFFF0
FFFFC000000000000000003FFFF0
FFFFC000000000000000003FFFF0
FFFFC000000000000000003FFFF0
FFFFC000000000000000003FFFF0
FFFFC000000000000000003FFFF0
FFFFC000000000000000003FFFF0
FFFFC000000000000000003FFFF0
FFFFC000000000000000003FFFF0
FFFFC000000000000000003FFFF0
FFFFC000000000000000003FFFF0
FFFFC000000000000000003FFFF0
FFFFC000000000000000003FFFE0
FFFFC000000000000000003FFFE0
FFFFC000000000000000003FFFE0
FFFFE000000000000000003FFFE0
7FFFE000000000000000003FFFE0
7FFFE000000000000000007FFFE0
7FFFE000000000000000007FFFE0
7FFFE000000000000000007FFFE0
7FFFE000000000000000007FFFE0
7FFFE000000000000000007FFFE0
7FFFE000000000000000007FFFE0
7FFFE000000000000000007FFFC0
7FFFE000000000000000007FFFC0
3FFFF000000000000000007FFFC0
3FFFF000000000000000007FFFC0
3FFFF00000000000000000FFFFC0
3FFFF00000000000000000FFFFC0
3FFFF00000000000000000FFFFC0
3FFFF00000000000000000FFFF80
1FFFF80000000000000000FFFF80
1FFFF80000000000000000FFFF80
1FFFF80000000000000001FFFF80
1FFFF80000000000000001FFFF80
1FFFF80000000000000001FFFF80
0FFFFC0000000000000001FFFF00
0FFFFC0000000000000003FFFF00
0FFFFC0000000000000003FFFF00
0FFFFC0000000000000003FFFF00
07FFFE0000000000000003FFFE00
07FFFE0000000000000007FFFE00
07FFFE0000000000000007FFFE00
03FFFF0000000000000007FFFE00
03FFFF000000000000000FFFFC00
03FFFF000000000000000FFFFC00
01FFFF800000000000000FFFFC00
01FFFF800000000000001FFFF800
01FFFFC00000000000001FFFF800
00FFFFC00000000000003FFFF800
00FFFFC00000000000003FFFF000
007FFFE00000000000007FFFF000
007FFFF00000000000007FFFF000
007FFFF0000000000000FFFFE000
003FFFF8000000000000FFFFE000
003FFFF8000000000001FFFFC000
001FFFFC000000000003FFFFC000
001FFFFE000000000003FFFF8000
000FFFFF000000000007FFFF8000
000FFFFF00000000000FFFFF0000
0007FFFF80000000001FFFFF0000
0003FFFFC0000000003FFFFE0000
0003FFFFE0000000007FFFFE0000
0001FFFFF800000000FFFFFC0000
0001FFFFFC00000003FFFFF80000
0000FFFFFF00000007FFFFF80000
00007FFFFFC000001FFFFFF00000
00003FFFFFF00000FFFFFFE00000
00003FFFFFFF000FFFFFFFC00000
00001FFFFFFFFFFFFFFFFFC00000
00000FFFFFFFFFFFFFFFFF800000
000007FFFFFFFFFFFFFFFF000000
000003FFFFFFFFFFFFFFFE000000
000001FFFFFFFFFFFFFFFC000000
000000FFFFFFFFFFFFFFF8000000
0000007FFFFFFFFFFFFFF0000000
0000001FFFFFFFFFFFFFC0000000
0000000FFFFFFFFFFFFF80000000
00000003FFFFFFFFFFFE00000000
00000001FFFFFFFFFFF800000000
000000007FFFFFFFFFF000000000
000000001FFFFFFFFF8000000000
0000000003FFFFFFFE0000000000
00000000007FFFFFE00000000000
000000000003FFFC000000000000
ENDCHAR
STARTCHAR 0031
ENCODING 49
SWIDTH 574 0
DWIDTH 139 0
BBX 96 166 23 1
BITMAP
000000000007FFE000000000
000000000007FFE000000000
00000000000FFFE000000000
00000000000FFFE000000000
00000000001FFFE000000000
00000000003FFFE000000000
00000000003FFFE000000000
00000000007FFFE000000000
0000000001FFFFE000000000
0000000003FFFFE000000000
000000001FFFFFE000000000
00000000FFFFFFE000000000
0000001FFFFFFFE000000000
7FFFFFFFFFFFFFE000000000
FFFFFFFFFFFFFFE000000000
FFFFFFFFFFFFFFE000000000
FFFFFFFFFFFFFFE000000000
FFFFFFFFFFFFFFE000000000
FFFFFFFFFFFFFFE000000000
FFFFFFFFFFFFFFE000000000
FFFFFFFFFFFFFFE000000000
FFFFFFFFFFFFFFE000000000
FFFFFFFFFFFFFFE000000000
FFFFFFFFFFFFFFE000000000
FFFFFFFFFFFFFFE000000000
FFFFFFFFFFFFFFE000000000
FFFFFFFFFFFFFFE000000000
7FFFFFFFFFFFFFE000000000
00000000003FFFE000000000
00000000003FFFE000000000
00000000003FFFE000000000
00000000003FFFE000000000
00000000003FFFE000000000
00000000003FFFE000000000
00000000003FFFE000000000
00000000003FFFE000000000
00000000003FFFE000000000
00000000003FFFE000000000
00000000003FFFE000000000
00000000003FFFE000000000
00000000003FFFE000000000
00000000003FFFE000000000
00000000003FFFE000000000
00000000003FFFE000000000
00000000003FFFE000000000
00000000003FFFE000000000
00000000003FFFE000000000
00000000003FFFE000000000
00000000003FFFE000000000
00000000003FFFE000000000
00000000003FFFE000000000
00000000003FFFE000000000
00000000003FFFE000000000
00000000003FFFE000000000
00000000003FFFE000000000
00000000003FFFE000000000
00000000003FFFE000000000
00000000003FFFE000000000
00000000003FFFE000000000
00000000003FFFE000000000
00000000003FFFE000000000
00000000003FFFE000000000
00000000003FFFE000000000
00000000003FFFE000000000
00000000003FFFE000000000
00000000003FFFE000000000
00000000003FFFE000000000
00000000003FFFE000000000
00000000003FFFE000000000
00000000003FFFE000000000
00000000003FFFE000000000
00000000003FFFE000000000
00000000003FFFE000000000
00000000003FFFE000000000
00000000003FFFE000000000
00000000003FFFE000000000
00000000003FFFE000000000
00000000003FFFE000000000
00000000003FFFE000000000
00000000003FFFE000000000
00000000003FFFE000000000
00000000003FFFE000000000
00000000003FFFE000000000
00000000003FFFE000000000
00000000003FFFE000000000
00000000003FFFE000000000
00000000003FFFE000000000
00000000003FFFE000000000
00000000003FFFE000000000
00000000003FFFE000000000
00000000003FFFE000000000
00000000003FFFE000000000
00000000003FFFE000000000
00000000003FFFE000000000
00000000003FFFE000000000
00000000003FFFE000000000
00000000003FFFE000000000
00000000003FFFE000000000
00000000003FFFE000000000
00000000003FFFE000000000
00000000003FFFE000000000
00000000003FFFE000000000
00000000003FFFE000000000
00000000003FFFE000000000
00000000003FFFE000000000
00000000003FFFE000000000
00000000003FFFE000000000
00000000003FFFE000000000
00000000003FFFE000000000
00000000003FFFE000000000
00000000003FFFE000000000
00000000003FFFE000000000
00000000003FFFE000000000
00000000003FFFE000000000
00000000003FFFE000000000
00000000003FFFE000000000
00000000003FFFE000000000
00000000003FFFE000000000
00000000003FFFE000000000
00000000003FFFE000000000
00000000003FFFE000000000
00000000003FFFE000000000
00000000003FFFE000000000
00000000003FFFE000000000
00000000003FFFE000000000
00000000003FFFE000000000
00000000003FFFE000000000
00000000003FFFE000000000
00000000003FFFE000000000
00000000003FFFE000000000
00000000003FFFE000000000
00000000003FFFE000000000
00000000003FFFE000000000
00000000003FFFE000000000
00000000003FFFE000000000
00000000003FFFE000000000
00000000003FFFE000000000
00000000003FFFE000000000
00000000003FFFE000000000
00000000003FFFE000000000
00000000003FFFE000000000
00000000003FFFE000000000
00000000003FFFE000000000
00000000003FFFE000000000
00000000003FFFE000000000
00000000003FFFE000000000
00000000003FFFE000000000
00000000003FFFE000000000
00000000003FFFE000000000
00000000003FFFE000000000
00FFFFFFFFFFFFFFFFFFFFFC
03FFFFFFFFFFFFFFFFFFFFFE
03FFFFFFFFFFFFFFFFFFFFFF
03FFFFFFFFFFFFFFFFFFFFFF
03FFFFFFFFFFFFFFFFFFFFFF
03FFFFFFFFFFFFFFFFFFFFFF
03FFFFFFFFFFFFFFFFFFFFFF
03FFFFFFFFFFFFFFFFFFFFFF
03FFFFFFFFFFFFFFFFFFFFFF
03FFFFFFFFFFFFFFFFFFFFFF
03FFFFFFFFFFFFFFFFFFFFFF
03FFFFFFFFFFFFFFFFFFFFFF
03FFFFFFFFFFFFFFFFFFFFFF
03FFFFFFFFFFFFFFFFFFFFFF
03FFFFFFFFFFFFFFFFFFFFFE
01FFFFFFFFFFFFFFFFFFFFFC
ENDCHAR
STARTCHAR 0032
ENCODING 50
SWIDTH 574 0
DWIDTH 139 0
BBX 107 166 16 0
BITMAP
000000000001FFFE000000000000
00000000007FFFFFF00000000000
0000000003FFFFFFFF0000000000
000000003FFFFFFFFFC000000000
00000000FFFFFFFFFFF000000000
00000003FFFFFFFFFFFC00000000
0000000FFFFFFFFFFFFF00000000
0000003FFFFFFFFFFFFFC0000000
0000007FFFFFFFFFFFFFE0000000
000001FFFFFFFFFFFFFFF8000000
000003FFFFFFFFFFFFFFFC000000
000007FFFFFFFFFFFFFFFE000000
00000FFFFFFFFFFFFFFFFF000000
00003FFFFFFFFFFFFFFFFF800000
00007FFFFFFFFFFFFFFFFFC00000
0000FFFFFFFFFFFFFFFFFFE00000
0000FFFFFFFC000FFFFFFFF00000
0001FFFFFF800000FFFFFFF80000
0003FFFFFC0000001FFFFFFC0000
0007FFFFF000000007FFFFFE0000
0007FFFFC000000001FFFFFE0000
000FFFFF80000000007FFFFF0000
001FFFFE00000000003FFFFF8000
001FFFFC00000000001FFFFF8000
003FFFF800000000000FFFFFC000
003FFFF0000000000007FFFFC000
007FFFE0000000000003FFFFE000
007FFFC0000000000001FFFFE000
00FFFFC0000000000000FFFFF000
00FFFF80000000000000FFFFF000
01FFFF800000000000007FFFF000
01FFFF000000000000003FFFF800
01FFFF000000000000003FFFF800
03FFFE000000000000001FFFF800
03FFFE000000000000001FFFFC00
03FFFC000000000000001FFFFC00
03FFFC000000000000000FFFFC00
07FFFC000000000000000FFFFC00
07FFFC000000000000000FFFFC00
07FFF8000000000000000FFFFE00
07FFF8000000000000000FFFFE00
07FFF80000000000000007FFFE00
07FFF80000000000000007FFFE00
0FFFF80000000000000007FFFE00
0FFFF00000000000000007FFFE00
0FFFF00000000000000007FFFE00
0FFFF00000000000000007FFFE00
0FFFF00000000000000007FFFE00
0FFFF00000000000000007FFFE00
0FFFF00000000000000007FFFE00
0FFFF00000000000000007FFFE00
0FFFF00000000000000007FFFE00
0FFFF00000000000000007FFFE00
0FFFF0000000000000000FFFFC00
0FFFF0000000000000000FFFFC00
0FFFF0000000000000000FFFFC00
0FFFF0000000000000000FFFFC00
03FFE0000000000000001FFFFC00
000000000000000000001FFFF800
000000000000000000001FFFF800
000000000000000000003FFFF800
000000000000000000003FFFF800
000000000000000000003FFFF000
000000000000000000007FFFF000
000000000000000000007FFFE000
00000000000000000000FFFFE000
00000000000000000001FFFFE000
00000000000000000001FFFFC000
00000000000000000003FFFFC000
00000000000000000003FFFF8000
00000000000000000007FFFF0000
0000000000000000000FFFFF0000
0000000000000000001FFFFE0000
0000000000000000001FFFFE0000
0000000000000000003FFFFC0000
0000000000000000007FFFF80000
000000000000000000FFFFF00000
000000000000000001FFFFF00000
000000000000000003FFFFE00000
000000000000000007FFFFC00000
00000000000000000FFFFF800000
00000000000000001FFFFF000000
00000000000000003FFFFE000000
0000000000000000FFFFFC000000
0000000000000001FFFFF8000000
0000000000000003FFFFF0000000
0000000000000007FFFFE0000000
000000000000000FFFFF80000000
000000000000003FFFFF00000000
000000000000007FFFFE00000000
00000000000000FFFFFC00000000
00000000000003FFFFF800000000
00000000000007FFFFE000000000
0000000000000FFFFFC000000000
0000000000003FFFFF8000000000
0000000000007FFFFF0000000000
000000000000FFFFFC0000000000
000000000003FFFFF80000000000
000000000007FFFFF00000000000
00000000000FFFFFE00000000000
00000000003FFFFF800000000000
00000000007FFFFF000000000000
0000000001FFFFFE000000000000
0000000003FFFFFC000000000000
0000000007FFFFF0000000000000
000000000FFFFFE0000000000000
000000003FFFFFC0000000000000
000000007FFFFF00000000000000
00000000FFFFFE00000000000000
00000001FFFFFC00000000000000
00000003FFFFF000000000000000
0000000FFFFFE000000000000000
0000001FFFFFC000000000000000
0000003FFFFF8000000000000000
0000007FFFFE0000000000000000
000000FFFFFC0000000000000000
000001FFFFF80000000000000000
000003FFFFF00000000000000000
000007FFFFC00000000000000000
00000FFFFF800000000000000000
00001FFFFF000000000000000000
00003FFFFE000000000000000000
00007FFFF8000000000000000000
0000FFFFF0000000000000000000
0000FFFFE0000000000000000000
0001FFFFC0000000000000000000
0003FFFF80000000000000000000
0007FFFF00000000000000000000
0007FFFE00000000000000000000
000FFFFC00000000000000000000
001FFFF80000000000000003FFC0
001FFFF00000000000000007FFE0
003FFFE0000000000000000FFFE0
003FFFC0000000000000000FFFE0
007FFFC0000000000000000FFFE0
00FFFF80000000000000001FFFE0
00FFFF00000000000000001FFFE0
01FFFE00000000000000001FFFE0
01FFFE00000000000000001FFFC0
03FFFC00000000000000001FFFC0
03FFF800000000000000001FFFC0
03FFF800000000000000001FFFC0
07FFF000000000000000001FFFC0
07FFF000000000000000001FFFC0
0FFFE000000000000000001FFFC0
0FFFE000000000000000003FFFC0
0FFFC000000000000000003FFF80
1FFFC000000000000000003FFF80
1FFFC000000000000000003FFF80
1FFF8000000000000000003FFF80
1FFFFFFFFFFFFFFFFFFFFFFFFF80
3FFFFFFFFFFFFFFFFFFFFFFFFF80
3FFFFFFFFFFFFFFFFFFFFFFFFF80
3FFFFFFFFFFFFFFFFFFFFFFFFF80
3FFFFFFFFFFFFFFFFFFFFFFFFF00
7FFFFFFFFFFFFFFFFFFFFFFFFF00
7FFFFFFFFFFFFFFFFFFFFFFFFF00
7FFFFFFFFFFFFFFFFFFFFFFFFF00
7FFFFFFFFFFFFFFFFFFFFFFFFF00
7FFFFFFFFFFFFFFFFFFFFFFFFF00
7FFFFFFFFFFFFFFFFFFFFFFFFF00
FFFFFFFFFFFFFFFFFFFFFFFFFF00
FFFFFFFFFFFFFFFFFFFFFFFFFE00
FFFFFFFFFFFFFFFFFFFFFFFFFE00
FFFFFFFFFFFFFFFFFFFFFFFFFE00
FFFFFFFFFFFFFFFFFFFFFFFFFE00
ENDCHAR
STARTCHAR 0033
ENCODING 51
SWIDTH 574 0
DWIDTH 139 0
BBX 104 168 17 -2
BITMAP
00000000007FFF800000000000
000000000FFFFFFF0000000000
00000000FFFFFFFFF000000000
00000007FFFFFFFFFE00000000
0000001FFFFFFFFFFF80000000
0000007FFFFFFFFFFFE0000000
000001FFFFFFFFFFFFF8000000
000007FFFFFFFFFFFFFE000000
00000FFFFFFFFFFFFFFF800000
00003FFFFFFFFFFFFFFFC00000
00007FFFFFFFFFFFFFFFF00000
0000FFFFFFFFFFFFFFFFF80000
0003FFFFFFFFFFFFFFFFFC0000
0007FFFFFFFFFFFFFFFFFE0000
000FFFFFFFFFFFFFFFFFFF0000
000FFFFFFFFFFFFFFFFFFF8000
001FFFFFFFF0007FFFFFFFC000
003FFFFFFE000007FFFFFFE000
007FFFFFF0000000FFFFFFF000
007FFFFFC00000003FFFFFF800
00FFFFFF000000000FFFFFF800
01FFFFFC0000000003FFFFFC00
01FFFFF80000000001FFFFFC00
03FFFFE000000000007FFFFE00
03FFFFC000000000003FFFFE00
07FFFF8000000000001FFFFF00
07FFFF0000000000000FFFFF00
07FFFF00000000000007FFFF80
0FFFFE00000000000007FFFF80
0FFFFC00000000000003FFFF80
0FFFFC00000000000001FFFFC0
0FFFF800000000000001FFFFC0
0FFFF800000000000000FFFFC0
1FFFF000000000000000FFFFC0
1FFFF000000000000000FFFFC0
1FFFF0000000000000007FFFE0
1FFFE0000000000000007FFFE0
1FFFE0000000000000007FFFE0
1FFFE0000000000000003FFFE0
1FFFE0000000000000003FFFE0
1FFFE0000000000000003FFFE0
1FFFE0000000000000003FFFE0
1FFFE0000000000000003FFFE0
1FFFE0000000000000003FFFE0
07FFC0000000000000003FFFE0
000000000000000000003FFFE0
000000000000000000003FFFE0
000000000000000000003FFFE0
000000000000000000003FFFE0
000000000000000000007FFFC0
000000000000000000007FFFC0
000000000000000000007FFFC0
000000000000000000007FFFC0
00000000000000000000FFFFC0
00000000000000000000FFFF80
00000000000000000001FFFF80
00000000000000000001FFFF80
00000000000000000003FFFF00
00000000000000000003FFFF00
00000000000000000007FFFE00
0000000000000000000FFFFE00
0000000000000000001FFFFC00
0000000000000000003FFFFC00
0000000000000000007FFFF800
000000000000000000FFFFF800
000000000000000003FFFFF000
000000000000000007FFFFE000
00000000000000001FFFFFC000
00000000000000007FFFFF8000
0000000000000003FFFFFF0000
000000000000007FFFFFFE0000
000000000000FFFFFFFFFC0000
000000000003FFFFFFFFF80000
000000000003FFFFFFFFE00000
000000000003FFFFFFFF800000
000000000003FFFFFFFE000000
000000000003FFFFFFF8000000
000000000003FFFFFFE0000000
000000000003FFFFFFC0000000
000000000003FFFFFFF0000000
000000000003FFFFFFFE000000
000000000003FFFFFFFF800000
000000000003FFFFFFFFC00000
000000000003FFFFFFFFF00000
000000000003FFFFFFFFFC0000
000000000003FFFFFFFFFE0000
000000000001FFFFFFFFFF8000
000000000000007FFFFFFFC000
0000000000000003FFFFFFE000
00000000000000007FFFFFF000
00000000000000001FFFFFF800
000000000000000007FFFFFC00
000000000000000001FFFFFE00
0000000000000000007FFFFF00
0000000000000000003FFFFF00
0000000000000000001FFFFF80
0000000000000000000FFFFFC0
00000000000000000007FFFFC0
00000000000000000003FFFFE0
00000000000000000001FFFFE0
00000000000000000000FFFFF0
000000000000000000007FFFF0
000000000000000000007FFFF8
000000000000000000003FFFF8
000000000000000000001FFFFC
000000000000000000001FFFFC
000000000000000000000FFFFC
000000000000000000000FFFFC
000000000000000000000FFFFE
0000000000000000000007FFFE
1FFC000000000000000007FFFE
7FFF000000000000000007FFFE
7FFF000000000000000007FFFF
FFFF800000000000000003FFFF
FFFF800000000000000003FFFF
FFFF800000000000000003FFFF
FFFF800000000000000003FFFF
FFFF800000000000000003FFFF
FFFF800000000000000003FFFF
FFFF800000000000000003FFFF
FFFF800000000000000003FFFF
FFFF800000000000000003FFFF
FFFF800000000000000003FFFF
FFFF800000000000000003FFFF
FFFFC00000000000000003FFFF
FFFFC00000000000000007FFFF
FFFFC00000000000000007FFFF
7FFFC00000000000000007FFFE
7FFFC00000000000000007FFFE
7FFFC00000000000000007FFFE
7FFFE0000000000000000FFFFE
7FFFE0000000000000000FFFFE
7FFFE0000000000000000FFFFE
3FFFF0000000000000001FFFFC
3FFFF0000000000000001FFFFC
3FFFF8000000000000003FFFFC
1FFFF8000000000000003FFFF8
1FFFFC000000000000007FFFF8
1FFFFC00000000000000FFFFF8
0FFFFE00000000000000FFFFF0
0FFFFE00000000000001FFFFF0
0FFFFF00000000000003FFFFE0
07FFFF80000000000007FFFFE0
07FFFFC000000000000FFFFFC0
03FFFFE000000000001FFFFFC0
01FFFFF000000000003FFFFF80
01FFFFFC0000000000FFFFFF00
00FFFFFE0000000001FFFFFF00
00FFFFFF8000000007FFFFFE00
007FFFFFF00000003FFFFFFC00
003FFFFFFE000001FFFFFFF800
001FFFFFFFF0003FFFFFFFF800
000FFFFFFFFFFFFFFFFFFFF000
0007FFFFFFFFFFFFFFFFFFE000
0003FFFFFFFFFFFFFFFFFFC000
0001FFFFFFFFFFFFFFFFFF0000
0000FFFFFFFFFFFFFFFFFE0000
00007FFFFFFFFFFFFFFFFC0000
00003FFFFFFFFFFFFFFFF80000
00000FFFFFFFFFFFFFFFE00000
000007FFFFFFFFFFFFFF800000
000001FFFFFFFFFFFFFF000000
0000007FFFFFFFFFFFFC000000
0000001FFFFFFFFFFFE0000000
00000003FFFFFFFFFF80000000
000000007FFFFFFFFC00000000
000000000FFFFFFFC000000000
00000000003FFFF00000000000
ENDCHAR
STARTCHAR 0034
ENCODING 52
SWIDTH 574 0
DWIDTH 139 0
BBX 120 166 9 0
BITMAP
0000000000000000000FFFC0000000
0000000000000000001FFFE0000000
0000000000000000003FFFE0000000
0000000000000000007FFFE0000000
000000000000000000FFFFE0000000
000000000000000001FFFFE0000000
000000000000000001FFFFE0000000
000000000000000003FFFFE0000000
000000000000000007FFFFE0000000
00000000000000000FFFFFE0000000
00000000000000000FFFFFE0000000
00000000000000001FFFFFE0000000
00000000000000003FFFFFE0000000
00000000000000003FFFFFE0000000
00000000000000007FFFFFE0000000
0000000000000000FFFFFFE0000000
0000000000000001FFFFFFE0000000
0000000000000001FFFFFFE0000000
0000000000000003FFFFFFE0000000
0000000000000007FFFFFFE0000000
0000000000000007FFFFFFE0000000
000000000000000FFFFFFFE0000000
000000000000001FFFFFFFE0000000
000000000000003FFFFFFFE0000000
000000000000003FFFFFFFE0000000
000000000000007FFFFFFFE0000000
00000000000000FFFFDFFFE0000000
00000000000000FFFF9FFFE0000000
00000000000001FFFF9FFFE0000000
00000000000003FFFF1FFFE0000000
00000000000007FFFE1FFFE0000000
00000000000007FFFC1FFFE0000000
0000000000000FFFFC1FFFE0000000
0000000000001FFFF81FFFE0000000
0000000000001FFFF01FFFE0000000
0000000000003FFFF01FFFE0000000
0000000000007FFFE01FFFE0000000
000000000000FFFFC01FFFE0000000
000000000000FFFF801FFFE0000000
000000000001FFFF801FFFE0000000
000000000003FFFF001FFFE0000000
000000000003FFFE001FFFE0000000
000000000007FFFE001FFFE0000000
00000000000FFFFC001FFFE0000000
00000000001FFFF8001FFFE0000000
00000000001FFFF0001FFFE0000000
00000000003FFFF0001FFFE0000000
00000000007FFFE0001FFFE0000000
00000000007FFFC0001FFFE0000000
0000000000FFFFC0001FFFE0000000
0000000001FFFF80001FFFE0000000
0000000003FFFF00001FFFE0000000
0000000003FFFE00001FFFE0000000
0000000007FFFE00001FFFE0000000
000000000FFFFC00001FFFE0000000
000000000FFFF800001FFFE0000000
000000001FFFF800001FFFE0000000
000000003FFFF000001FFFE0000000
000000007FFFE000001FFFE0000000
000000007FFFC000001FFFE0000000
00000000FFFFC000001FFFE0000000
00000001FFFF8000001FFFE0000000
00000001FFFF0000001FFFE0000000
00000003FFFF0000001FFFE0000000
00000007FFFE0000001FFFE0000000
0000000FFFFC0000001FFFE0000000
0000000FFFF80000001FFFE0000000
0000001FFFF80000001FFFE0000000
0000003FFFF00000001FFFE0000000
0000003FFFE00000001FFFE0000000
0000007FFFE00000001FFFE0000000
000000FFFFC00000001FFFE0000000
000001FFFF800000001FFFE0000000
000001FFFF000000001FFFE0000000
000003FFFF000000001FFFE0000000
000007FFFE000000001FFFE0000000
000007FFFC000000001FFFE0000000
00000FFFFC000000001FFFE0000000
00001FFFF8000000001FFFE0000000
00003FFFF0000000001FFFE0000000
00003FFFE0000000001FFFE0000000
00007FFFE0000000001FFFE0000000
0000FFFFC0000000001FFFE0000000
0000FFFF80000000001FFFE0000000
0001FFFF80000000001FFFE0000000
0003FFFF00000000001FFFE0000000
0007FFFE00000000001FFFE0000000
0007FFFC00000000001FFFE0000000
000FFFFC00000000001FFFE0000000
001FFFF800000000001FFFE0000000
001FFFF000000000001FFFE0000000
003FFFF000000000001FFFE0000000
007FFFE000000000001FFFE0000000
00FFFFC000000000001FFFE0000000
00FFFFC000000000001FFFE0000000
01FFFF8000000000001FFFE0000000
03FFFF0000000000001FFFE0000000
03FFFE0000000000001FFFE0000000
07FFFE0000000000001FFFE0000000
0FFFFC0000000000001FFFE0000000
0FFFF80000000000001FFFE0000000
1FFFF80000000000001FFFE0000000
3FFFF00000000000001FFFE0000000
3FFFE00000000000001FFFE0000000
7FFFC00000000000001FFFE0000000
7FFFFFFFFFFFFFFFFFFFFFFFFFFFFC
FFFFFFFFFFFFFFFFFFFFFFFFFFFFFE
FFFFFFFFFFFFFFFFFFFFFFFFFFFFFF
FFFFFFFFFFFFFFFFFFFFFFFFFFFFFF
FFFFFFFFFFFFFFFFFFFFFFFFFFFFFF
FFFFFFFFFFFFFFFFFFFFFFFFFFFFFF
FFFFFFFFFFFFFFFFFFFFFFFFFFFFFF
FFFFFFFFFFFFFFFFFFFFFFFFFFFFFF
FFFFFFFFFFFFFFFFFFFFFFFFFFFFFF
FFFFFFFFFFFFFFFFFFFFFFFFFFFFFF
FFFFFFFFFFFFFFFFFFFFFFFFFFFFFF
FFFFFFFFFFFFFFFFFFFFFFFFFFFFFF
FFFFFFFFFFFFFFFFFFFFFFFFFFFFFF
FFFFFFFFFFFFFFFFFFFFFFFFFFFFFF
7FFFFFFFFFFFFFFFFFFFFFFFFFFFFE
0000000000000000001FFFE0000000
0000000000000000001FFFE0000000
0000000000000000001FFFE0000000
0000000000000000001FFFE0000000
0000000000000000001FFFE0000000
0000000000000000001FFFE0000000
0000000000000000001FFFE0000000
0000000000000000001FFFE0000000
0000000000000000001FFFE0000000
0000000000000000001FFFE0000000
0000000000000000001FFFE0000000
0000000000000000001FFFE0000000
0000000000000000001FFFE0000000
0000000000000000001FFFE0000000
0000000000000000001FFFE0000000
0000000000000000001FFFE0000000
0000000000000000001FFFE0000000
0000000000000000001FFFE0000000
0000000000000000001FFFE0000000
0000000000000000001FFFE0000000
0000000000000000001FFFE0000000
0000000000000000001FFFE0000000
0000000000000000001FFFE0000000
0000000000000000001FFFE0000000
0000000000000000001FFFE0000000
0000000000000000001FFFE0000000
0000000000000000001FFFE0000000
0000000000000000001FFFE0000000
0000000000000000001FFFE0000000
0000000000000000001FFFE0000000
0000000000000000001FFFE0000000
00000000003FFFFFFFFFFFFFFFFFF8
00000000007FFFFFFFFFFFFFFFFFFC
0000000000FFFFFFFFFFFFFFFFFFFE
0000000000FFFFFFFFFFFFFFFFFFFE
0000000000FFFFFFFFFFFFFFFFFFFE
0000000000FFFFFFFFFFFFFFFFFFFE
0000000000FFFFFFFFFFFFFFFFFFFE
0000000000FFFFFFFFFFFFFFFFFFFE
0000000000FFFFFFFFFFFFFFFFFFFE
0000000000FFFFFFFFFFFFFFFFFFFE
0000000000FFFFFFFFFFFFFFFFFFFE
0000000000FFFFFFFFFFFFFFFFFFFE
0000000000FFFFFFFFFFFFFFFFFFFE
00000000007FFFFFFFFFFFFFFFFFFC
00000000003FFFFFFFFFFFFFFFFFFC
ENDCHAR
STARTCHAR 0035
ENCODING 53
SWIDTH 574 0
DWIDTH 139 0
BBX 104 166 17 -2
BITMAP
0001FFFFFFFFFFFFFFFFFFFFC0
0001FFFFFFFFFFFFFFFFFFFFE0
0001FFFFFFFFFFFFFFFFFFFFF0
0001FFFFFFFFFFFFFFFFFFFFF0
0001FFFFFFFFFFFFFFFFFFFFF0
0001FFFFFFFFFFFFFFFFFFFFF0
0001FFFFFFFFFFFFFFFFFFFFF0
0001FFFFFFFFFFFFFFFFFFFFF0
0003FFFFFFFFFFFFFFFFFFFFF0
0003FFFFFFFFFFFFFFFFFFFFF0
0003FFFFFFFFFFFFFFFFFFFFF0
0003FFFFFFFFFFFFFFFFFFFFF0
0003FFFFFFFFFFFFFFFFFFFFF0
0003FFFFFFFFFFFFFFFFFFFFF0
0003FFFFFFFFFFFFFFFFFFFFE0
0003FFFFFFFFFFFFFFFFFFFFC0
0003FFFC000000000000000000
0003FFFC000000000000000000
0003FFFC000000000000000000
0003FFFC000000000000000000
0003FFFC000000000000000000
0003FFFC000000000000000000
0003FFFC000000000000000000
0003FFFC000000000000000000
0007FFFC000000000000000000
0007FFF8000000000000000000
0007FFF8000000000000000000
0007FFF8000000000000000000
0007FFF8000000000000000000
0007FFF8000000000000000000
0007FFF8000000000000000000
0007FFF8000000000000000000
0007FFF8000000000000000000
0007FFF8000000000000000000
0007FFF8000000000000000000
0007FFF8000000000000000000
0007FFF8000000000000000000
0007FFF8000000000000000000
0007FFF8000000000000000000
0007FFF8000000000000000000
000FFFF8000000000000000000
000FFFF8000000000000000000
000FFFF0000000000000000000
000FFFF0000000000000000000
000FFFF0000000000000000000
000FFFF0000000000000000000
000FFFF0000000000000000000
000FFFF0000000000000000000
000FFFF0000000000000000000
000FFFF0000000000000000000
000FFFF0000000000000000000
000FFFF0000000000000000000
000FFFF0000000000000000000
000FFFF0000000000000000000
000FFFF0000000000000000000
000FFFF0000000000000000000
001FFFF0000000000000000000
001FFFF000007FFE0000000000
001FFFF0000FFFFFF800000000
001FFFE000FFFFFFFF00000000
001FFFE003FFFFFFFFE0000000
001FFFE00FFFFFFFFFF8000000
001FFFE03FFFFFFFFFFE000000
001FFFE0FFFFFFFFFFFF800000
001FFFE3FFFFFFFFFFFFC00000
001FFFE7FFFFFFFFFFFFF00000
001FFFEFFFFFFFFFFFFFF80000
001FFFFFFFFFFFFFFFFFFC0000
001FFFFFFFFFFFFFFFFFFF0000
001FFFFFFFFFFFFFFFFFFF8000
001FFFFFFFFFFFFFFFFFFFC000
001FFFFFFFFFFFFFFFFFFFE000
003FFFFFFFFFFFFFFFFFFFE000
003FFFFFFFFE001FFFFFFFF000
003FFFFFFFC00001FFFFFFF800
003FFFFFFE0000003FFFFFFC00
003FFFFFF00000000FFFFFFE00
003FFFFFC000000003FFFFFE00
003FFFFF8000000000FFFFFF00
003FFFFE00000000007FFFFF00
003FFFF800000000003FFFFF80
003FFFF000000000001FFFFFC0
003FFFC000000000000FFFFFC0
001FFF00000000000007FFFFE0
00000000000000000003FFFFE0
00000000000000000001FFFFF0
00000000000000000001FFFFF0
00000000000000000000FFFFF0
000000000000000000007FFFF8
000000000000000000007FFFF8
000000000000000000003FFFF8
000000000000000000003FFFFC
000000000000000000001FFFFC
000000000000000000001FFFFC
000000000000000000001FFFFC
000000000000000000000FFFFE
000000000000000000000FFFFE
000000000000000000000FFFFE
0000000000000000000007FFFE
0000000000000000000007FFFE
0000000000000000000007FFFE
0000000000000000000007FFFF
0000000000000000000007FFFF
0000000000000000000003FFFF
0000000000000000000003FFFF
0000000000000000000003FFFF
0000000000000000000003FFFF
0000000000000000000003FFFF
0000000000000000000003FFFF
0000000000000000000003FFFF
0000000000000000000003FFFF
0000000000000000000003FFFF
0000000000000000000003FFFF
7FFF000000000000000003FFFF
FFFF800000000000000003FFFF
FFFF800000000000000003FFFF
FFFF800000000000000003FFFF
FFFF800000000000000003FFFF
FFFF800000000000000007FFFF
FFFF800000000000000007FFFE
FFFF800000000000000007FFFE
FFFF800000000000000007FFFE
FFFF800000000000000007FFFE
FFFF80000000000000000FFFFE
FFFFC0000000000000000FFFFE
FFFFC0000000000000000FFFFC
7FFFC0000000000000000FFFFC
7FFFC0000000000000001FFFFC
7FFFE0000000000000001FFFFC
7FFFE0000000000000003FFFF8
7FFFE0000000000000003FFFF8
7FFFF0000000000000007FFFF8
3FFFF0000000000000007FFFF0
3FFFF800000000000000FFFFF0
3FFFF800000000000000FFFFF0
1FFFFC00000000000001FFFFE0
1FFFFE00000000000003FFFFE0
1FFFFE00000000000003FFFFC0
0FFFFF00000000000007FFFFC0
0FFFFF8000000000000FFFFF80
07FFFFC000000000001FFFFF80
07FFFFE000000000003FFFFF00
03FFFFF000000000007FFFFF00
03FFFFF80000000000FFFFFE00
01FFFFFE0000000003FFFFFC00
00FFFFFF000000000FFFFFFC00
00FFFFFFC00000001FFFFFF800
007FFFFFF0000000FFFFFFF000
003FFFFFFE000007FFFFFFE000
001FFFFFFFF0007FFFFFFFC000
000FFFFFFFFFFFFFFFFFFFC000
0007FFFFFFFFFFFFFFFFFF8000
0003FFFFFFFFFFFFFFFFFF0000
0001FFFFFFFFFFFFFFFFFE0000
0000FFFFFFFFFFFFFFFFF80000
00007FFFFFFFFFFFFFFFF00000
00001FFFFFFFFFFFFFFFE00000
00000FFFFFFFFFFFFFFFC00000
000003FFFFFFFFFFFFFF000000
000000FFFFFFFFFFFFFC000000
0000007FFFFFFFFFFFF0000000
0000000FFFFFFFFFFFC0000000
00000003FFFFFFFFFF00000000
000000007FFFFFFFF800000000
0000000007FFFFFF8000000000
00000000001FFFF00000000000
ENDCHAR
STARTCHAR 0036
ENCODING 54
SWIDTH 574 0
DWIDTH 139 0
BBX 105 168 19 -2
BITMAP
000000000000FFFF000000000000
00000000001FFFFFF80000000000
0000000000FFFFFFFF8000000000
0000000007FFFFFFFFF000000000
000000001FFFFFFFFFFC00000000
000000007FFFFFFFFFFF00000000
00000001FFFFFFFFFFFFC0000000
00000007FFFFFFFFFFFFF0000000
0000000FFFFFFFFFFFFFFC000000
0000003FFFFFFFFFFFFFFE000000
0000007FFFFFFFFFFFFFFF000000
000000FFFFFFFFFFFFFFFF800000
000001FFFFFFFFFFFFFFFFE00000
000003FFFFFFFFFFFFFFFFF00000
000007FFFFFFFFFFFFFFFFF80000
00000FFFFFFFFFFFFFFFFFF80000
00001FFFFFFFE001FFFFFFFC0000
00003FFFFFFC00001FFFFFFE0000
00007FFFFFF0000003FFFFFF0000
00007FFFFFC0000000FFFFFF0000
0000FFFFFF000000003FFFFF8000
0001FFFFFC000000000FFFFF8000
0001FFFFF80000000007FFFFC000
0003FFFFF00000000003FFFFC000
0003FFFFE00000000001FFFFC000
0007FFFFC00000000000FFFFE000
000FFFFF800000000000FFFFE000
000FFFFF0000000000007FFFE000
001FFFFE0000000000003FFFE000
001FFFFC0000000000003FFFF000
003FFFFC0000000000003FFFF000
003FFFF80000000000001FFFF000
003FFFF00000000000001FFFF000
007FFFF00000000000001FFFF000
007FFFE00000000000001FFFF000
00FFFFE00000000000001FFFF000
00FFFFC00000000000001FFFF000
00FFFFC00000000000000FFFE000
01FFFF8000000000000000000000
01FFFF8000000000000000000000
01FFFF8000000000000000000000
03FFFF0000000000000000000000
03FFFF0000000000000000000000
03FFFF0000000000000000000000
07FFFE0000000000000000000000
07FFFE0000000000000000000000
07FFFE0000000000000000000000
07FFFC0000000000000000000000
0FFFFC0000000000000000000000
0FFFFC0000000000000000000000
0FFFFC0000000000000000000000
0FFFF80000000000000000000000
1FFFF80000000000000000000000
1FFFF80000000000000000000000
1FFFF80000000000000000000000
1FFFF00000000000000000000000
1FFFF00000000000000000000000
3FFFF00000000000000000000000
3FFFF00000000000000000000000
3FFFF00000003FFF800000000000
3FFFF0000007FFFFFC0000000000
3FFFE000007FFFFFFF8000000000
3FFFE00003FFFFFFFFF000000000
7FFFE0000FFFFFFFFFFC00000000
7FFFE0003FFFFFFFFFFF00000000
7FFFE000FFFFFFFFFFFFC0000000
7FFFE001FFFFFFFFFFFFF0000000
7FFFE007FFFFFFFFFFFFF8000000
7FFFE00FFFFFFFFFFFFFFC000000
7FFFE01FFFFFFFFFFFFFFF000000
7FFFC07FFFFFFFFFFFFFFF800000
7FFFC0FFFFFFFFFFFFFFFFC00000
FFFFC1FFFFFFFFFFFFFFFFE00000
FFFFC3FFFFFFFFFFFFFFFFF00000
FFFFC7FFFFFFFFFFFFFFFFF80000
FFFFCFFFFFFE000FFFFFFFF80000
FFFFCFFFFFE00000FFFFFFFC0000
FFFFDFFFFF0000001FFFFFFE0000
FFFFFFFFF800000007FFFFFF0000
FFFFFFFFF000000001FFFFFF0000
FFFFFFFFC0000000007FFFFF8000
FFFFFFFF80000000003FFFFF8000
FFFFFFFE00000000001FFFFFC000
FFFFFFFC00000000000FFFFFE000
FFFFFFF8000000000007FFFFE000
FFFFFFF0000000000003FFFFF000
FFFFFFE0000000000001FFFFF000
FFFFFFE0000000000000FFFFF000
FFFFFFC0000000000000FFFFF800
FFFFFF800000000000007FFFF800
FFFFFF000000000000003FFFFC00
FFFFFF000000000000003FFFFC00
FFFFFE000000000000001FFFFC00
FFFFFE000000000000001FFFFE00
FFFFFC000000000000000FFFFE00
FFFFFC000000000000000FFFFE00
FFFFF8000000000000000FFFFE00
FFFFF80000000000000007FFFF00
FFFFF80000000000000007FFFF00
FFFFF80000000000000007FFFF00
FFFFF00000000000000003FFFF00
FFFFF00000000000000003FFFF00
FFFFF00000000000000003FFFF00
FFFFF00000000000000003FFFF80
FFFFE00000000000000003FFFF80
FFFFE00000000000000001FFFF80
FFFFE00000000000000001FFFF80
FFFFE00000000000000001FFFF80
7FFFE00000000000000001FFFF80
7FFFE00000000000000001FFFF80
7FFFE00000000000000001FFFF80
7FFFE00000000000000001FFFF80
7FFFE00000000000000001FFFF80
7FFFE00000000000000001FFFF80
7FFFE00000000000000001FFFF80
7FFFE00000000000000001FFFF80
3FFFE00000000000000001FFFF80
3FFFE00000000000000001FFFF80
3FFFE00000000000000001FFFF80
3FFFF00000000000000001FFFF80
3FFFF00000000000000003FFFF80
1FFFF00000000000000003FFFF00
1FFFF00000000000000003FFFF00
1FFFF00000000000000003FFFF00
1FFFF80000000000000003FFFF00
0FFFF80000000000000007FFFF00
0FFFF80000000000000007FFFF00
0FFFFC0000000000000007FFFE00
07FFFC000000000000000FFFFE00
07FFFC000000000000000FFFFE00
07FFFE000000000000000FFFFE00
03FFFE000000000000001FFFFC00
03FFFF000000000000001FFFFC00
03FFFF000000000000003FFFFC00
01FFFF800000000000003FFFFC00
01FFFFC00000000000007FFFF800
00FFFFC00000000000007FFFF800
00FFFFE0000000000000FFFFF000
007FFFF0000000000000FFFFF000
007FFFF8000000000001FFFFF000
003FFFF8000000000003FFFFE000
003FFFFC000000000007FFFFE000
001FFFFE00000000000FFFFFC000
001FFFFF00000000000FFFFF8000
000FFFFF80000000003FFFFF8000
0007FFFFE0000000007FFFFF0000
0007FFFFF000000000FFFFFF0000
0003FFFFF800000001FFFFFE0000
0001FFFFFE00000007FFFFFC0000
0001FFFFFF8000001FFFFFF80000
0000FFFFFFF00000FFFFFFF80000
00007FFFFFFF000FFFFFFFF00000
00003FFFFFFFFFFFFFFFFFE00000
00001FFFFFFFFFFFFFFFFFC00000
00000FFFFFFFFFFFFFFFFF800000
000007FFFFFFFFFFFFFFFF000000
000003FFFFFFFFFFFFFFFE000000
000001FFFFFFFFFFFFFFFC000000
000000FFFFFFFFFFFFFFF0000000
0000007FFFFFFFFFFFFFE0000000
0000001FFFFFFFFFFFFFC0000000
0000000FFFFFFFFFFFFF00000000
00000003FFFFFFFFFFFC00000000
00000000FFFFFFFFFFF000000000
000000003FFFFFFFFFC000000000
0000000007FFFFFFFE0000000000
00000000007FFFFFE00000000000
000000000003FFFC000000000000
ENDCHAR
STARTCHAR 0037
ENCODING 55
SWIDTH 574 0
DWIDTH 139 0
BBX 96 164 18 0
BITMAP
1FFFFFFFFFFFFFFFFFFFFFFF
1FFFFFFFFFFFFFFFFFFFFFFF
1FFFFFFFFFFFFFFFFFFFFFFF
1FFFFFFFFFFFFFFFFFFFFFFF
1FFFFFFFFFFFFFFFFFFFFFFF
3FFFFFFFFFFFFFFFFFFFFFFF
3FFFFFFFFFFFFFFFFFFFFFFF
3FFFFFFFFFFFFFFFFFFFFFFF
3FFFFFFFFFFFFFFFFFFFFFFF
3FFFFFFFFFFFFFFFFFFFFFFF
3FFFFFFFFFFFFFFFFFFFFFFF
3FFFFFFFFFFFFFFFFFFFFFFF
3FFFFFFFFFFFFFFFFFFFFFFF
3FFFFFFFFFFFFFFFFFFFFFFF
3FFFFFFFFFFFFFFFFFFFFFFF
3FFFFFFFFFFFFFFFFFFFFFFF
7FFF8000000000000000FFFF
7FFF8000000000000001FFFF
7FFF8000000000000001FFFF
7FFF8000000000000001FFFF
7FFF8000000000000001FFFE
7FFF0000000000000003FFFE
7FFF0000000000000003FFFE
7FFF0000000000000003FFFC
7FFF0000000000000007FFFC
7FFF0000000000000007FFFC
7FFF0000000000000007FFF8
FFFF000000000000000FFFF8
FFFF000000000000000FFFF8
FFFF000000000000000FFFF0
FFFE000000000000001FFFF0
FFFE000000000000001FFFF0
FFFE000000000000001FFFE0
FFFE000000000000003FFFE0
7FFC000000000000003FFFE0
0000000000000000003FFFE0
0000000000000000007FFFC0
0000000000000000007FFFC0
0000000000000000007FFFC0
000000000000000000FFFF80
000000000000000000FFFF80
000000000000000000FFFF80
000000000000000001FFFF00
000000000000000001FFFF00
000000000000000001FFFF00
000000000000000003FFFE00
000000000000000003FFFE00
000000000000000003FFFE00
000000000000000007FFFC00
000000000000000007FFFC00
000000000000000007FFFC00
00000000000000000FFFF800
00000000000000000FFFF800
00000000000000000FFFF800
00000000000000001FFFF800
00000000000000001FFFF000
00000000000000001FFFF000
00000000000000003FFFF000
00000000000000003FFFE000
00000000000000003FFFE000
00000000000000007FFFE000
00000000000000007FFFC000
00000000000000007FFFC000
00000000000000007FFFC000
0000000000000000FFFF8000
0000000000000000FFFF8000
0000000000000000FFFF8000
0000000000000001FFFF0000
0000000000000001FFFF0000
0000000000000001FFFF0000
0000000000000003FFFF0000
0000000000000003FFFE0000
0000000000000003FFFE0000
0000000000000007FFFE0000
0000000000000007FFFC0000
0000000000000007FFFC0000
000000000000000FFFFC0000
000000000000000FFFF80000
000000000000000FFFF80000
000000000000001FFFF80000
000000000000001FFFF00000
000000000000001FFFF00000
000000000000003FFFF00000
000000000000003FFFE00000
000000000000003FFFE00000
000000000000007FFFE00000
000000000000007FFFC00000
000000000000007FFFC00000
00000000000000FFFFC00000
00000000000000FFFFC00000
00000000000000FFFF800000
00000000000001FFFF800000
00000000000001FFFF800000
00000000000001FFFF000000
00000000000003FFFF000000
00000000000003FFFF000000
00000000000003FFFE000000
00000000000007FFFE000000
00000000000007FFFE000000
00000000000007FFFC000000
0000000000000FFFFC000000
0000000000000FFFFC000000
0000000000000FFFF8000000
0000000000001FFFF8000000
0000000000001FFFF8000000
0000000000001FFFF0000000
0000000000001FFFF0000000
0000000000003FFFF0000000
0000000000003FFFF0000000
0000000000003FFFE0000000
0000000000007FFFE0000000
0000000000007FFFE0000000
0000000000007FFFC0000000
000000000000FFFFC0000000
000000000000FFFFC0000000
000000000000FFFF80000000
000000000001FFFF80000000
000000000001FFFF80000000
000000000001FFFF00000000
000000000003FFFF00000000
000000000003FFFF00000000
000000000003FFFE00000000
000000000007FFFE00000000
000000000007FFFE00000000
000000000007FFFE00000000
00000000000FFFFC00000000
00000000000FFFFC00000000
00000000000FFFFC00000000
00000000001FFFF800000000
00000000001FFFF800000000
00000000001FFFF800000000
00000000003FFFF000000000
00000000003FFFF000000000
00000000003FFFF000000000
00000000007FFFE000000000
00000000007FFFE000000000
00000000007FFFE000000000
0000000000FFFFC000000000
0000000000FFFFC000000000
0000000000FFFFC000000000
0000000001FFFF8000000000
0000000001FFFF8000000000
0000000001FFFF8000000000
0000000003FFFF8000000000
0000000003FFFF0000000000
0000000003FFFF0000000000
0000000007FFFF0000000000
0000000007FFFE0000000000
0000000007FFFE0000000000
0000000007FFFE0000000000
000000000FFFFC0000000000
000000000FFFFC0000000000
000000000FFFFC0000000000
000000001FFFF80000000000
000000001FFFF80000000000
000000001FFFF80000000000
000000003FFFF00000000000
000000003FFFF00000000000
000000003FFFF00000000000
000000007FFFF00000000000
000000007FFFE00000000000
000000007FFFE00000000000
000000007FFFC00000000000
000000003FFF800000000000
ENDCHAR
STARTCHAR 0038
ENCODING 56
SWIDTH 574 0
DWIDTH 139 0
BBX 109 168 15 -2
BITMAP
000000000000FFFF000000000000
00000000003FFFFFF80000000000
0000000003FFFFFFFF8000000000
000000001FFFFFFFFFF000000000
00000000FFFFFFFFFFFC00000000
00000003FFFFFFFFFFFF00000000
0000000FFFFFFFFFFFFFC0000000
0000001FFFFFFFFFFFFFF0000000
0000007FFFFFFFFFFFFFF8000000
000000FFFFFFFFFFFFFFFE000000
000003FFFFFFFFFFFFFFFF000000
000007FFFFFFFFFFFFFFFF800000
00000FFFFFFFFFFFFFFFFFC00000
00001FFFFFFFFFFFFFFFFFE00000
00003FFFFFFFFFFFFFFFFFF00000
00007FFFFFFF8007FFFFFFF80000
0000FFFFFFF000003FFFFFFC0000
0001FFFFFF8000000FFFFFFE0000
0003FFFFFE00000003FFFFFF0000
0007FFFFF800000000FFFFFF0000
0007FFFFF0000000003FFFFF8000
000FFFFFE0000000001FFFFFC000
000FFFFF80000000000FFFFFC000
001FFFFF000000000003FFFFE000
001FFFFE000000000001FFFFE000
003FFFFC000000000001FFFFF000
003FFFFC000000000000FFFFF000
007FFFF80000000000007FFFF800
007FFFF00000000000003FFFF800
007FFFF00000000000003FFFF800
00FFFFE00000000000001FFFF800
00FFFFE00000000000001FFFFC00
00FFFFC00000000000000FFFFC00
00FFFFC00000000000000FFFFC00
00FFFF8000000000000007FFFC00
01FFFF8000000000000007FFFE00
01FFFF8000000000000007FFFE00
01FFFF8000000000000007FFFE00
01FFFF0000000000000003FFFE00
01FFFF0000000000000003FFFE00
01FFFF0000000000000003FFFE00
01FFFF0000000000000003FFFE00
01FFFF0000000000000003FFFE00
01FFFF0000000000000003FFFE00
01FFFF0000000000000003FFFE00
01FFFF0000000000000003FFFE00
01FFFF0000000000000003FFFE00
01FFFF0000000000000003FFFE00
01FFFF0000000000000003FFFE00
00FFFF0000000000000007FFFC00
00FFFF8000000000000007FFFC00
00FFFF8000000000000007FFFC00
00FFFF8000000000000007FFFC00
007FFF800000000000000FFFFC00
007FFFC00000000000000FFFF800
007FFFC00000000000000FFFF800
007FFFC00000000000001FFFF800
003FFFE00000000000001FFFF000
003FFFF00000000000003FFFF000
001FFFF00000000000007FFFE000
001FFFF80000000000007FFFE000
000FFFFC000000000000FFFFC000
000FFFFE000000000001FFFFC000
0007FFFF000000000003FFFF8000
0007FFFF800000000007FFFF0000
0003FFFFC0000000000FFFFF0000
0001FFFFE0000000003FFFFE0000
0000FFFFF8000000007FFFFC0000
0000FFFFFE00000001FFFFF80000
00007FFFFF80000007FFFFF00000
00003FFFFFF000003FFFFFE00000
00001FFFFFFF0003FFFFFFC00000
00000FFFFFFFFFFFFFFFFF800000
000003FFFFFFFFFFFFFFFF000000
000001FFFFFFFFFFFFFFFC000000
000000FFFFFFFFFFFFFFF8000000
0000003FFFFFFFFFFFFFE0000000
0000000FFFFFFFFFFFFFC0000000
00000003FFFFFFFFFFFF00000000
00000001FFFFFFFFFFFE00000000
0000000FFFFFFFFFFFFF80000000
0000003FFFFFFFFFFFFFF0000000
000000FFFFFFFFFFFFFFFC000000
000003FFFFFFFFFFFFFFFE000000
00000FFFFFFFFFFFFFFFFF800000
00001FFFFFFFFFFFFFFFFFE00000
00007FFFFFFFFFFFFFFFFFF00000
0000FFFFFFFFFFFFFFFFFFF80000
0001FFFFFFFF0003FFFFFFFE0000
0003FFFFFFE000001FFFFFFF0000
0007FFFFFF00000003FFFFFF8000
000FFFFFF800000000FFFFFFC000
001FFFFFE0000000003FFFFFE000
003FFFFF80000000000FFFFFF000
007FFFFF000000000003FFFFF800
00FFFFFC000000000001FFFFF800
00FFFFF8000000000000FFFFFC00
01FFFFF00000000000007FFFFE00
03FFFFE00000000000003FFFFE00
03FFFFC00000000000001FFFFF00
07FFFF800000000000000FFFFF00
0FFFFF0000000000000007FFFF80
0FFFFE0000000000000003FFFF80
1FFFFE0000000000000003FFFFC0
1FFFFC0000000000000001FFFFC0
1FFFF80000000000000000FFFFC0
3FFFF80000000000000000FFFFE0
3FFFF000000000000000007FFFE0
3FFFF000000000000000007FFFE0
7FFFF000000000000000007FFFF0
7FFFE000000000000000003FFFF0
7FFFE000000000000000003FFFF0
7FFFE000000000000000003FFFF0
FFFFE000000000000000003FFFF0
FFFFC000000000000000001FFFF8
FFFFC000000000000000001FFFF8
FFFFC000000000000000001FFFF8
FFFFC000000000000000001FFFF8
FFFFC000000000000000001FFFF8
FFFFC000000000000000001FFFF8
FFFFC000000000000000001FFFF8
FFFFC000000000000000001FFFF8
FFFFC000000000000000001FFFF8
FFFFC000000000000000001FFFF8
FFFFC000000000000000001FFFF8
FFFFC000000000000000001FFFF8
FFFFC000000000000000003FFFF8
7FFFE000000000000000003FFFF8
7FFFE000000000000000003FFFF8
7FFFE000000000000000003FFFF0
7FFFE000000000000000007FFFF0
7FFFF000000000000000007FFFF0
7FFFF000000000000000007FFFF0
3FFFF80000000000000000FFFFF0
3FFFF80000000000000000FFFFE0
3FFFFC0000000000000001FFFFE0
1FFFFC0000000000000003FFFFE0
1FFFFE0000000000000003FFFFC0
1FFFFF0000000000000007FFFFC0
0FFFFF000000000000000FFFFFC0
0FFFFF800000000000001FFFFF80
07FFFFC00000000000001FFFFF80
07FFFFE00000000000007FFFFF00
03FFFFF0000000000000FFFFFF00
03FFFFFC000000000001FFFFFE00
01FFFFFE000000000003FFFFFE00
00FFFFFF00000000000FFFFFFC00
00FFFFFFC0000000003FFFFFF800
007FFFFFF000000000FFFFFFF000
003FFFFFFE00000003FFFFFFF000
001FFFFFFFC000001FFFFFFFE000
000FFFFFFFFE0003FFFFFFFFC000
0007FFFFFFFFFFFFFFFFFFFF8000
0003FFFFFFFFFFFFFFFFFFFF0000
0001FFFFFFFFFFFFFFFFFFFE0000
0000FFFFFFFFFFFFFFFFFFFC0000
00007FFFFFFFFFFFFFFFFFF00000
00003FFFFFFFFFFFFFFFFFE00000
00000FFFFFFFFFFFFFFFFFC00000
000007FFFFFFFFFFFFFFFF000000
000001FFFFFFFFFFFFFFFC000000
0000007FFFFFFFFFFFFFF0000000
0000001FFFFFFFFFFFFFC0000000
00000007FFFFFFFFFFFF00000000
00000000FFFFFFFFFFF800000000
000000001FFFFFFFFFC000000000
0000000001FFFFFFFC0000000000
000000000007FFFE000000000000
ENDCHAR
STARTCHAR 0039
ENCODING 57
SWIDTH 574 0
DWIDTH 139 0
BBX 105 168 17 -2
BITMAP
00000000001FFFC0000000000000
0000000007FFFFFF000000000000
000000003FFFFFFFF00000000000
00000001FFFFFFFFFC0000000000
00000007FFFFFFFFFF8000000000
0000001FFFFFFFFFFFE000000000
0000007FFFFFFFFFFFF800000000
000001FFFFFFFFFFFFFC00000000
000003FFFFFFFFFFFFFF00000000
00000FFFFFFFFFFFFFFF80000000
00001FFFFFFFFFFFFFFFC0000000
00003FFFFFFFFFFFFFFFE0000000
00007FFFFFFFFFFFFFFFF8000000
0000FFFFFFFFFFFFFFFFFC000000
0001FFFFFFFFFFFFFFFFFE000000
0003FFFFFFFFFFFFFFFFFE000000
0007FFFFFFF8007FFFFFFF000000
000FFFFFFF800007FFFFFF800000
001FFFFFFE000000FFFFFFC00000
001FFFFFF80000003FFFFFE00000
003FFFFFE00000000FFFFFE00000
007FFFFF8000000007FFFFF00000
007FFFFF0000000003FFFFF80000
00FFFFFE0000000000FFFFF80000
01FFFFFC00000000007FFFFC0000
01FFFFF800000000003FFFFC0000
03FFFFF000000000001FFFFE0000
03FFFFE000000000000FFFFE0000
07FFFFC000000000000FFFFF0000
07FFFFC0000000000007FFFF0000
0FFFFF80000000000003FFFF8000
0FFFFF00000000000001FFFF8000
0FFFFF00000000000001FFFFC000
1FFFFE00000000000000FFFFC000
1FFFFE00000000000000FFFFC000
1FFFFC000000000000007FFFE000
3FFFFC000000000000007FFFE000
3FFFF8000000000000003FFFE000
3FFFF8000000000000003FFFF000
3FFFF0000000000000001FFFF000
7FFFF0000000000000001FFFF000
7FFFF0000000000000000FFFF800
7FFFE0000000000000000FFFF800
7FFFE0000000000000000FFFF800
7FFFE0000000000000000FFFF800
7FFFE00000000000000007FFFC00
FFFFE00000000000000007FFFC00
FFFFC00000000000000007FFFC00
FFFFC00000000000000007FFFC00
FFFFC00000000000000007FFFE00
FFFFC00000000000000003FFFE00
FFFFC00000000000000003FFFE00
FFFFC00000000000000003FFFE00
FFFFC00000000000000003FFFE00
FFFFC00000000000000003FFFE00
FFFFC00000000000000003FFFF00
FFFFC00000000000000003FFFF00
FFFFC00000000000000003FFFF00
FFFFC00000000000000003FFFF00
FFFFC00000000000000003FFFF00
FFFFC00000000000000003FFFF00
FFFFC00000000000000003FFFF00
FFFFE00000000000000003FFFF00
FFFFE00000000000000007FFFF00
7FFFE00000000000000007FFFF80
7FFFE00000000000000007FFFF80
7FFFE00000000000000007FFFF80
7FFFE00000000000000007FFFF80
7FFFF0000000000000000FFFFF80
7FFFF0000000000000000FFFFF80
7FFFF0000000000000000FFFFF80
3FFFF8000000000000001FFFFF80
3FFFF8000000000000001FFFFF80
3FFFFC000000000000003FFFFF80
3FFFFC000000000000003FFFFF80
1FFFFE000000000000007FFFFF80
1FFFFE000000000000007FFFFF80
1FFFFF00000000000000FFFFFF80
0FFFFF00000000000001FFFFFF80
0FFFFF80000000000003FFFFFF80
07FFFFC0000000000003FFFFFF80
07FFFFE0000000000007FFFFFF80
07FFFFE000000000000FFFFFFF80
03FFFFF000000000001FFFFFFF80
03FFFFFC00000000007FFFFFFF80
01FFFFFE0000000000FFFFFFFF80
01FFFFFF0000000001FFFFFFFF80
00FFFFFFC000000007FFFFFFFF80
007FFFFFE00000001FFFFFFFFF80
007FFFFFFC0000007FFFFFFFFF80
003FFFFFFF000003FFFFFFFFFF80
001FFFFFFFF8003FFFFFFDFFFF80
000FFFFFFFFFFFFFFFFFF9FFFF00
000FFFFFFFFFFFFFFFFFF1FFFF00
0007FFFFFFFFFFFFFFFFE1FFFF00
0003FFFFFFFFFFFFFFFFC1FFFF00
0001FFFFFFFFFFFFFFFF81FFFF00
0000FFFFFFFFFFFFFFFF03FFFF00
00007FFFFFFFFFFFFFFE03FFFF00
00003FFFFFFFFFFFFFFC03FFFF00
00000FFFFFFFFFFFFFF003FFFF00
000007FFFFFFFFFFFFE003FFFF00
000001FFFFFFFFFFFF8003FFFE00
000000FFFFFFFFFFFE0003FFFE00
0000003FFFFFFFFFF80003FFFE00
00000007FFFFFFFFE00003FFFE00
00000001FFFFFFFF000007FFFE00
000000001FFFFFF8000007FFFE00
0000000000FFFF00000007FFFE00
0000000000000000000007FFFC00
0000000000000000000007FFFC00
0000000000000000000007FFFC00
000000000000000000000FFFFC00
000000000000000000000FFFFC00
000000000000000000000FFFF800
000000000000000000000FFFF800
000000000000000000000FFFF800
000000000000000000001FFFF800
000000000000000000001FFFF800
000000000000000000001FFFF000
000000000000000000001FFFF000
000000000000000000003FFFF000
000000000000000000003FFFE000
000000000000000000003FFFE000
000000000000000000007FFFE000
000000000000000000007FFFE000
000000000000000000007FFFC000
00000000000000000000FFFFC000
00000000000000000000FFFFC000
007FE000000000000001FFFF8000
03FFF800000000000001FFFF8000
07FFF800000000000001FFFF0000
07FFFC00000000000003FFFF0000
07FFFC00000000000003FFFF0000
07FFFC00000000000007FFFE0000
07FFFC0000000000000FFFFE0000
07FFFC0000000000000FFFFC0000
07FFFE0000000000001FFFFC0000
07FFFE0000000000001FFFF80000
03FFFE0000000000003FFFF80000
03FFFF0000000000007FFFF00000
03FFFF800000000000FFFFF00000
03FFFF800000000001FFFFE00000
01FFFFC00000000003FFFFE00000
01FFFFE00000000007FFFFC00000
01FFFFF0000000000FFFFF800000
00FFFFFC000000001FFFFF800000
00FFFFFE000000007FFFFF000000
007FFFFF80000001FFFFFE000000
007FFFFFE0000007FFFFFE000000
003FFFFFFC00001FFFFFFC000000
001FFFFFFFC003FFFFFFF8000000
001FFFFFFFFFFFFFFFFFF0000000
000FFFFFFFFFFFFFFFFFE0000000
0007FFFFFFFFFFFFFFFFC0000000
0003FFFFFFFFFFFFFFFF80000000
0001FFFFFFFFFFFFFFFF00000000
0000FFFFFFFFFFFFFFFE00000000
00003FFFFFFFFFFFFFFC00000000
00001FFFFFFFFFFFFFF800000000
000007FFFFFFFFFFFFE000000000
000003FFFFFFFFFFFFC000000000
000000FFFFFFFFFFFF0000000000
0000003FFFFFFFFFFC0000000000
00000007FFFFFFFFF00000000000
00000000FFFFFFFF800000000000
000000001FFFFFFC000000000000
00000000007FFF00000000000000
ENDCHAR
STARTCHAR 003A
ENCODING 58
SWIDTH 227 0
DWIDTH 55 0
BBX 20 133 17 0
BITMAP
01F800
07FC00
0FFE00
1FFF00
3FFF80
3FFF80
7FFFC0
7FFFC0
7FFFC0
7FFFE0
FFFFE0
FFFFE0
FFFFE0
FFFFF0
FFFFF0
FFFFF0
FFFFF0
FFFFF0
FFFFF0
FFFFF0
FFFFF0
FFFFF0
FFFFF0
FFFFF0
7FFFF0
7FFFE0
7FFFE0
7FFFE0
3FFFE0
3FFFC0
3FFFC0
1FFF80
0FFF00
07FE00
01F800
000000
000000
000000
000000
000000
000000
000000
000000
000000
000000
000000
000000
000000
000000
000000
000000
000000
000000
000000
000000
000000
000000
000000
000000
000000
000000
000000
000000
000000
000000
000000
000000
000000
000000
000000
000000
000000
000000
000000
000000
000000
000000
000000
000000
000000
000000
000000
000000
000000
000000
000000
000000
000000
000000
000000
000000
000000
000000
000000
000000
000000
000000
000000
01F800
07FC00
0FFE00
1FFF00
3FFF80
3FFF80
7FFFC0
7FFFC0
7FFFE0
7FFFE0
FFFFE0
FFFFE0
FFFFF0
FFFFF0
FFFFF0
FFFFF0
FFFFF0
FFFFF0
FFFFF0
FFFFF0
FFFFF0
FFFFF0
FFFFF0
FFFFF0
7FFFF0
7FFFE0
7FFFE0
7FFFE0
3FFFE0
3FFFC0
1FFFC0
1FFF80
0FFF00
07FE00
01F800
ENDCHAR
STARTCHAR 003B
ENCODING 59
SWIDTH 227 0
DWIDTH 55 0
BBX 31 174 8 -41
BITMAP
00003F00
0000FFC0
0001FFE0
0003FFF0
0007FFF8
0007FFF8
000FFFF8
000FFFFC
000FFFFC
000FFFFC
001FFFFC
001FFFFE
001FFFFE
001FFFFE
001FFFFE
001FFFFE
001FFFFE
001FFFFE
001FFFFE
001FFFFE
001FFFFE
001FFFFE
001FFFFE
001FFFFE
000FFFFE
000FFFFC
000FFFFC
000FFFFC
0007FFFC
0007FFF8
0003FFF8
0003FFF0
0001FFE0
0000FFC0
00003F00
00000000
00000000
00000000
00000000
00000000
00000000
00000000
00000000
00000000
00000000
00000000
00000000
00000000
00000000
00000000
00000000
00000000
00000000
00000000
00000000
00000000
00000000
00000000
00000000
00000000
00000000
00000000
00000000
00000000
00000000
00000000
00000000
00000000
00000000
00000000
00000000
00000000
00000000
00000000
00000000
00000000
00000000
00000000
00000000
00000000
00000000
00000000
00000000
00000000
00000000
00000000
00000000
00000000
00000000
00000000
00000000
00000000
00000000
00000000
00000000
00000000
00000000
00000000
00003F00
0000FFC0
0001FFE0
0003FFF0
0007FFF0
0007FFF8
0007FFF8
000FFFFC
000FFFFC
000FFFFC
000FFFFC
001FFFFC
001FFFFE
001FFFFE
001FFFFE
001FFFFE
001FFFFE
001FFFFE
001FFFFE
001FFFFE
001FFFFE
001FFFFE
001FFFFE
001FFFFE
000FFFFE
000FFFFE
000FFFFE
000FFFFC
0007FFFC
0007FFFC
0003FFFC
0003FFFC
0003FFFC
0003FFFC
0001FFF8
0001FFF8
0001FFF8
0001FFF8
0001FFF8
0001FFF0
0001FFF0
0001FFF0
0001FFF0
0003FFE0
0003FFE0
0003FFE0
0003FFE0
0007FFC0
0007FFC0
0007FFC0
000FFF80
000FFF80
001FFF80
001FFF00
003FFF00
003FFF00
007FFE00
00FFFE00
00FFFE00
01FFFC00
03FFFC00
07FFF800
0FFFF800
1FFFF000
3FFFF000
7FFFE000
FFFFE000
FFFFC000
FFFF8000
7FFF8000
7FFF0000
3FFE0000
1FFC0000
1FF80000
0FE00000
07800000
ENDCHAR
STARTCHAR 003C
ENCODING 60
SWIDTH 574 0
DWIDTH 139 0
BBX 128 122 5 18
BITMAP
00000000000000000000000000000003
0000000000000000000000000000000F
0000000000000000000000000000007F
000000000000000000000000000001FF
000000000000000000000000000007FF
00000000000000000000000000003FFF
0000000000000000000000000000FFFF
0000000000000000000000000007FFFF
000000000000000000000000001FFFFF
000000000000000000000000007FFFFF
00000000000000000000000003FFFFFF
0000000000000000000000000FFFFFFF
0000000000000000000000003FFFFFFF
000000000000000000000001FFFFFFFF
000000000000000000000007FFFFFFFF
00000000000000000000003FFFFFFFFF
0000000000000000000000FFFFFFFFFF
0000000000000000000003FFFFFFFFFC
000000000000000000001FFFFFFFFFE0
000000000000000000007FFFFFFFFF80
00000000000000000001FFFFFFFFFC00
0000000000000000000FFFFFFFFFF000
0000000000000000003FFFFFFFFF8000
000000000000000000FFFFFFFFFE0000
000000000000000007FFFFFFFFF00000
00000000000000001FFFFFFFFFC00000
0000000000000000FFFFFFFFFF000000
0000000000000003FFFFFFFFF8000000
000000000000000FFFFFFFFFE0000000
000000000000007FFFFFFFFF00000000
00000000000001FFFFFFFFFC00000000
00000000000007FFFFFFFFE000000000
0000000000003FFFFFFFFF8000000000
000000000000FFFFFFFFFE0000000000
000000000007FFFFFFFFF00000000000
00000000001FFFFFFFFFC00000000000
00000000007FFFFFFFFE000000000000
0000000003FFFFFFFFF8000000000000
000000000FFFFFFFFFC0000000000000
000000003FFFFFFFFF00000000000000
00000001FFFFFFFFFC00000000000000
00000007FFFFFFFFE000000000000000
0000003FFFFFFFFF8000000000000000
000000FFFFFFFFFC0000000000000000
000003FFFFFFFFF00000000000000000
00001FFFFFFFFF800000000000000000
00007FFFFFFFFE000000000000000000
0001FFFFFFFFF8000000000000000000
000FFFFFFFFFC0000000000000000000
003FFFFFFFFF00000000000000000000
00FFFFFFFFF800000000000000000000
07FFFFFFFFE000000000000000000000
1FFFFFFFFF0000000000000000000000
FFFFFFFFFC0000000000000000000000
FFFFFFFFE00000000000000000000000
FFFFFFFF800000000000000000000000
FFFFFFFE000000000000000000000000
FFFFFFF0000000000000000000000000
FFFFFFC0000000000000000000000000
FFFFFE00000000000000000000000000
FFFFF800000000000000000000000000
FFFFFE00000000000000000000000000
FFFFFFC0000000000000000000000000
FFFFFFF0000000000000000000000000
FFFFFFFC000000000000000000000000
FFFFFFFF800000000000000000000000
FFFFFFFFE00000000000000000000000
FFFFFFFFFC0000000000000000000000
3FFFFFFFFF0000000000000000000000
0FFFFFFFFFC000000000000000000000
01FFFFFFFFF800000000000000000000
007FFFFFFFFE00000000000000000000
000FFFFFFFFFC0000000000000000000
0003FFFFFFFFF0000000000000000000
0000FFFFFFFFFE000000000000000000
00001FFFFFFFFF800000000000000000
000007FFFFFFFFE00000000000000000
000001FFFFFFFFFC0000000000000000
0000003FFFFFFFFF0000000000000000
0000000FFFFFFFFFE000000000000000
00000003FFFFFFFFF800000000000000
000000007FFFFFFFFF00000000000000
000000001FFFFFFFFFC0000000000000
0000000003FFFFFFFFF0000000000000
0000000000FFFFFFFFFE000000000000
00000000003FFFFFFFFF800000000000
000000000007FFFFFFFFF00000000000
000000000001FFFFFFFFFC0000000000
0000000000007FFFFFFFFF0000000000
0000000000000FFFFFFFFFE000000000
00000000000003FFFFFFFFF800000000
00000000000000FFFFFFFFFF00000000
000000000000001FFFFFFFFFC0000000
0000000000000007FFFFFFFFF8000000
0000000000000000FFFFFFFFFE000000
00000000000000003FFFFFFFFF800000
00000000000000000FFFFFFFFFF00000
000000000000000001FFFFFFFFFC0000
0000000000000000007FFFFFFFFF8000
0000000000000000001FFFFFFFFFE000
00000000000000000003FFFFFFFFF800
00000000000000000000FFFFFFFFFF00
000000000000000000003FFFFFFFFFC0
0000000000000000000007FFFFFFFFF8
0000000000000000000001FFFFFFFFFE
00000000000000000000003FFFFFFFFF
00000000000000000000000FFFFFFFFF
000000000000000000000003FFFFFFFF
0000000000000000000000007FFFFFFF
0000000000000000000000001FFFFFFF
00000000000000000000000007FFFFFF
00000000000000000000000000FFFFFF
000000000000000000000000003FFFFF
000000000000000000000000000FFFFF
0000000000000000000000000001FFFF
00000000000000000000000000007FFF
00000000000000000000000000000FFF
000000000000000000000000000003FF
000000000000000000000000000000FF
0000000000000000000000000000001F
00000000000000000000000000000007
00000000000000000000000000000001
ENDCHAR
STARTCHAR 003D
ENCODING 61
SWIDTH 574 0
DWIDTH 139 0
BBX 128 71 5 43
BITMAP
FFFFFFFFFFFFFFFFFFFFFFFFFFFFFFFF
FFFFFFFFFFFFFFFFFFFFFFFFFFFFFFFF
FFFFFFFFFFFFFFFFFFFFFFFFFFFFFFFF
FFFFFFFFFFFFFFFFFFFFFFFFFFFFFFFF
FFFFFFFFFFFFFFFFFFFFFFFFFFFFFFFF
FFFFFFFFFFFFFFFFFFFFFFFFFFFFFFFF
FFFFFFFFFFFFFFFFFFFFFFFFFFFFFFFF
FFFFFFFFFFFFFFFFFFFFFFFFFFFFFFFF
FFFFFFFFFFFFFFFFFFFFFFFFFFFFFFFF
FFFFFFFFFFFFFFFFFFFFFFFFFFFFFFFF
FFFFFFFFFFFFFFFFFFFFFFFFFFFFFFFF
FFFFFFFFFFFFFFFFFFFFFFFFFFFFFFFF
FFFFFFFFFFFFFFFFFFFFFFFFFFFFFFFF
FFFFFFFFFFFFFFFFFFFFFFFFFFFFFFFF
FFFFFFFFFFFFFFFFFFFFFFFFFFFFFFFF
FFFFFFFFFFFFFFFFFFFFFFFFFFFFFFFF
00000000000000000000000000000000
00000000000000000000000000000000
00000000000000000000000000000000
00000000000000000000000000000000
00000000000000000000000000000000
00000000000000000000000000000000
00000000000000000000000000000000
00000000000000000000000000000000
00000000000000000000000000000000
00000000000000000000000000000000
00000000000000000000000000000000
00000000000000000000000000000000
00000000000000000000000000000000
00000000000000000000000000000000
00000000000000000000000000000000
00000000000000000000000000000000
00000000000000000000000000000000
00000000000000000000000000000000
00000000000000000000000000000000
00000000000000000000000000000000
00000000000000000000000000000000
00000000000000000000000000000000
00000000000000000000000000000000
00000000000000000000000000000000
00000000000000000000000000000000
00000000000000000000000000000000
00000000000000000000000000000000
00000000000000000000000000000000
00000000000000000000000000000000
00000000000000000000000000000000
00000000000000000000000000000000
00000000000000000000000000000000
00000000000000000000000000000000
00000000000000000000000000000000
00000000000000000000000000000000
00000000000000000000000000000000
00000000000000000000000000000000
00000000000000000000000000000000
00000000000000000000000000000000
FFFFFFFFFFFFFFFFFFFFFFFFFFFFFFFF
FFFFFFFFFFFFFFFFFFFFFFFFFFFFFFFF
FFFFFFFFFFFFFFFFFFFFFFFFFFFFFFFF
FFFFFFFFFFFFFFFFFFFFFFFFFFFFFFFF
FFFFFFFFFFFFFFFFFFFFFFFFFFFFFFFF
FFFFFFFFFFFFFFFFFFFFFFFFFFFFFFFF
FFFFFFFFFFFFFFFFFFFFFFFFFFFFFFFF
FFFFFFFFFFFFFFFFFFFFFFFFFFFFFFFF
FFFFFFFFFFFFFFFFFFFFFFFFFFFFFFFF
FFFFFFFFFFFFFFFFFFFFFFFFFFFFFFFF
FFFFFFFFFFFFFFFFFFFFFFFFFFFFFFFF
FFFFFFFFFFFFFFFFFFFFFFFFFFFFFFFF
FFFFFFFFFFFFFFFFFFFFFFFFFFFFFFFF
FFFFFFFFFFFFFFFFFFFFFFFFFFFFFFFF
FFFFFFFFFFFFFFFFFFFFFFFFFFFFFFFF
FFFFFFFFFFFFFFFFFFFFFFFFFFFFFFFF
ENDCHAR
STARTCHAR 003E
ENCODING 62
SWIDTH 574 0
DWIDTH 139 0
BBX 128 122 5 18
BITMAP
C0000000000000000000000000000000
F0000000000000000000000000000000
FE000000000000000000000000000000
FF800000000000000000000000000000
FFE00000000000000000000000000000
FFFC0000000000000000000000000000
FFFF0000000000000000000000000000
FFFFC000000000000000000000000000
FFFFF800000000000000000000000000
FFFFFE00000000000000000000000000
FFFFFFC0000000000000000000000000
FFFFFFF0000000000000000000000000
FFFFFFFC000000000000000000000000
FFFFFFFF800000000000000000000000
FFFFFFFFE00000000000000000000000
FFFFFFFFF80000000000000000000000
FFFFFFFFFF0000000000000000000000
3FFFFFFFFFC000000000000000000000
07FFFFFFFFF800000000000000000000
01FFFFFFFFFE00000000000000000000
003FFFFFFFFF80000000000000000000
000FFFFFFFFFF0000000000000000000
0003FFFFFFFFFC000000000000000000
00007FFFFFFFFF000000000000000000
00001FFFFFFFFFE00000000000000000
000003FFFFFFFFF80000000000000000
000000FFFFFFFFFE0000000000000000
0000001FFFFFFFFFC000000000000000
00000007FFFFFFFFF000000000000000
00000001FFFFFFFFFE00000000000000
000000003FFFFFFFFF80000000000000
000000000FFFFFFFFFE0000000000000
0000000001FFFFFFFFFC000000000000
00000000007FFFFFFFFF000000000000
00000000001FFFFFFFFFC00000000000
000000000003FFFFFFFFF80000000000
000000000000FFFFFFFFFE0000000000
0000000000001FFFFFFFFF8000000000
00000000000007FFFFFFFFF000000000
00000000000000FFFFFFFFFC00000000
000000000000003FFFFFFFFF80000000
000000000000000FFFFFFFFFE0000000
0000000000000001FFFFFFFFF8000000
00000000000000007FFFFFFFFF000000
00000000000000000FFFFFFFFFC00000
000000000000000003FFFFFFFFF00000
0000000000000000007FFFFFFFFE0000
0000000000000000001FFFFFFFFF8000
00000000000000000007FFFFFFFFE000
00000000000000000000FFFFFFFFFC00
000000000000000000003FFFFFFFFF00
0000000000000000000007FFFFFFFFE0
0000000000000000000001FFFFFFFFF8
00000000000000000000003FFFFFFFFE
00000000000000000000000FFFFFFFFF
000000000000000000000003FFFFFFFF
0000000000000000000000007FFFFFFF
0000000000000000000000001FFFFFFF
00000000000000000000000003FFFFFF
00000000000000000000000000FFFFFF
000000000000000000000000001FFFFF
000000000000000000000000007FFFFF
00000000000000000000000001FFFFFF
00000000000000000000000007FFFFFF
0000000000000000000000003FFFFFFF
000000000000000000000000FFFFFFFF
000000000000000000000007FFFFFFFF
00000000000000000000001FFFFFFFFF
0000000000000000000000FFFFFFFFFC
0000000000000000000003FFFFFFFFF0
000000000000000000000FFFFFFFFFC0
000000000000000000007FFFFFFFFE00
00000000000000000001FFFFFFFFF800
0000000000000000000FFFFFFFFFC000
0000000000000000003FFFFFFFFF0000
000000000000000001FFFFFFFFFC0000
000000000000000007FFFFFFFFE00000
00000000000000001FFFFFFFFF800000
0000000000000000FFFFFFFFFE000000
0000000000000003FFFFFFFFF0000000
000000000000001FFFFFFFFFC0000000
000000000000007FFFFFFFFE00000000
00000000000003FFFFFFFFF800000000
0000000000000FFFFFFFFFE000000000
0000000000007FFFFFFFFF0000000000
000000000001FFFFFFFFFC0000000000
000000000007FFFFFFFFF00000000000
00000000003FFFFFFFFF800000000000
0000000000FFFFFFFFFE000000000000
0000000007FFFFFFFFF0000000000000
000000001FFFFFFFFFC0000000000000
00000000FFFFFFFFFF00000000000000
00000003FFFFFFFFF800000000000000
0000000FFFFFFFFFE000000000000000
0000007FFFFFFFFF8000000000000000
000001FFFFFFFFFC0000000000000000
00000FFFFFFFFFF00000000000000000
00003FFFFFFFFFC00000000000000000
0001FFFFFFFFFE000000000000000000
0007FFFFFFFFF8000000000000000000
001FFFFFFFFFC0000000000000000000
00FFFFFFFFFF00000000000000000000
03FFFFFFFFFC00000000000000000000
1FFFFFFFFFE000000000000000000000
7FFFFFFFFF8000000000000000000000
FFFFFFFFFE0000000000000000000000
FFFFFFFFF00000000000000000000000
FFFFFFFFC00000000000000000000000
FFFFFFFE000000000000000000000000
FFFFFFF8000000000000000000000000
FFFFFFE0000000000000000000000000
FFFFFF00000000000000000000000000
FFFFFC00000000000000000000000000
FFFFF000000000000000000000000000
FFFF8000000000000000000000000000
FFFE0000000000000000000000000000
FFF00000000000000000000000000000
FFC00000000000000000000000000000
FF000000000000000000000000000000
F8000000000000000000000000000000
E0000000000000000000000000000000
80000000000000000000000000000000
ENDCHAR
STARTCHAR 003F
ENCODING 63
SWIDTH 363 0
DWIDTH 88 0
BBX 69 163 10 0
BITMAP
00000007FFC0000000
000000FFFFFE000000
000007FFFFFFC00000
00001FFFFFFFF00000
00007FFFFFFFFC0000
0001FFFFFFFFFE0000
0003FFFFFFFFFF8000
0007FFFFFFFFFFC000
000FFFFFFFFFFFE000
001FFFFFFFFFFFF000
003FFFFFFFFFFFF800
007FFFFFFFFFFFFC00
00FFFFFFFFFFFFFC00
01FFFFFFFFFFFFFE00
03FFFFFC01FFFFFF00
03FFFFE0003FFFFF00
07FFFF80001FFFFF80
07FFFF000007FFFF80
0FFFFE000003FFFFC0
0FFFFC000001FFFFC0
1FFFF8000000FFFFE0
1FFFF0000000FFFFE0
3FFFF00000007FFFE0
3FFFE00000007FFFE0
3FFFE00000003FFFF0
7FFFC00000003FFFF0
7FFFC00000003FFFF0
7FFFC00000001FFFF0
7FFF800000001FFFF0
7FFF800000001FFFF8
FFFF800000001FFFF8
FFFF800000000FFFF8
FFFF800000000FFFF8
FFFF000000000FFFF8
FFFF000000000FFFF8
FFFF000000000FFFF8
FFFF000000000FFFF8
FFFF000000000FFFF8
FFFF000000000FFFF8
FFFF000000000FFFF8
FFFF000000000FFFF8
FFFF000000000FFFF8
FFFF000000000FFFF0
FFFF000000001FFFF0
7FFF000000001FFFF0
7FFF000000001FFFF0
7FFE000000001FFFF0
3FFE000000003FFFE0
07F8000000003FFFE0
0000000000003FFFE0
0000000000007FFFC0
0000000000007FFFC0
0000000000007FFFC0
000000000000FFFF80
000000000000FFFF80
000000000001FFFF00
000000000001FFFF00
000000000003FFFE00
000000000003FFFE00
000000000007FFFC00
000000000007FFFC00
00000000000FFFF800
00000000001FFFF000
00000000001FFFF000
00000000003FFFE000
00000000007FFFC000
00000000007FFFC000
0000000000FFFF8000
0000000001FFFF0000
0000000001FFFF0000
0000000003FFFE0000
0000000007FFFC0000
0000000007FFF80000
000000000FFFF80000
000000001FFFF00000
000000001FFFE00000
000000003FFFE00000
000000003FFFC00000
000000007FFF800000
00000000FFFF800000
00000000FFFF000000
00000001FFFF000000
00000001FFFE000000
00000003FFFE000000
00000003FFFC000000
00000003FFFC000000
00000007FFF8000000
00000007FFF8000000
0000000FFFF0000000
0000000FFFF0000000
0000000FFFF0000000
0000000FFFE0000000
0000001FFFE0000000
0000001FFFE0000000
0000001FFFC0000000
0000001FFFC0000000
0000001FFFC0000000
0000003FFFC0000000
0000003FFFC0000000
0000003FFF80000000
0000003FFF80000000
0000003FFF80000000
0000003FFF80000000
0000003FFF80000000
0000003FFF80000000
0000003FFF80000000
0000003FFF80000000
0000003FFF80000000
0000003FFF80000000
0000003FFF80000000
0000003FFF80000000
0000001FFF00000000
0000001FFF00000000
0000000FFE00000000
00000003FC00000000
000000000000000000
000000000000000000
000000000000000000
000000000000000000
000000000000000000
000000000000000000
000000000000000000
000000000000000000
000000000000000000
000000000000000000
000000000000000000
000000000000000000
000000000000000000
000000000000000000
000000000000000000
00000001F800000000
00000007FE00000000
0000001FFF00000000
0000001FFF80000000
0000003FFF80000000
0000003FFFC0000000
0000007FFFC0000000
0000007FFFE0000000
0000007FFFE0000000
000000FFFFE0000000
000000FFFFE0000000
000000FFFFF0000000
000000FFFFF0000000
000000FFFFF0000000
000000FFFFF0000000
000000FFFFF0000000
000000FFFFF0000000
000000FFFFF0000000
000000FFFFF0000000
000000FFFFF0000000
000000FFFFF0000000
000000FFFFF0000000
0000007FFFF0000000
0000007FFFF0000000
0000007FFFE0000000
0000007FFFE0000000
0000003FFFE0000000
0000003FFFC0000000
0000003FFFC0000000
0000001FFF80000000
0000000FFF80000000
00000007FE00000000
00000001F800000000
ENDCHAR
STARTCHAR 0040
ENCODING 64
SWIDTH 867 0
DWIDTH 210 0
BBX 178 184 16 -3
BITMAP
000000000000000000001FFFFE00000000000000000000
0000000000000000001FFFFFFFFC000000000000000000
000000000000000001FFFFFFFFFFE00000000000000000
00000000000000001FFFFFFFFFFFFE0000000000000000
0000000000000001FFFFFFFFFFFFFFC000000000000000
000000000000000FFFFFFFFFFFFFFFF800000000000000
000000000000003FFFFFFFFFFFFFFFFE00000000000000
00000000000001FFFFFFFFFFFFFFFFFFC0000000000000
00000000000007FFFFFFFFFFFFFFFFFFF0000000000000
0000000000001FFFFFFFFFFFFFFFFFFFFC000000000000
0000000000007FFFFFFFFFFFFFFFFFFFFF000000000000
000000000001FFFFFFFFE00003FFFFFFFFC00000000000
000000000007FFFFFFE000000007FFFFFFF00000000000
00000000000FFFFFFE00000000003FFFFFF80000000000
00000000003FFFFFE0000000000003FFFFFE0000000000
0000000000FFFFFF000000000000007FFFFF0000000000
0000000001FFFFF8000000000000000FFFFFC000000000
0000000007FFFFE00000000000000003FFFFE000000000
000000000FFFFF000000000000000000FFFFF000000000
000000001FFFFC0000000000000000003FFFFC00000000
000000003FFFF00000000000000000000FFFFE00000000
00000000FFFFC000000000000000000003FFFF00000000
00000001FFFF8000000000000000000000FFFF80000000
00000003FFFE00000000000000000000007FFFC0000000
00000007FFF800000000000000000000001FFFE0000000
0000000FFFF000000000000000000000000FFFF8000000
0000001FFFC0000000000000000000000003FFFC000000
0000003FFF80000000000000000000000001FFFE000000
0000007FFF00000000000000000000000000FFFE000000
000000FFFE000000000000000000000000007FFF000000
000001FFF8000000000000000000000000001FFF800000
000003FFF0000000000000000000000000000FFFC00000
000007FFE00000000000000000000000000007FFE00000
000007FFC00000000000000000000000000003FFF00000
00000FFF800000000000000000000000000001FFF00000
00001FFF000000000000000000000000000000FFF80000
00003FFE0000000000000000000000000000007FFC0000
00003FFC0000000000000000000000000000007FFE0000
00007FF80000000000000000000000000000003FFE0000
0000FFF80000000000000000000000000000001FFF0000
0000FFF00000000000000000000000000000000FFF8000
0001FFE000000000000000000000000000000007FF8000
0003FFC000000000000000000000000000000007FFC000
0003FFC000000000000000000000000000000003FFC000
0007FF8000000000000000000000000000000001FFE000
000FFF0000000000000000000000000000000001FFE000
000FFE000000000000007FFC0000000000000000FFF000
001FFE0000000000000FFFFFE000003FFE000000FFF000
001FFC000000000000FFFFFFFC00003FFE0000007FF800
003FFC000000000003FFFFFFFF00003FFE0000007FF800
003FF800000000001FFFFFFFFFC0007FFC0000003FF800
007FF000000000007FFFFFFFFFE0007FFC0000003FFC00
007FF00000000000FFFFFFFFFFF8007FFC0000001FFC00
00FFE00000000003FFFFFFFFFFFC007FFC0000001FFE00
00FFE00000000007FFFFFFFFFFFE007FFC0000000FFE00
01FFC0000000001FFFFFFFFFFFFF00FFF80000000FFE00
01FFC0000000003FFFFFFFFFFFFF80FFF80000000FFE00
01FF80000000007FFFFFFFFFFFFFC0FFF800000007FF00
03FF8000000000FFFFFFFFFFFFFFE0FFF800000007FF00
03FF0000000001FFFFFFF001FFFFF0FFF800000007FF00
03FF0000000003FFFFFF00003FFFF8FFF000000003FF00
07FF0000000007FFFFF8000007FFF9FFF000000003FF80
07FE000000000FFFFFE0000003FFFDFFF000000003FF80
07FE000000001FFFFF80000000FFFFFFF000000003FF80
0FFE000000003FFFFF000000007FFFFFF000000001FF80
0FFC000000007FFFFC000000003FFFFFF000000001FF80
0FFC000000007FFFF8000000001FFFFFE000000001FF80
1FFC00000000FFFFF0000000000FFFFFE000000001FFC0
1FF800000001FFFFE0000000000FFFFFE000000001FFC0
1FF800000001FFFFC00000000007FFFFE000000001FFC0
1FF800000003FFFF800000000003FFFFE000000000FFC0
3FF000000007FFFF000000000003FFFFC000000000FFC0
3FF000000007FFFE000000000001FFFFC000000000FFC0
3FF00000000FFFFE000000000001FFFFC000000000FFC0
3FF00000000FFFFC000000000001FFFFC000000000FFC0
7FF00000001FFFF8000000000000FFFFC000000000FFC0
7FE00000001FFFF8000000000000FFFF8000000000FFC0
7FE00000003FFFF0000000000000FFFF8000000000FFC0
7FE00000003FFFF00000000000007FFF8000000000FFC0
7FE00000003FFFE00000000000007FFF8000000000FFC0
7FE00000007FFFE00000000000007FFF8000000000FFC0
7FE00000007FFFC00000000000007FFF8000000000FFC0
7FC00000007FFFC00000000000007FFF0000000000FFC0
FFC0000000FFFFC00000000000007FFF0000000000FFC0
FFC0000000FFFF800000000000007FFF0000000000FFC0
FFC0000000FFFF800000000000007FFF0000000000FF80
FFC0000000FFFF800000000000007FFF0000000001FF80
FFC0000001FFFF000000000000007FFE0000000001FF80
FFC0000001FFFF000000000000007FFE0000000001FF80
FFC0000001FFFF000000000000007FFE0000000001FF80
FFC0000001FFFF000000000000007FFE0000000001FF80
FFC0000001FFFF000000000000007FFE0000000001FF80
FFC0000001FFFE000000000000007FFC0000000003FF00
FFC0000003FFFE000000000000007FFC0000000003FF00
FFC0000003FFFE00000000000000FFFC0000000003FF00
FFC0000003FFFE00000000000000FFFC0000000003FF00
FFC0000003FFFE00000000000000FFFC0000000007FE00
FFC0000003FFFE00000000000000FFFC0000000007FE00
FFC0000003FFFE00000000000000FFF80000000007FE00
FFC0000003FFFE00000000000000FFF8000000000FFC00
FFC0000003FFFE00000000000001FFF8000000000FFC00
FFE0000003FFFE00000000000001FFF8000000000FFC00
FFE0000003FFFE00000000000001FFF8000000001FF800
7FE0000003FFFE00000000000001FFF0000000001FF800
7FE0000003FFFE00000000000003FFF0000000003FF800
7FE0000003FFFE00000000000003FFF0000000003FF000
7FE0000003FFFF00000000000003FFF0000000007FF000
7FE0000003FFFF00000000000007FFF0000000007FE000
7FF0000003FFFF00000000000007FFE000000000FFE000
7FF0000001FFFF00000000000007FFE000000000FFC000
3FF0000001FFFF8000000000000FFFE000000001FFC000
3FF0000001FFFF8000000000000FFFE000000003FF8000
3FF8000001FFFF8000000000001FFFE000000007FF8000
3FF8000001FFFFC000000000001FFFE000000007FF0000
3FF8000000FFFFC000000000003FFFC00000000FFE0000
1FF8000000FFFFE000000000003FFFC00000001FFE0000
1FFC000000FFFFE000000000007FFFC00000003FFC0000
1FFC000000FFFFF000000000007FFFC00000007FF80000
0FFC0000007FFFF00000000000FFFFC00000007FF00000
0FFE0000007FFFF80000000001FFFF80000000FFF00000
0FFE0000007FFFFC0000000003FFFF80000001FFE00000
0FFE0000003FFFFE0000000003FFFF80000003FFC00000
07FF0000003FFFFE0000000007FFFF8000000FFF800000
07FF0000001FFFFF000000000FFFFF8000001FFF000000
03FF8000001FFFFFC00000001FFFFF0000003FFE000000
03FF8000000FFFFFE00000007FFFFF0000007FFC000000
03FFC0000007FFFFF8000000FFFFFF000000FFF8000000
01FFC0000007FFFFFC000003FFFFFF000003FFF0000000
01FFE0000003FFFFFF80000FFFFFFF000007FFE0000000
00FFE0000001FFFFFFF800FFFFFFFF00001FFF80000000
00FFF0000001FFFFFFFFFFFFFFFFFF00003FFF00000000
00FFF0000000FFFFFFFFFFFFFFFFFF8000FFFE00000000
007FF80000007FFFFFFFFFFFFDFFFF8003FFF800000000
007FF80000003FFFFFFFFFFFF9FFFFE03FFFF000000000
003FFC0000001FFFFFFFFFFFF1FFFFFFFFFFC000000000
003FFE0000000FFFFFFFFFFFE1FFFFFFFFFF0000000000
001FFE00000007FFFFFFFFFFC0FFFFFFFFFE0000000000
000FFF00000001FFFFFFFFFF80FFFFFFFFF80000000000
000FFF80000000FFFFFFFFFF00FFFFFFFFE00000000000
0007FF800000003FFFFFFFFC007FFFFFFF800000000000
0007FFC00000000FFFFFFFF0007FFFFFFC000000000000
0003FFE000000003FFFFFFC0003FFFFFF0000000000000
0001FFF0000000007FFFFF00001FFFFF80000000000000
0001FFF00000000003FFE0000007FFFC00000000000000
0000FFF800000000000000000000FFC000000000000000
00007FFC0000000000000000000000000000003FFE0000
00007FFE0000000000000000000000000000007FFC0000
00003FFF000000000000000000000000000000FFF80000
00001FFF800000000000000000000000000001FFF00000
00000FFFC00000000000000000000000000003FFE00000
00000FFFE00000000000000000000000000007FFC00000
000007FFF0000000000000000000000000000FFFC00000
000003FFF8000000000000000000000000003FFF800000
000001FFFC000000000000000000000000007FFF000000
000000FFFE00000000000000000000000000FFFE000000
0000007FFF80000000000000000000000001FFFC000000
0000003FFFC0000000000000000000000003FFF8000000
0000001FFFE000000000000000000000000FFFF0000000
0000000FFFF800000000000000000000001FFFE0000000
00000007FFFC00000000000000000000003FFFC0000000
00000003FFFF0000000000000000000000FFFF80000000
00000001FFFFC000000000000000000001FFFF00000000
00000000FFFFF000000000000000000007FFFE00000000
000000003FFFF80000000000000000001FFFFC00000000
000000001FFFFE0000000000000000003FFFF800000000
000000000FFFFFC00000000000000000FFFFF000000000
0000000003FFFFF00000000000000003FFFFE000000000
0000000001FFFFFC000000000000001FFFFF8000000000
00000000007FFFFF800000000000007FFFFF0000000000
00000000003FFFFFF0000000000003FFFFFE0000000000
00000000000FFFFFFF00000000003FFFFFF80000000000
000000000003FFFFFFF800000003FFFFFFF00000000000
000000000001FFFFFFFFF00001FFFFFFFFC00000000000
0000000000007FFFFFFFFFFFFFFFFFFFFF800000000000
0000000000001FFFFFFFFFFFFFFFFFFFFE000000000000
00000000000007FFFFFFFFFFFFFFFFFFF8000000000000
00000000000000FFFFFFFFFFFFFFFFFFE0000000000000
000000000000003FFFFFFFFFFFFFFFFF00000000000000
0000000000000007FFFFFFFFFFFFFFFC00000000000000
0000000000000000FFFFFFFFFFFFFFE000000000000000
00000000000000001FFFFFFFFFFFFF0000000000000000
000000000000000001FFFFFFFFFFF00000000000000000
0000000000000000000FFFFFFFFE000000000000000000
000000000000000000000FFFFF00000000000000000000
ENDCHAR
STARTCHAR 0041
ENCODING 65
SWIDTH 739 0
DWIDTH 179 0
BBX 166 174 6 0
BITMAP
000000000000000000003C00000000000000000000
000000000000000000007E00000000000000000000
000000000000000000007E00000000000000000000
00000000000000000000FF00000000000000000000
00000000000000000000FF00000000000000000000
00000000000000000001FF80000000000000000000
00000000000000000001FF80000000000000000000
00000000000000000003FF80000000000000000000
00000000000000000003FFC0000000000000000000
00000000000000000007FFC0000000000000000000
00000000000000000007FFE0000000000000000000
00000000000000000007FFE0000000000000000000
0000000000000000000FFFF0000000000000000000
0000000000000000000FFFF0000000000000000000
0000000000000000001FFFF8000000000000000000
0000000000000000001FFFF8000000000000000000
0000000000000000003FFFFC000000000000000000
0000000000000000003FFFFC000000000000000000
0000000000000000007FFFFE000000000000000000
0000000000000000007FFFFE000000000000000000
000000000000000000FFFFFF000000000000000000
000000000000000000FFFFFF000000000000000000
000000000000000001FFFFFF000000000000000000
000000000000000001FFFFFF800000000000000000
000000000000000003FFFFFF800000000000000000
000000000000000003FFFFFFC00000000000000000
000000000000000007FFFFFFC00000000000000000
000000000000000007FFFFFFE00000000000000000
00000000000000000FFFFFFFE00000000000000000
00000000000000000FFFFFFFF00000000000000000
00000000000000000FFFFFFFF00000000000000000
00000000000000001FFFFFFFF80000000000000000
00000000000000001FFFFFFFF80000000000000000
00000000000000003FFFFFFFFC0000000000000000
00000000000000003FFFFFFFFC0000000000000000
00000000000000007FFFFFFFFC0000000000000000
00000000000000007FFFFFFFFE0000000000000000
0000000000000000FFFFE7FFFE0000000000000000
0000000000000000FFFFE7FFFF0000000000000000
0000000000000001FFFFC3FFFF0000000000000000
0000000000000001FFFFC3FFFF8000000000000000
0000000000000003FFFF81FFFF8000000000000000
0000000000000003FFFF81FFFFC000000000000000
0000000000000007FFFF01FFFFC000000000000000
0000000000000007FFFF00FFFFE000000000000000
000000000000000FFFFF00FFFFE000000000000000
000000000000000FFFFE007FFFF000000000000000
000000000000001FFFFE007FFFF000000000000000
000000000000001FFFFC003FFFF000000000000000
000000000000001FFFFC003FFFF800000000000000
000000000000003FFFF8001FFFF800000000000000
000000000000003FFFF8001FFFFC00000000000000
000000000000007FFFF0000FFFFC00000000000000
000000000000007FFFF0000FFFFE00000000000000
00000000000000FFFFE0000FFFFE00000000000000
00000000000000FFFFE00007FFFF00000000000000
00000000000001FFFFC00007FFFF00000000000000
00000000000001FFFFC00003FFFF80000000000000
00000000000003FFFF800003FFFF80000000000000
00000000000003FFFF800001FFFFC0000000000000
00000000000007FFFF000001FFFFC0000000000000
00000000000007FFFF000000FFFFE0000000000000
0000000000000FFFFF000000FFFFE0000000000000
0000000000000FFFFE0000007FFFE0000000000000
0000000000001FFFFE0000007FFFF0000000000000
0000000000001FFFFC0000007FFFF0000000000000
0000000000003FFFFC0000003FFFF8000000000000
0000000000003FFFF80000003FFFF8000000000000
0000000000003FFFF80000001FFFFC000000000000
0000000000007FFFF00000001FFFFC000000000000
0000000000007FFFF00000000FFFFE000000000000
000000000000FFFFE00000000FFFFE000000000000
000000000000FFFFE000000007FFFF000000000000
000000000001FFFFC000000007FFFF000000000000
000000000001FFFFC000000003FFFF800000000000
000000000003FFFF8000000003FFFF800000000000
000000000003FFFF8000000003FFFF800000000000
000000000007FFFF0000000001FFFFC00000000000
000000000007FFFF0000000001FFFFC00000000000
00000000000FFFFF0000000000FFFFE00000000000
00000000000FFFFE0000000000FFFFE00000000000
00000000001FFFFE00000000007FFFF00000000000
00000000001FFFFC00000000007FFFF00000000000
00000000003FFFFC00000000003FFFF80000000000
00000000003FFFF800000000003FFFF80000000000
00000000003FFFF800000000001FFFFC0000000000
00000000007FFFF000000000001FFFFC0000000000
00000000007FFFF000000000001FFFFE0000000000
0000000000FFFFE000000000000FFFFE0000000000
0000000000FFFFE000000000000FFFFE0000000000
0000000001FFFFC0000000000007FFFF0000000000
0000000001FFFFC0000000000007FFFF0000000000
0000000003FFFF80000000000003FFFF8000000000
0000000003FFFF80000000000003FFFF8000000000
0000000007FFFF00000000000001FFFFC000000000
0000000007FFFF00000000000001FFFFC000000000
000000000FFFFF00000000000000FFFFE000000000
000000000FFFFE00000000000000FFFFE000000000
000000001FFFFE00000000000000FFFFF000000000
000000001FFFFC000000000000007FFFF000000000
000000003FFFFFFFFFFFFFFFFFFFFFFFF800000000
000000003FFFFFFFFFFFFFFFFFFFFFFFF800000000
000000007FFFFFFFFFFFFFFFFFFFFFFFFC00000000
000000007FFFFFFFFFFFFFFFFFFFFFFFFC00000000
000000007FFFFFFFFFFFFFFFFFFFFFFFFC00000000
00000000FFFFFFFFFFFFFFFFFFFFFFFFFE00000000
00000000FFFFFFFFFFFFFFFFFFFFFFFFFE00000000
00000001FFFFFFFFFFFFFFFFFFFFFFFFFF00000000
00000001FFFFFFFFFFFFFFFFFFFFFFFFFF00000000
00000003FFFFFFFFFFFFFFFFFFFFFFFFFF80000000
00000003FFFFFFFFFFFFFFFFFFFFFFFFFF80000000
00000007FFFFFFFFFFFFFFFFFFFFFFFFFFC0000000
00000007FFFFFFFFFFFFFFFFFFFFFFFFFFC0000000
0000000FFFFFFFFFFFFFFFFFFFFFFFFFFFE0000000
0000000FFFFFFFFFFFFFFFFFFFFFFFFFFFE0000000
0000001FFFFFFFFFFFFFFFFFFFFFFFFFFFF0000000
0000001FFFFFFFFFFFFFFFFFFFFFFFFFFFF0000000
0000003FFFFC0000000000000000007FFFF0000000
0000003FFFF80000000000000000003FFFF8000000
0000007FFFF80000000000000000003FFFF8000000
0000007FFFF00000000000000000003FFFFC000000
000000FFFFF00000000000000000001FFFFC000000
000000FFFFE00000000000000000001FFFFE000000
000000FFFFE00000000000000000000FFFFE000000
000001FFFFE00000000000000000000FFFFF000000
000001FFFFC000000000000000000007FFFF000000
000003FFFFC000000000000000000007FFFF800000
000003FFFF8000000000000000000003FFFF800000
000007FFFF8000000000000000000003FFFFC00000
000007FFFF0000000000000000000001FFFFC00000
00000FFFFF0000000000000000000001FFFFE00000
00000FFFFE0000000000000000000000FFFFE00000
00001FFFFE0000000000000000000000FFFFE00000
00001FFFFC00000000000000000000007FFFF00000
00003FFFFC00000000000000000000007FFFF00000
00003FFFF800000000000000000000003FFFF80000
00007FFFF800000000000000000000003FFFF80000
00007FFFF000000000000000000000001FFFFC0000
0000FFFFF000000000000000000000001FFFFC0000
0000FFFFE000000000000000000000000FFFFE0000
0001FFFFE000000000000000000000000FFFFE0000
0001FFFFC000000000000000000000000FFFFF0000
0001FFFFC0000000000000000000000007FFFF0000
0003FFFFC0000000000000000000000007FFFF8000
0003FFFF80000000000000000000000003FFFF8000
0007FFFF80000000000000000000000003FFFF8000
0007FFFF00000000000000000000000001FFFFC000
000FFFFF00000000000000000000000001FFFFC000
000FFFFE00000000000000000000000000FFFFE000
001FFFFE00000000000000000000000000FFFFE000
001FFFFC000000000000000000000000007FFFF000
003FFFFC000000000000000000000000007FFFF000
003FFFF8000000000000000000000000003FFFF800
007FFFF8000000000000000000000000003FFFF800
007FFFF0000000000000000000000000001FFFFC00
00FFFFF0000000000000000000000000001FFFFC00
00FFFFE0000000000000000000000000000FFFFE00
01FFFFE0000000000000000000000000000FFFFE00
01FFFFC00000000000000000000000000007FFFE00
03FFFFC00000000000000000000000000007FFFF00
03FFFF800000000000000000000000000003FFFF00
03FFFF800000000000000000000000000003FFFF80
07FFFF000000000000000000000000000001FFFF80
07FFFF000000000000000000000000000001FFFFC0
0FFFFF000000000000000000000000000001FFFFC0
0FFFFE000000000000000000000000000000FFFFE0
1FFFFE000000000000000000000000000000FFFFE0
1FFFFC0000000000000000000000000000007FFFF0
3FFFFC0000000000000000000000000000007FFFF0
3FFFF80000000000000000000000000000003FFFF8
7FFFF80000000000000000000000000000003FFFF8
7FFFF00000000000000000000000000000001FFFFC
FFFFF00000000000000000000000000000001FFFFC
FFFFE00000000000000000000000000000000FFFFC
ENDCHAR
STARTCHAR 0042
ENCODING 66
SWIDTH 574 0
DWIDTH 139 0
BBX 104 174 22 0
BITMAP
FFFFFFFFFFF800000000000000
FFFFFFFFFFFFF0000000000000
FFFFFFFFFFFFFF800000000000
FFFFFFFFFFFFFFF80000000000
FFFFFFFFFFFFFFFF0000000000
FFFFFFFFFFFFFFFFC000000000
FFFFFFFFFFFFFFFFF000000000
FFFFFFFFFFFFFFFFFC00000000
FFFFFFFFFFFFFFFFFF00000000
FFFFFFFFFFFFFFFFFF80000000
FFFFFFFFFFFFFFFFFFE0000000
FFFFFFFFFFFFFFFFFFF0000000
FFFFFFFFFFFFFFFFFFF8000000
FFFFFFFFFFFFFFFFFFFC000000
FFFFFFFFFFFFFFFFFFFE000000
FFFFFFFFFFFFFFFFFFFF000000
FFFFFFFFFFFFFFFFFFFF800000
FFFF80000001FFFFFFFFC00000
FFFF800000000FFFFFFFE00000
FFFF8000000000FFFFFFE00000
FFFF80000000001FFFFFF00000
FFFF800000000007FFFFF00000
FFFF800000000001FFFFF80000
FFFF800000000000FFFFFC0000
FFFF8000000000007FFFFC0000
FFFF8000000000001FFFFC0000
FFFF8000000000001FFFFE0000
FFFF8000000000000FFFFE0000
FFFF80000000000007FFFF0000
FFFF80000000000003FFFF0000
FFFF80000000000003FFFF0000
FFFF80000000000001FFFF8000
FFFF80000000000001FFFF8000
FFFF80000000000000FFFF8000
FFFF80000000000000FFFF8000
FFFF80000000000000FFFF8000
FFFF80000000000000FFFFC000
FFFF800000000000007FFFC000
FFFF800000000000007FFFC000
FFFF800000000000007FFFC000
FFFF800000000000007FFFC000
FFFF800000000000007FFFC000
FFFF800000000000007FFFC000
FFFF800000000000007FFFC000
FFFF800000000000007FFFC000
FFFF800000000000007FFFC000
FFFF800000000000007FFFC000
FFFF800000000000007FFFC000
FFFF80000000000000FFFFC000
FFFF80000000000000FFFFC000
FFFF80000000000000FFFF8000
FFFF80000000000000FFFF8000
FFFF80000000000001FFFF8000
FFFF80000000000001FFFF8000
FFFF80000000000003FFFF8000
FFFF80000000000003FFFF0000
FFFF80000000000007FFFF0000
FFFF80000000000007FFFF0000
FFFF8000000000000FFFFE0000
FFFF8000000000001FFFFE0000
FFFF8000000000001FFFFC0000
FFFF8000000000003FFFFC0000
FFFF8000000000007FFFF80000
FFFF800000000000FFFFF80000
FFFF800000000001FFFFF00000
FFFF800000000007FFFFF00000
FFFF80000000000FFFFFE00000
FFFF80000000003FFFFFC00000
FFFF80000000007FFFFF800000
FFFF8000000003FFFFFF000000
FFFF800000001FFFFFFF000000
FFFF80000001FFFFFFFE000000
FFFF800000FFFFFFFFFC000000
FFFFFFFFFFFFFFFFFFF0000000
FFFFFFFFFFFFFFFFFFE0000000
FFFFFFFFFFFFFFFFFFC0000000
FFFFFFFFFFFFFFFFFF00000000
FFFFFFFFFFFFFFFFFE00000000
FFFFFFFFFFFFFFFFF800000000
FFFFFFFFFFFFFFFFF800000000
FFFFFFFFFFFFFFFFFE00000000
FFFFFFFFFFFFFFFFFFC0000000
FFFFFFFFFFFFFFFFFFF0000000
FFFFFFFFFFFFFFFFFFFC000000
FFFFFFFFFFFFFFFFFFFF000000
FFFFFFFFFFFFFFFFFFFFC00000
FFFFFFFFFFFFFFFFFFFFE00000
FFFFFFFFFFFFFFFFFFFFF80000
FFFFFFFFFFFFFFFFFFFFFC0000
FFFFFFFFFFFFFFFFFFFFFF0000
FFFF80000007FFFFFFFFFF8000
FFFF8000000001FFFFFFFFC000
FFFF80000000000FFFFFFFE000
FFFF800000000001FFFFFFF000
FFFF8000000000003FFFFFF800
FFFF8000000000000FFFFFFC00
FFFF80000000000003FFFFFE00
FFFF80000000000000FFFFFE00
FFFF800000000000007FFFFF00
FFFF800000000000003FFFFF80
FFFF800000000000000FFFFFC0
FFFF8000000000000007FFFFC0
FFFF8000000000000003FFFFE0
FFFF8000000000000001FFFFE0
FFFF8000000000000000FFFFF0
FFFF80000000000000007FFFF0
FFFF80000000000000007FFFF8
FFFF80000000000000003FFFF8
FFFF80000000000000001FFFF8
FFFF80000000000000001FFFFC
FFFF80000000000000000FFFFC
FFFF80000000000000000FFFFC
FFFF800000000000000007FFFE
FFFF800000000000000007FFFE
FFFF800000000000000007FFFE
FFFF800000000000000003FFFE
FFFF800000000000000003FFFE
FFFF800000000000000003FFFF
FFFF800000000000000003FFFF
FFFF800000000000000001FFFF
FFFF800000000000000001FFFF
FFFF800000000000000001FFFF
FFFF800000000000000001FFFF
FFFF800000000000000001FFFF
FFFF800000000000000001FFFF
FFFF800000000000000001FFFF
FFFF800000000000000001FFFF
FFFF800000000000000001FFFF
FFFF800000000000000001FFFF
FFFF800000000000000001FFFF
FFFF800000000000000003FFFF
FFFF800000000000000003FFFF
FFFF800000000000000003FFFE
FFFF800000000000000003FFFE
FFFF800000000000000007FFFE
FFFF800000000000000007FFFE
FFFF80000000000000000FFFFE
FFFF80000000000000000FFFFC
FFFF80000000000000001FFFFC
FFFF80000000000000001FFFFC
FFFF80000000000000003FFFF8
FFFF80000000000000003FFFF8
FFFF80000000000000007FFFF8
FFFF8000000000000000FFFFF0
FFFF8000000000000001FFFFF0
FFFF8000000000000003FFFFE0
FFFF8000000000000007FFFFE0
FFFF800000000000000FFFFFC0
FFFF800000000000001FFFFFC0
FFFF800000000000003FFFFF80
FFFF80000000000000FFFFFF80
FFFF80000000000001FFFFFF00
FFFF80000000000007FFFFFE00
FFFF8000000000003FFFFFFE00
FFFF800000000001FFFFFFFC00
FFFF80000000001FFFFFFFF800
FFFF800000000FFFFFFFFFF000
FFFFFFFFFFFFFFFFFFFFFFE000
FFFFFFFFFFFFFFFFFFFFFFC000
FFFFFFFFFFFFFFFFFFFFFF8000
FFFFFFFFFFFFFFFFFFFFFF0000
FFFFFFFFFFFFFFFFFFFFFE0000
FFFFFFFFFFFFFFFFFFFFF80000
FFFFFFFFFFFFFFFFFFFFF00000
FFFFFFFFFFFFFFFFFFFFC00000
FFFFFFFFFFFFFFFFFFFF800000
FFFFFFFFFFFFFFFFFFFE000000
FFFFFFFFFFFFFFFFFFF8000000
FFFFFFFFFFFFFFFFFFE0000000
FFFFFFFFFFFFFFFFFF80000000
FFFFFFFFFFFFFFFFFC00000000
FFFFFFFFFFFFFFFFE000000000
FFFFFFFFFFFFFFFE0000000000
FFFFFFFFFFFFFF800000000000
ENDCHAR
STARTCHAR 0043
ENCODING 67
SWIDTH 814 0
DWIDTH 197 0
BBX 170 182 13 -4
BITMAP
000000000000000000001FFFFF800000000000000000
0000000000000000001FFFFFFFFF8000000000000000
000000000000000003FFFFFFFFFFFC00000000000000
00000000000000003FFFFFFFFFFFFFC0000000000000
0000000000000001FFFFFFFFFFFFFFFC000000000000
000000000000000FFFFFFFFFFFFFFFFF800000000000
000000000000007FFFFFFFFFFFFFFFFFF00000000000
00000000000003FFFFFFFFFFFFFFFFFFFC0000000000
0000000000000FFFFFFFFFFFFFFFFFFFFF0000000000
0000000000003FFFFFFFFFFFFFFFFFFFFFC000000000
000000000000FFFFFFFFFFFFFFFFFFFFFFF000000000
000000000003FFFFFFFFFFFFFFFFFFFFFFFC00000000
00000000000FFFFFFFFFFFFFFFFFFFFFFFFF00000000
00000000001FFFFFFFFFFFFFFFFFFFFFFFFFC0000000
00000000007FFFFFFFFFFFFFFFFFFFFFFFFFE0000000
0000000000FFFFFFFFFFFFFFFFFFFFFFFFFFF8000000
0000000003FFFFFFFFFFFFFFFFFFFFFFFFFFFC000000
0000000007FFFFFFFFFFF80000FFFFFFFFFFFE000000
000000001FFFFFFFFFFC00000003FFFFFFFFFF800000
000000003FFFFFFFFFC0000000001FFFFFFFFFC00000
000000007FFFFFFFFC000000000001FFFFFFFFE00000
00000000FFFFFFFFE00000000000003FFFFFFFF00000
00000003FFFFFFFF800000000000000FFFFFFFF80000
00000007FFFFFFFC0000000000000001FFFFFFFE0000
0000000FFFFFFFF000000000000000007FFFFFFF0000
0000001FFFFFFFC000000000000000001FFFFFFF8000
0000003FFFFFFF00000000000000000007FFFFFFC000
0000007FFFFFFC00000000000000000003FFFFFFE000
000000FFFFFFF800000000000000000000FFFFFFE000
000001FFFFFFE0000000000000000000003FFFFFF000
000003FFFFFF80000000000000000000001FFFFFF800
000007FFFFFF00000000000000000000000FFFFFFC00
00000FFFFFFE000000000000000000000003FFFFFE00
00001FFFFFF8000000000000000000000001FFFFFF00
00001FFFFFF0000000000000000000000000FFFFFF00
00003FFFFFE00000000000000000000000007FFFFF80
00007FFFFFC00000000000000000000000003FFFFFC0
0000FFFFFF800000000000000000000000001FFFFF80
0000FFFFFE000000000000000000000000000FFFFE00
0001FFFFFC0000000000000000000000000007FFFC00
0003FFFFF80000000000000000000000000003FFF800
0003FFFFF80000000000000000000000000001FFE000
0007FFFFF00000000000000000000000000000FFC000
000FFFFFE000000000000000000000000000007F8000
000FFFFFC000000000000000000000000000003E0000
001FFFFF8000000000000000000000000000001C0000
001FFFFF000000000000000000000000000000080000
003FFFFF000000000000000000000000000000000000
007FFFFE000000000000000000000000000000000000
007FFFFC000000000000000000000000000000000000
00FFFFFC000000000000000000000000000000000000
00FFFFF8000000000000000000000000000000000000
00FFFFF0000000000000000000000000000000000000
01FFFFF0000000000000000000000000000000000000
01FFFFE0000000000000000000000000000000000000
03FFFFE0000000000000000000000000000000000000
03FFFFC0000000000000000000000000000000000000
03FFFFC0000000000000000000000000000000000000
07FFFF80000000000000000000000000000000000000
07FFFF80000000000000000000000000000000000000
0FFFFF00000000000000000000000000000000000000
0FFFFF00000000000000000000000000000000000000
0FFFFE00000000000000000000000000000000000000
0FFFFE00000000000000000000000000000000000000
1FFFFE00000000000000000000000000000000000000
1FFFFC00000000000000000000000000000000000000
1FFFFC00000000000000000000000000000000000000
3FFFFC00000000000000000000000000000000000000
3FFFF800000000000000000000000000000000000000
3FFFF800000000000000000000000000000000000000
3FFFF800000000000000000000000000000000000000
3FFFF000000000000000000000000000000000000000
7FFFF000000000000000000000000000000000000000
7FFFF000000000000000000000000000000000000000
7FFFF000000000000000000000000000000000000000
7FFFE000000000000000000000000000000000000000
7FFFE000000000000000000000000000000000000000
7FFFE000000000000000000000000000000000000000
7FFFE000000000000000000000000000000000000000
FFFFE000000000000000000000000000000000000000
FFFFE000000000000000000000000000000000000000
FFFFE000000000000000000000000000000000000000
FFFFC000000000000000000000000000000000000000
FFFFC000000000000000000000000000000000000000
FFFFC000000000000000000000000000000000000000
FFFFC000000000000000000000000000000000000000
FFFFC000000000000000000000000000000000000000
FFFFC000000000000000000000000000000000000000
FFFFC000000000000000000000000000000000000000
FFFFC000000000000000000000000000000000000000
FFFFC000000000000000000000000000000000000000
FFFFC000000000000000000000000000000000000000
FFFFC000000000000000000000000000000000000000
FFFFC000000000000000000000000000000000000000
FFFFC000000000000000000000000000000000000000
FFFFC000000000000000000000000000000000000000
FFFFC000000000000000000000000000000000000000
FFFFC000000000000000000000000000000000000000
FFFFC000000000000000000000000000000000000000
FFFFC000000000000000000000000000000000000000
FFFFC000000000000000000000000000000000000000
7FFFE000000000000000000000000000000000000000
7FFFE000000000000000000000000000000000000000
7FFFE000000000000000000000000000000000000000
7FFFE000000000000000000000000000000000000000
7FFFE000000000000000000000000000000000000000
7FFFE000000000000000000000000000000000000000
7FFFF000000000000000000000000000000000000000
3FFFF000000000000000000000000000000000000000
3FFFF000000000000000000000000000000000000000
3FFFF000000000000000000000000000000000000000
3FFFF000000000000000000000000000000000000000
3FFFF800000000000000000000000000000000000000
1FFFF800000000000000000000000000000000000000
1FFFF800000000000000000000000000000000000000
1FFFFC00000000000000000000000000000000000000
1FFFFC00000000000000000000000000000000000000
0FFFFC00000000000000000000000000000000000000
0FFFFE00000000000000000000000000000000000000
0FFFFE00000000000000000000000000000000000000
0FFFFE00000000000000000000000000000000000000
07FFFF00000000000000000000000000000000000000
07FFFF00000000000000000000000000000000000000
07FFFF80000000000000000000000000000000000000
03FFFF80000000000000000000000000000000000000
03FFFFC0000000000000000000000000000000000000
01FFFFC0000000000000000000000000000000000000
01FFFFE0000000000000000000000000000000000000
01FFFFE0000000000000000000000000000000000000
00FFFFF0000000000000000000000000000000000000
00FFFFF8000000000000000000000000000000000000
007FFFF8000000000000000000000000000000000000
007FFFFC000000000000000000000000000000000000
003FFFFE000000000000000000000000000000000000
003FFFFE000000000000000000000000000000000000
001FFFFF000000000000000000000000000000000000
001FFFFF800000000000000000000000000000000000
000FFFFFC00000000000000000000000000000080000
0007FFFFC000000000000000000000000000001C0000
0007FFFFE000000000000000000000000000003E0000
0003FFFFF000000000000000000000000000007F8000
0003FFFFF80000000000000000000000000000FFC000
0001FFFFFC0000000000000000000000000001FFE000
0000FFFFFE0000000000000000000000000003FFF800
0000FFFFFF0000000000000000000000000007FFFC00
00007FFFFF800000000000000000000000001FFFFE00
00003FFFFFC00000000000000000000000003FFFFF80
00001FFFFFF00000000000000000000000007FFFFFC0
00001FFFFFF8000000000000000000000000FFFFFF80
00000FFFFFFC000000000000000000000001FFFFFF00
000007FFFFFE000000000000000000000007FFFFFE00
000003FFFFFF80000000000000000000000FFFFFFE00
000001FFFFFFC0000000000000000000003FFFFFFC00
000000FFFFFFF0000000000000000000007FFFFFF800
0000007FFFFFFC00000000000000000001FFFFFFF000
0000003FFFFFFE00000000000000000007FFFFFFE000
0000001FFFFFFF8000000000000000001FFFFFFFC000
0000000FFFFFFFE000000000000000007FFFFFFF8000
00000007FFFFFFF80000000000000001FFFFFFFF0000
00000003FFFFFFFF0000000000000007FFFFFFFE0000
00000001FFFFFFFFE00000000000003FFFFFFFFC0000
00000000FFFFFFFFFC000000000001FFFFFFFFF00000
000000007FFFFFFFFF80000000000FFFFFFFFFE00000
000000003FFFFFFFFFFC00000001FFFFFFFFFFC00000
000000000FFFFFFFFFFFF80000FFFFFFFFFFFF800000
0000000007FFFFFFFFFFFFFFFFFFFFFFFFFFFE000000
0000000001FFFFFFFFFFFFFFFFFFFFFFFFFFFC000000
0000000000FFFFFFFFFFFFFFFFFFFFFFFFFFF0000000
00000000003FFFFFFFFFFFFFFFFFFFFFFFFFE0000000
00000000001FFFFFFFFFFFFFFFFFFFFFFFFF80000000
000000000007FFFFFFFFFFFFFFFFFFFFFFFE00000000
000000000001FFFFFFFFFFFFFFFFFFFFFFF800000000
0000000000007FFFFFFFFFFFFFFFFFFFFFE000000000
0000000000001FFFFFFFFFFFFFFFFFFFFF8000000000
00000000000007FFFFFFFFFFFFFFFFFFFE0000000000
00000000000000FFFFFFFFFFFFFFFFFFF00000000000
000000000000001FFFFFFFFFFFFFFFFFC00000000000
0000000000000003FFFFFFFFFFFFFFFE000000000000
00000000000000007FFFFFFFFFFFFFE0000000000000
000000000000000007FFFFFFFFFFFE00000000000000
0000000000000000001FFFFFFFFF8000000000000000
000000000000000000001FFFFF800000000000000000
ENDCHAR
STARTCHAR 0044
ENCODING 68
SWIDTH 743 0
DWIDTH 180 0
BBX 146 174 21 0
BITMAP
FFFFFFFFFFFFFF000000000000000000000000
FFFFFFFFFFFFFFFFF800000000000000000000
FFFFFFFFFFFFFFFFFFF8000000000000000000
FFFFFFFFFFFFFFFFFFFFC00000000000000000
FFFFFFFFFFFFFFFFFFFFFE0000000000000000
FFFFFFFFFFFFFFFFFFFFFFC000000000000000
FFFFFFFFFFFFFFFFFFFFFFF800000000000000
FFFFFFFFFFFFFFFFFFFFFFFF00000000000000
FFFFFFFFFFFFFFFFFFFFFFFFC0000000000000
FFFFFFFFFFFFFFFFFFFFFFFFF8000000000000
FFFFFFFFFFFFFFFFFFFFFFFFFE000000000000
FFFFFFFFFFFFFFFFFFFFFFFFFF800000000000
FFFFFFFFFFFFFFFFFFFFFFFFFFC00000000000
FFFFFFFFFFFFFFFFFFFFFFFFFFF00000000000
FFFFFFFFFFFFFFFFFFFFFFFFFFFC0000000000
FFFFFFFFFFFFFFFFFFFFFFFFFFFE0000000000
FFFFFFFFFFFFFFFFFFFFFFFFFFFF8000000000
FFFF800000003FFFFFFFFFFFFFFFC000000000
FFFF800000000000FFFFFFFFFFFFE000000000
FFFF80000000000000FFFFFFFFFFF800000000
FFFF8000000000000007FFFFFFFFFC00000000
FFFF80000000000000007FFFFFFFFE00000000
FFFF800000000000000007FFFFFFFF00000000
FFFF800000000000000001FFFFFFFF80000000
FFFF8000000000000000003FFFFFFFC0000000
FFFF8000000000000000000FFFFFFFE0000000
FFFF80000000000000000003FFFFFFF0000000
FFFF80000000000000000000FFFFFFF8000000
FFFF800000000000000000003FFFFFFC000000
FFFF800000000000000000000FFFFFFE000000
FFFF8000000000000000000007FFFFFF000000
FFFF8000000000000000000001FFFFFF000000
FFFF8000000000000000000000FFFFFF800000
FFFF80000000000000000000007FFFFFC00000
FFFF80000000000000000000003FFFFFE00000
FFFF80000000000000000000001FFFFFE00000
FFFF800000000000000000000007FFFFF00000
FFFF800000000000000000000003FFFFF80000
FFFF800000000000000000000001FFFFF80000
FFFF800000000000000000000001FFFFFC0000
FFFF800000000000000000000000FFFFFC0000
FFFF8000000000000000000000007FFFFE0000
FFFF8000000000000000000000003FFFFE0000
FFFF8000000000000000000000001FFFFF0000
FFFF8000000000000000000000000FFFFF0000
FFFF8000000000000000000000000FFFFF8000
FFFF80000000000000000000000007FFFF8000
FFFF80000000000000000000000003FFFFC000
FFFF80000000000000000000000003FFFFC000
FFFF80000000000000000000000001FFFFE000
FFFF80000000000000000000000001FFFFE000
FFFF80000000000000000000000000FFFFE000
FFFF800000000000000000000000007FFFF000
FFFF800000000000000000000000007FFFF000
FFFF800000000000000000000000003FFFF800
FFFF800000000000000000000000003FFFF800
FFFF800000000000000000000000001FFFF800
FFFF800000000000000000000000001FFFFC00
FFFF800000000000000000000000001FFFFC00
FFFF800000000000000000000000000FFFFC00
FFFF800000000000000000000000000FFFFC00
FFFF800000000000000000000000000FFFFE00
FFFF8000000000000000000000000007FFFE00
FFFF8000000000000000000000000007FFFE00
FFFF8000000000000000000000000007FFFE00
FFFF8000000000000000000000000003FFFF00
FFFF8000000000000000000000000003FFFF00
FFFF8000000000000000000000000003FFFF00
FFFF8000000000000000000000000001FFFF00
FFFF8000000000000000000000000001FFFF00
FFFF8000000000000000000000000001FFFF80
FFFF8000000000000000000000000001FFFF80
FFFF8000000000000000000000000001FFFF80
FFFF8000000000000000000000000000FFFF80
FFFF8000000000000000000000000000FFFF80
FFFF8000000000000000000000000000FFFF80
FFFF8000000000000000000000000000FFFF80
FFFF8000000000000000000000000000FFFF80
FFFF8000000000000000000000000000FFFFC0
FFFF8000000000000000000000000000FFFFC0
FFFF80000000000000000000000000007FFFC0
FFFF80000000000000000000000000007FFFC0
FFFF80000000000000000000000000007FFFC0
FFFF80000000000000000000000000007FFFC0
FFFF80000000000000000000000000007FFFC0
FFFF80000000000000000000000000007FFFC0
FFFF80000000000000000000000000007FFFC0
FFFF80000000000000000000000000007FFFC0
FFFF80000000000000000000000000007FFFC0
FFFF80000000000000000000000000007FFFC0
FFFF80000000000000000000000000007FFFC0
FFFF80000000000000000000000000007FFFC0
FFFF80000000000000000000000000007FFFC0
FFFF80000000000000000000000000007FFFC0
FFFF80000000000000000000000000007FFFC0
FFFF80000000000000000000000000007FFFC0
FFFF80000000000000000000000000007FFFC0
FFFF80000000000000000000000000007FFFC0
FFFF8000000000000000000000000000FFFFC0
FFFF8000000000000000000000000000FFFFC0
FFFF8000000000000000000000000000FFFF80
FFFF8000000000000000000000000000FFFF80
FFFF8000000000000000000000000000FFFF80
FFFF8000000000000000000000000000FFFF80
FFFF8000000000000000000000000000FFFF80
FFFF8000000000000000000000000001FFFF80
FFFF8000000000000000000000000001FFFF80
FFFF8000000000000000000000000001FFFF00
FFFF8000000000000000000000000001FFFF00
FFFF8000000000000000000000000001FFFF00
FFFF8000000000000000000000000003FFFF00
FFFF8000000000000000000000000003FFFF00
FFFF8000000000000000000000000003FFFE00
FFFF8000000000000000000000000007FFFE00
FFFF8000000000000000000000000007FFFE00
FFFF8000000000000000000000000007FFFE00
FFFF800000000000000000000000000FFFFC00
FFFF800000000000000000000000000FFFFC00
FFFF800000000000000000000000000FFFFC00
FFFF800000000000000000000000001FFFFC00
FFFF800000000000000000000000001FFFF800
FFFF800000000000000000000000003FFFF800
FFFF800000000000000000000000003FFFF800
FFFF800000000000000000000000007FFFF000
FFFF800000000000000000000000007FFFF000
FFFF80000000000000000000000000FFFFF000
FFFF80000000000000000000000000FFFFE000
FFFF80000000000000000000000001FFFFE000
FFFF80000000000000000000000001FFFFC000
FFFF80000000000000000000000003FFFFC000
FFFF80000000000000000000000007FFFF8000
FFFF80000000000000000000000007FFFF8000
FFFF8000000000000000000000000FFFFF8000
FFFF8000000000000000000000001FFFFF0000
FFFF8000000000000000000000003FFFFE0000
FFFF8000000000000000000000007FFFFE0000
FFFF800000000000000000000000FFFFFC0000
FFFF800000000000000000000000FFFFFC0000
FFFF800000000000000000000001FFFFF80000
FFFF800000000000000000000003FFFFF80000
FFFF80000000000000000000000FFFFFF00000
FFFF80000000000000000000001FFFFFE00000
FFFF80000000000000000000003FFFFFE00000
FFFF80000000000000000000007FFFFFC00000
FFFF8000000000000000000001FFFFFF800000
FFFF8000000000000000000003FFFFFF000000
FFFF800000000000000000000FFFFFFF000000
FFFF800000000000000000001FFFFFFE000000
FFFF800000000000000000007FFFFFFC000000
FFFF80000000000000000001FFFFFFF8000000
FFFF8000000000000000000FFFFFFFF0000000
FFFF8000000000000000003FFFFFFFE0000000
FFFF800000000000000001FFFFFFFFC0000000
FFFF80000000000000001FFFFFFFFF80000000
FFFF8000000000000001FFFFFFFFFF00000000
FFFF80000000000001FFFFFFFFFFFE00000000
FFFF80000000001FFFFFFFFFFFFFFC00000000
FFFFFFFFFFFFFFFFFFFFFFFFFFFFF800000000
FFFFFFFFFFFFFFFFFFFFFFFFFFFFE000000000
FFFFFFFFFFFFFFFFFFFFFFFFFFFFC000000000
FFFFFFFFFFFFFFFFFFFFFFFFFFFF8000000000
FFFFFFFFFFFFFFFFFFFFFFFFFFFE0000000000
FFFFFFFFFFFFFFFFFFFFFFFFFFF80000000000
FFFFFFFFFFFFFFFFFFFFFFFFFFF00000000000
FFFFFFFFFFFFFFFFFFFFFFFFFFC00000000000
FFFFFFFFFFFFFFFFFFFFFFFFFF000000000000
FFFFFFFFFFFFFFFFFFFFFFFFFC000000000000
FFFFFFFFFFFFFFFFFFFFFFFFE0000000000000
FFFFFFFFFFFFFFFFFFFFFFFF00000000000000
FFFFFFFFFFFFFFFFFFFFFFF800000000000000
FFFFFFFFFFFFFFFFFFFFFF8000000000000000
FFFFFFFFFFFFFFFFFFFFF80000000000000000
FFFFFFFFFFFFFFFFFFFE000000000000000000
FFFFFFFFFFFFFFFFF800000000000000000000
ENDCHAR
STARTCHAR 0045
ENCODING 69
SWIDTH 537 0
DWIDTH 130 0
BBX 100 174 21 0
BITMAP
FFFFFFFFFFFFFFFFFFFFFFFFF0
FFFFFFFFFFFFFFFFFFFFFFFFF0
FFFFFFFFFFFFFFFFFFFFFFFFF0
FFFFFFFFFFFFFFFFFFFFFFFFF0
FFFFFFFFFFFFFFFFFFFFFFFFF0
FFFFFFFFFFFFFFFFFFFFFFFFF0
FFFFFFFFFFFFFFFFFFFFFFFFF0
FFFFFFFFFFFFFFFFFFFFFFFFF0
FFFFFFFFFFFFFFFFFFFFFFFFF0
FFFFFFFFFFFFFFFFFFFFFFFFF0
FFFFFFFFFFFFFFFFFFFFFFFFF0
FFFFFFFFFFFFFFFFFFFFFFFFF0
FFFFFFFFFFFFFFFFFFFFFFFFF0
FFFFFFFFFFFFFFFFFFFFFFFFF0
FFFFFFFFFFFFFFFFFFFFFFFFF0
FFFFFFFFFFFFFFFFFFFFFFFFF0
FFFFFFFFFFFFFFFFFFFFFFFFF0
FFFF8000000000000000000000
FFFF8000000000000000000000
FFFF8000000000000000000000
FFFF8000000000000000000000
FFFF8000000000000000000000
FFFF8000000000000000000000
FFFF8000000000000000000000
FFFF8000000000000000000000
FFFF8000000000000000000000
FFFF8000000000000000000000
FFFF8000000000000000000000
FFFF8000000000000000000000
FFFF8000000000000000000000
FFFF8000000000000000000000
FFFF8000000000000000000000
FFFF8000000000000000000000
FFFF8000000000000000000000
FFFF8000000000000000000000
FFFF8000000000000000000000
FFFF8000000000000000000000
FFFF8000000000000000000000
FFFF8000000000000000000000
FFFF8000000000000000000000
FFFF8000000000000000000000
FFFF8000000000000000000000
FFFF8000000000000000000000
FFFF8000000000000000000000
FFFF8000000000000000000000
FFFF8000000000000000000000
FFFF8000000000000000000000
FFFF8000000000000000000000
FFFF8000000000000000000000
FFFF8000000000000000000000
FFFF8000000000000000000000
FFFF8000000000000000000000
FFFF8000000000000000000000
FFFF8000000000000000000000
FFFF8000000000000000000000
FFFF8000000000000000000000
FFFF8000000000000000000000
FFFF8000000000000000000000
FFFF8000000000000000000000
FFFF8000000000000000000000
FFFF8000000000000000000000
FFFF8000000000000000000000
FFFF8000000000000000000000
FFFF8000000000000000000000
FFFF8000000000000000000000
FFFF8000000000000000000000
FFFF8000000000000000000000
FFFF8000000000000000000000
FFFF8000000000000000000000
FFFF8000000000000000000000
FFFF8000000000000000000000
FFFF8000000000000000000000
FFFFFFFFFFFFFFFFFFFFFFFFE0
FFFFFFFFFFFFFFFFFFFFFFFFE0
FFFFFFFFFFFFFFFFFFFFFFFFE0
FFFFFFFFFFFFFFFFFFFFFFFFE0
FFFFFFFFFFFFFFFFFFFFFFFFE0
FFFFFFFFFFFFFFFFFFFFFFFFE0
FFFFFFFFFFFFFFFFFFFFFFFFE0
FFFFFFFFFFFFFFFFFFFFFFFFE0
FFFFFFFFFFFFFFFFFFFFFFFFE0
FFFFFFFFFFFFFFFFFFFFFFFFE0
FFFFFFFFFFFFFFFFFFFFFFFFE0
FFFFFFFFFFFFFFFFFFFFFFFFE0
FFFFFFFFFFFFFFFFFFFFFFFFE0
FFFFFFFFFFFFFFFFFFFFFFFFE0
FFFFFFFFFFFFFFFFFFFFFFFFE0
FFFFFFFFFFFFFFFFFFFFFFFFE0
FFFFFFFFFFFFFFFFFFFFFFFFE0
FFFF8000000000000000000000
FFFF8000000000000000000000
FFFF8000000000000000000000
FFFF8000000000000000000000
FFFF8000000000000000000000
FFFF8000000000000000000000
FFFF8000000000000000000000
FFFF8000000000000000000000
FFFF8000000000000000000000
FFFF8000000000000000000000
FFFF8000000000000000000000
FFFF8000000000000000000000
FFFF8000000000000000000000
FFFF8000000000000000000000
FFFF8000000000000000000000
FFFF8000000000000000000000
FFFF8000000000000000000000
FFFF8000000000000000000000
FFFF8000000000000000000000
FFFF8000000000000000000000
FFFF8000000000000000000000
FFFF8000000000000000000000
FFFF8000000000000000000000
FFFF8000000000000000000000
FFFF8000000000000000000000
FFFF8000000000000000000000
FFFF8000000000000000000000
FFFF8000000000000000000000
FFFF8000000000000000000000
FFFF8000000000000000000000
FFFF8000000000000000000000
FFFF8000000000000000000000
FFFF8000000000000000000000
FFFF8000000000000000000000
FFFF8000000000000000000000
FFFF8000000000000000000000
FFFF8000000000000000000000
FFFF8000000000000000000000
FFFF8000000000000000000000
FFFF8000000000000000000000
FFFF8000000000000000000000
FFFF8000000000000000000000
FFFF8000000000000000000000
FFFF8000000000000000000000
FFFF8000000000000000000000
FFFF8000000000000000000000
FFFF8000000000000000000000
FFFF8000000000000000000000
FFFF8000000000000000000000
FFFF8000000000000000000000
FFFF8000000000000000000000
FFFF8000000000000000000000
FFFF8000000000000000000000
FFFF8000000000000000000000
FFFF8000000000000000000000
FFFF8000000000000000000000
FFFF8000000000000000000000
FFFF8000000000000000000000
FFFF8000000000000000000000
FFFF8000000000000000000000
FFFF8000000000000000000000
FFFF8000000000000000000000
FFFF8000000000000000000000
FFFF8000000000000000000000
FFFF8000000000000000000000
FFFF8000000000000000000000
FFFF8000000000000000000000
FFFF8000000000000000000000
FFFFFFFFFFFFFFFFFFFFFFFFE0
FFFFFFFFFFFFFFFFFFFFFFFFE0
FFFFFFFFFFFFFFFFFFFFFFFFE0
FFFFFFFFFFFFFFFFFFFFFFFFE0
FFFFFFFFFFFFFFFFFFFFFFFFE0
FFFFFFFFFFFFFFFFFFFFFFFFE0
FFFFFFFFFFFFFFFFFFFFFFFFE0
FFFFFFFFFFFFFFFFFFFFFFFFE0
FFFFFFFFFFFFFFFFFFFFFFFFE0
FFFFFFFFFFFFFFFFFFFFFFFFE0
FFFFFFFFFFFFFFFFFFFFFFFFE0
FFFFFFFFFFFFFFFFFFFFFFFFE0
FFFFFFFFFFFFFFFFFFFFFFFFE0
FFFFFFFFFFFFFFFFFFFFFFFFE0
FFFFFFFFFFFFFFFFFFFFFFFFE0
FFFFFFFFFFFFFFFFFFFFFFFFE0
FFFFFFFFFFFFFFFFFFFFFFFFE0
ENDCHAR
STARTCHAR 0046
ENCODING 70
SWIDTH 483 0
DWIDTH 117 0
BBX 87 174 21 0
BITMAP
FFFFFFFFFFFFFFFFFFFFFE
FFFFFFFFFFFFFFFFFFFFFE
FFFFFFFFFFFFFFFFFFFFFE
FFFFFFFFFFFFFFFFFFFFFE
FFFFFFFFFFFFFFFFFFFFFE
FFFFFFFFFFFFFFFFFFFFFE
FFFFFFFFFFFFFFFFFFFFFE
FFFFFFFFFFFFFFFFFFFFFE
FFFFFFFFFFFFFFFFFFFFFE
FFFFFFFFFFFFFFFFFFFFFE
FFFFFFFFFFFFFFFFFFFFFE
FFFFFFFFFFFFFFFFFFFFFE
FFFFFFFFFFFFFFFFFFFFFE
FFFFFFFFFFFFFFFFFFFFFE
FFFFFFFFFFFFFFFFFFFFFE
FFFFFFFFFFFFFFFFFFFFFE
FFFFFFFFFFFFFFFFFFFFFE
FFFF800000000000000000
FFFF800000000000000000
FFFF800000000000000000
FFFF800000000000000000
FFFF800000000000000000
FFFF800000000000000000
FFFF800000000000000000
FFFF800000000000000000
FFFF800000000000000000
FFFF800000000000000000
FFFF800000000000000000
FFFF800000000000000000
FFFF800000000000000000
FFFF800000000000000000
FFFF800000000000000000
FFFF800000000000000000
FFFF800000000000000000
FFFF800000000000000000
FFFF800000000000000000
FFFF800000000000000000
FFFF800000000000000000
FFFF800000000000000000
FFFF800000000000000000
FFFF800000000000000000
FFFF800000000000000000
FFFF800000000000000000
FFFF800000000000000000
FFFF800000000000000000
FFFF800000000000000000
FFFF800000000000000000
FFFF800000000000000000
FFFF800000000000000000
FFFF800000000000000000
FFFF800000000000000000
FFFF800000000000000000
FFFF800000000000000000
FFFF800000000000000000
FFFF800000000000000000
FFFF800000000000000000
FFFF800000000000000000
FFFF800000000000000000
FFFF800000000000000000
FFFF800000000000000000
FFFF800000000000000000
FFFF800000000000000000
FFFF800000000000000000
FFFF800000000000000000
FFFF800000000000000000
FFFF800000000000000000
FFFF800000000000000000
FFFF800000000000000000
FFFF800000000000000000
FFFF800000000000000000
FFFF800000000000000000
FFFF800000000000000000
FFFFFFFFFFFFFFFFFFFFFE
FFFFFFFFFFFFFFFFFFFFFE
FFFFFFFFFFFFFFFFFFFFFE
FFFFFFFFFFFFFFFFFFFFFE
FFFFFFFFFFFFFFFFFFFFFE
FFFFFFFFFFFFFFFFFFFFFE
FFFFFFFFFFFFFFFFFFFFFE
FFFFFFFFFFFFFFFFFFFFFE
FFFFFFFFFFFFFFFFFFFFFE
FFFFFFFFFFFFFFFFFFFFFE
FFFFFFFFFFFFFFFFFFFFFE
FFFFFFFFFFFFFFFFFFFFFE
FFFFFFFFFFFFFFFFFFFFFE
FFFFFFFFFFFFFFFFFFFFFE
FFFFFFFFFFFFFFFFFFFFFE
FFFFFFFFFFFFFFFFFFFFFE
FFFFFFFFFFFFFFFFFFFFFE
FFFF800000000000000000
FFFF800000000000000000
FFFF800000000000000000
FFFF800000000000000000
FFFF800000000000000000
FFFF800000000000000000
FFFF800000000000000000
FFFF800000000000000000
FFFF800000000000000000
FFFF800000000000000000
FFFF800000000000000000
FFFF800000000000000000
FFFF800000000000000000
FFFF800000000000000000
FFFF800000000000000000
FFFF800000000000000000
FFFF800000000000000000
FFFF800000000000000000
FFFF800000000000000000
FFFF800000000000000000
FFFF800000000000000000
FFFF800000000000000000
FFFF800000000000000000
FFFF800000000000000000
FFFF800000000000000000
FFFF800000000000000000
FFFF800000000000000000
FFFF800000000000000000
FFFF800000000000000000
FFFF800000000000000000
FFFF800000000000000000
FFFF800000000000000000
FFFF800000000000000000
FFFF800000000000000000
FFFF800000000000000000
FFFF800000000000000000
FFFF800000000000000000
FFFF800000000000000000
FFFF800000000000000000
FFFF800000000000000000
FFFF800000000000000000
FFFF800000000000000000
FFFF800000000000000000
FFFF800000000000000000
FFFF800000000000000000
FFFF800000000000000000
FFFF800000000000000000
FFFF800000000000000000
FFFF800000000000000000
FFFF800000000000000000
FFFF800000000000000000
FFFF800000000000000000
FFFF800000000000000000
FFFF800000000000000000
FFFF800000000000000000
FFFF800000000000000000
FFFF800000000000000000
FFFF800000000000000000
FFFF800000000000000000
FFFF800000000000000000
FFFF800000000000000000
FFFF800000000000000000
FFFF800000000000000000
FFFF800000000000000000
FFFF800000000000000000
FFFF800000000000000000
FFFF800000000000000000
FFFF800000000000000000
FFFF800000000000000000
FFFF800000000000000000
FFFF800000000000000000
FFFF800000000000000000
FFFF800000000000000000
FFFF800000000000000000
FFFF800000000000000000
FFFF800000000000000000
FFFF800000000000000000
FFFF800000000000000000
FFFF800000000000000000
FFFF800000000000000000
FFFF800000000000000000
FFFF800000000000000000
FFFF800000000000000000
FFFF800000000000000000
FFFF800000000000000000
ENDCHAR
STARTCHAR 0047
ENCODING 71
SWIDTH 871 0
DWIDTH 211 0
BBX 185 182 14 -4
BITMAP
0000000000000000000007FFFFC000000000000000000000
00000000000000000007FFFFFFFFC0000000000000000000
000000000000000000FFFFFFFFFFFE000000000000000000
00000000000000000FFFFFFFFFFFFFE00000000000000000
0000000000000000FFFFFFFFFFFFFFFE0000000000000000
0000000000000007FFFFFFFFFFFFFFFFC000000000000000
000000000000003FFFFFFFFFFFFFFFFFF800000000000000
00000000000000FFFFFFFFFFFFFFFFFFFE00000000000000
00000000000007FFFFFFFFFFFFFFFFFFFFC0000000000000
0000000000001FFFFFFFFFFFFFFFFFFFFFF0000000000000
0000000000007FFFFFFFFFFFFFFFFFFFFFFC000000000000
000000000001FFFFFFFFFFFFFFFFFFFFFFFF000000000000
000000000007FFFFFFFFFFFFFFFFFFFFFFFFC00000000000
00000000000FFFFFFFFFFFFFFFFFFFFFFFFFF00000000000
00000000003FFFFFFFFFFFFFFFFFFFFFFFFFFC0000000000
00000000007FFFFFFFFFFFFFFFFFFFFFFFFFFF0000000000
0000000001FFFFFFFFFFFFFFFFFFFFFFFFFFFF8000000000
0000000003FFFFFFFFFFFE00007FFFFFFFFFFFE000000000
000000000FFFFFFFFFFF80000000FFFFFFFFFFF000000000
000000001FFFFFFFFFF00000000007FFFFFFFFFC00000000
000000003FFFFFFFFF800000000000FFFFFFFFFE00000000
00000000FFFFFFFFF80000000000000FFFFFFFFF80000000
00000001FFFFFFFFE000000000000003FFFFFFFFC0000000
00000003FFFFFFFF00000000000000007FFFFFFFE0000000
00000007FFFFFFFC00000000000000001FFFFFFFF8000000
0000000FFFFFFFF0000000000000000007FFFFFFFC000000
0000001FFFFFFFC0000000000000000001FFFFFFFE000000
0000003FFFFFFF000000000000000000007FFFFFFF000000
0000007FFFFFFC000000000000000000001FFFFFFFC00000
000000FFFFFFF80000000000000000000007FFFFFFE00000
000001FFFFFFE00000000000000000000003FFFFFFF00000
000003FFFFFFC00000000000000000000000FFFFFFF80000
000007FFFFFF0000000000000000000000007FFFFFFC0000
00000FFFFFFE0000000000000000000000001FFFFFFE0000
00000FFFFFF80000000000000000000000000FFFFFFC0000
00001FFFFFF000000000000000000000000003FFFFF80000
00003FFFFFE000000000000000000000000001FFFFF00000
00007FFFFFC000000000000000000000000000FFFFE00000
00007FFFFF80000000000000000000000000003FFFC00000
0000FFFFFF00000000000000000000000000001FFF800000
0001FFFFFE00000000000000000000000000000FFF000000
0001FFFFFC000000000000000000000000000007FE000000
0003FFFFF8000000000000000000000000000003FC000000
0007FFFFF0000000000000000000000000000001F8000000
0007FFFFE0000000000000000000000000000000F0000000
000FFFFFC000000000000000000000000000000060000000
000FFFFF8000000000000000000000000000000000000000
001FFFFF8000000000000000000000000000000000000000
003FFFFF0000000000000000000000000000000000000000
003FFFFE0000000000000000000000000000000000000000
007FFFFC0000000000000000000000000000000000000000
007FFFFC0000000000000000000000000000000000000000
00FFFFF80000000000000000000000000000000000000000
00FFFFF80000000000000000000000000000000000000000
00FFFFF00000000000000000000000000000000000000000
01FFFFE00000000000000000000000000000000000000000
01FFFFE00000000000000000000000000000000000000000
03FFFFC00000000000000000000000000000000000000000
03FFFFC00000000000000000000000000000000000000000
07FFFF800000000000000000000000000000000000000000
07FFFF800000000000000000000000000000000000000000
07FFFF000000000000000000000000000000000000000000
0FFFFF000000000000000000000000000000000000000000
0FFFFE000000000000000000000000000000000000000000
0FFFFE000000000000000000000000000000000000000000
0FFFFE000000000000000000000000000000000000000000
1FFFFC000000000000000000000000000000000000000000
1FFFFC000000000000000000000000000000000000000000
1FFFFC000000000000000000000000000000000000000000
3FFFF8000000000000000000000000000000000000000000
3FFFF8000000000000000000000000000000000000000000
3FFFF8000000000000000000000000000000000000000000
3FFFF0000000000000000000000000000000000000000000
3FFFF0000000000000000000000000000000000000000000
7FFFF0000000000000000000000000000000000000000000
7FFFF0000000000000000000000000000000000000000000
7FFFE0000000000000000000000000000000000000000000
7FFFE0000000000000000000000000000000000000000000
7FFFE0000000000000000000000000000000000000000000
7FFFE0000000000000000000000000000000000000000000
7FFFE0000000000000000000000000000000000000000000
FFFFE0000000000000000000000000000000000000000000
FFFFC0000000000000000000000000000000000000000000
FFFFC0000000000000000000000000000000000000000000
FFFFC0000000000000000000000000000000000000000000
FFFFC0000000000000000000000000000000000000000000
FFFFC0000000000000000000000000000000000000000000
FFFFC0000000000000000000000000000000000000000000
FFFFC0000000000000000000000000000000000000000000
FFFFC0000000000000000000000000000000000000000000
FFFFC0000000000000000000000000000000000000000000
FFFFC0000000000000000000000000000000000000000000
FFFFC0000000000000000000000000000000000000000000
FFFFC0000000000000000000000000000000000000000000
FFFFC00000000000000000000003FFFFFFFFFFFFFFFFFF80
FFFFC00000000000000000000003FFFFFFFFFFFFFFFFFF80
FFFFC00000000000000000000003FFFFFFFFFFFFFFFFFF80
FFFFC00000000000000000000003FFFFFFFFFFFFFFFFFF80
FFFFC00000000000000000000003FFFFFFFFFFFFFFFFFF80
FFFFE00000000000000000000003FFFFFFFFFFFFFFFFFF80
FFFFE00000000000000000000003FFFFFFFFFFFFFFFFFF80
7FFFE00000000000000000000003FFFFFFFFFFFFFFFFFF80
7FFFE00000000000000000000003FFFFFFFFFFFFFFFFFF80
7FFFE00000000000000000000003FFFFFFFFFFFFFFFFFF80
7FFFE00000000000000000000003FFFFFFFFFFFFFFFFFF80
7FFFF00000000000000000000003FFFFFFFFFFFFFFFFFF00
7FFFF00000000000000000000003FFFFFFFFFFFFFFFFFF00
7FFFF00000000000000000000003FFFFFFFFFFFFFFFFFF00
3FFFF00000000000000000000003FFFFFFFFFFFFFFFFFF00
3FFFF80000000000000000000003FFFFFFFFFFFFFFFFFF00
3FFFF80000000000000000000003FFFFFFFFFFFFFFFFFF00
3FFFF8000000000000000000000000000000000003FFFF00
3FFFFC000000000000000000000000000000000003FFFF00
1FFFFC000000000000000000000000000000000003FFFE00
1FFFFC000000000000000000000000000000000007FFFE00
1FFFFE000000000000000000000000000000000007FFFE00
0FFFFE000000000000000000000000000000000007FFFE00
0FFFFE000000000000000000000000000000000007FFFE00
0FFFFF00000000000000000000000000000000000FFFFC00
0FFFFF00000000000000000000000000000000000FFFFC00
07FFFF80000000000000000000000000000000000FFFFC00
07FFFF80000000000000000000000000000000000FFFFC00
03FFFFC0000000000000000000000000000000001FFFF800
03FFFFC0000000000000000000000000000000001FFFF800
03FFFFE0000000000000000000000000000000001FFFF800
01FFFFE0000000000000000000000000000000003FFFF800
01FFFFF0000000000000000000000000000000003FFFF000
00FFFFF8000000000000000000000000000000007FFFF000
00FFFFF8000000000000000000000000000000007FFFF000
007FFFFC000000000000000000000000000000007FFFE000
007FFFFC00000000000000000000000000000000FFFFE000
003FFFFE00000000000000000000000000000000FFFFC000
003FFFFF00000000000000000000000000000001FFFFC000
001FFFFF80000000000000000000000000000003FFFFC000
001FFFFF80000000000000000000000000000003FFFF8000
000FFFFFC0000000000000000000000000000007FFFF8000
000FFFFFE0000000000000000000000000000007FFFF0000
0007FFFFF000000000000000000000000000000FFFFF0000
0003FFFFF800000000000000000000000000001FFFFE0000
0003FFFFFC00000000000000000000000000003FFFFE0000
0001FFFFFE00000000000000000000000000003FFFFC0000
0000FFFFFF00000000000000000000000000007FFFFC0000
0000FFFFFF8000000000000000000000000000FFFFF80000
00007FFFFFC000000000000000000000000001FFFFF80000
00003FFFFFE000000000000000000000000003FFFFF00000
00003FFFFFF000000000000000000000000007FFFFE00000
00001FFFFFF80000000000000000000000000FFFFFE00000
00000FFFFFFC0000000000000000000000001FFFFFC00000
000007FFFFFF0000000000000000000000003FFFFF800000
000003FFFFFF8000000000000000000000007FFFFF800000
000001FFFFFFC00000000000000000000001FFFFFF000000
000000FFFFFFF00000000000000000000003FFFFFE000000
000000FFFFFFFC0000000000000000000007FFFFFC000000
0000007FFFFFFE000000000000000000001FFFFFFC000000
0000003FFFFFFF800000000000000000003FFFFFF8000000
0000001FFFFFFFE0000000000000000000FFFFFFF0000000
0000000FFFFFFFF8000000000000000003FFFFFFE0000000
00000007FFFFFFFE00000000000000000FFFFFFFC0000000
00000001FFFFFFFF80000000000000003FFFFFFF80000000
00000000FFFFFFFFF000000000000000FFFFFFFF00000000
000000007FFFFFFFFC00000000000007FFFFFFFE00000000
000000003FFFFFFFFF8000000000003FFFFFFFFC00000000
000000001FFFFFFFFFF80000000001FFFFFFFFF800000000
0000000007FFFFFFFFFFC00000001FFFFFFFFFE000000000
0000000003FFFFFFFFFFFF80000FFFFFFFFFFFC000000000
0000000000FFFFFFFFFFFFFFFFFFFFFFFFFFFF8000000000
00000000007FFFFFFFFFFFFFFFFFFFFFFFFFFF0000000000
00000000001FFFFFFFFFFFFFFFFFFFFFFFFFFC0000000000
00000000000FFFFFFFFFFFFFFFFFFFFFFFFFF80000000000
000000000003FFFFFFFFFFFFFFFFFFFFFFFFE00000000000
000000000000FFFFFFFFFFFFFFFFFFFFFFFF800000000000
0000000000003FFFFFFFFFFFFFFFFFFFFFFF000000000000
0000000000000FFFFFFFFFFFFFFFFFFFFFFC000000000000
00000000000003FFFFFFFFFFFFFFFFFFFFF0000000000000
00000000000000FFFFFFFFFFFFFFFFFFFFC0000000000000
000000000000001FFFFFFFFFFFFFFFFFFE00000000000000
0000000000000003FFFFFFFFFFFFFFFFF000000000000000
00000000000000007FFFFFFFFFFFFFFF8000000000000000
00000000000000000FFFFFFFFFFFFFFC0000000000000000
0000000000000000007FFFFFFFFFFFC00000000000000000
00000000000000000003FFFFFFFFF8000000000000000000
0000000000000000000003FFFFF800000000000000000000
ENDCHAR
STARTCHAR 0048
ENCODING 72
SWIDTH 681 0
DWIDTH 165 0
BBX 123 174 21 0
BITMAP
FFFF80000000000000000000003FFFE0
FFFF80000000000000000000003FFFE0
FFFF80000000000000000000003FFFE0
FFFF80000000000000000000003FFFE0
FFFF80000000000000000000003FFFE0
FFFF80000000000000000000003FFFE0
FFFF80000000000000000000003FFFE0
FFFF80000000000000000000003FFFE0
FFFF80000000000000000000003FFFE0
FFFF80000000000000000000003FFFE0
FFFF80000000000000000000003FFFE0
FFFF80000000000000000000003FFFE0
FFFF80000000000000000000003FFFE0
FFFF80000000000000000000003FFFE0
FFFF80000000000000000000003FFFE0
FFFF80000000000000000000003FFFE0
FFFF80000000000000000000003FFFE0
FFFF80000000000000000000003FFFE0
FFFF80000000000000000000003FFFE0
FFFF80000000000000000000003FFFE0
FFFF80000000000000000000003FFFE0
FFFF80000000000000000000003FFFE0
FFFF80000000000000000000003FFFE0
FFFF80000000000000000000003FFFE0
FFFF80000000000000000000003FFFE0
FFFF80000000000000000000003FFFE0
FFFF80000000000000000000003FFFE0
FFFF80000000000000000000003FFFE0
FFFF80000000000000000000003FFFE0
FFFF80000000000000000000003FFFE0
FFFF80000000000000000000003FFFE0
FFFF80000000000000000000003FFFE0
FFFF80000000000000000000003FFFE0
FFFF80000000000000000000003FFFE0
FFFF80000000000000000000003FFFE0
FFFF80000000000000000000003FFFE0
FFFF80000000000000000000003FFFE0
FFFF80000000000000000000003FFFE0
FFFF80000000000000000000003FFFE0
FFFF80000000000000000000003FFFE0
FFFF80000000000000000000003FFFE0
FFFF80000000000000000000003FFFE0
FFFF80000000000000000000003FFFE0
FFFF80000000000000000000003FFFE0
FFFF80000000000000000000003FFFE0
FFFF80000000000000000000003FFFE0
FFFF80000000000000000000003FFFE0
FFFF80000000000000000000003FFFE0
FFFF80000000000000000000003FFFE0
FFFF80000000000000000000003FFFE0
FFFF80000000000000000000003FFFE0
FFFF80000000000000000000003FFFE0
FFFF80000000000000000000003FFFE0
FFFF80000000000000000000003FFFE0
FFFF80000000000000000000003FFFE0
FFFF80000000000000000000003FFFE0
FFFF80000000000000000000003FFFE0
FFFF80000000000000000000003FFFE0
FFFF80000000000000000000003FFFE0
FFFF80000000000000000000003FFFE0
FFFF80000000000000000000003FFFE0
FFFF80000000000000000000003FFFE0
FFFF80000000000000000000003FFFE0
FFFF80000000000000000000003FFFE0
FFFF80000000000000000000003FFFE0
FFFF80000000000000000000003FFFE0
FFFF80000000000000000000003FFFE0
FFFF80000000000000000000003FFFE0
FFFF80000000000000000000003FFFE0
FFFF80000000000000000000003FFFE0
FFFF80000000000000000000003FFFE0
FFFF80000000000000000000003FFFE0
FFFF80000000000000000000003FFFE0
FFFFFFFFFFFFFFFFFFFFFFFFFFFFFFE0
FFFFFFFFFFFFFFFFFFFFFFFFFFFFFFE0
FFFFFFFFFFFFFFFFFFFFFFFFFFFFFFE0
FFFFFFFFFFFFFFFFFFFFFFFFFFFFFFE0
FFFFFFFFFFFFFFFFFFFFFFFFFFFFFFE0
FFFFFFFFFFFFFFFFFFFFFFFFFFFFFFE0
FFFFFFFFFFFFFFFFFFFFFFFFFFFFFFE0
FFFFFFFFFFFFFFFFFFFFFFFFFFFFFFE0
FFFFFFFFFFFFFFFFFFFFFFFFFFFFFFE0
FFFFFFFFFFFFFFFFFFFFFFFFFFFFFFE0
FFFFFFFFFFFFFFFFFFFFFFFFFFFFFFE0
FFFFFFFFFFFFFFFFFFFFFFFFFFFFFFE0
FFFFFFFFFFFFFFFFFFFFFFFFFFFFFFE0
FFFFFFFFFFFFFFFFFFFFFFFFFFFFFFE0
FFFFFFFFFFFFFFFFFFFFFFFFFFFFFFE0
FFFFFFFFFFFFFFFFFFFFFFFFFFFFFFE0
FFFFFFFFFFFFFFFFFFFFFFFFFFFFFFE0
FFFF80000000000000000000003FFFE0
FFFF80000000000000000000003FFFE0
FFFF80000000000000000000003FFFE0
FFFF80000000000000000000003FFFE0
FFFF80000000000000000000003FFFE0
FFFF80000000000000000000003FFFE0
FFFF80000000000000000000003FFFE0
FFFF80000000000000000000003FFFE0
FFFF80000000000000000000003FFFE0
FFFF80000000000000000000003FFFE0
FFFF80000000000000000000003FFFE0
FFFF80000000000000000000003FFFE0
FFFF80000000000000000000003FFFE0
FFFF80000000000000000000003FFFE0
FFFF80000000000000000000003FFFE0
FFFF80000000000000000000003FFFE0
FFFF80000000000000000000003FFFE0
FFFF80000000000000000000003FFFE0
FFFF80000000000000000000003FFFE0
FFFF80000000000000000000003FFFE0
FFFF80000000000000000000003FFFE0
FFFF80000000000000000000003FFFE0
FFFF80000000000000000000003FFFE0
FFFF80000000000000000000003FFFE0
FFFF80000000000000000000003FFFE0
FFFF80000000000000000000003FFFE0
FFFF80000000000000000000003FFFE0
FFFF80000000000000000000003FFFE0
FFFF80000000000000000000003FFFE0
FFFF80000000000000000000003FFFE0
FFFF80000000000000000000003FFFE0
FFFF80000000000000000000003FFFE0
FFFF80000000000000000000003FFFE0
FFFF80000000000000000000003FFFE0
FFFF80000000000000000000003FFFE0
FFFF80000000000000000000003FFFE0
FFFF80000000000000000000003FFFE0
FFFF80000000000000000000003FFFE0
FFFF80000000000000000000003FFFE0
FFFF80000000000000000000003FFFE0
FFFF80000000000000000000003FFFE0
FFFF80000000000000000000003FFFE0
FFFF80000000000000000000003FFFE0
FFFF80000000000000000000003FFFE0
FFFF80000000000000000000003FFFE0
FFFF80000000000000000000003FFFE0
FFFF80000000000000000000003FFFE0
FFFF80000000000000000000003FFFE0
FFFF80000000000000000000003FFFE0
FFFF80000000000000000000003FFFE0
FFFF80000000000000000000003FFFE0
FFFF80000000000000000000003FFFE0
FFFF80000000000000000000003FFFE0
FFFF80000000000000000000003FFFE0
FFFF80000000000000000000003FFFE0
FFFF80000000000000000000003FFFE0
FFFF80000000000000000000003FFFE0
FFFF80000000000000000000003FFFE0
FFFF80000000000000000000003FFFE0
FFFF80000000000000000000003FFFE0
FFFF80000000000000000000003FFFE0
FFFF80000000000000000000003FFFE0
FFFF80000000000000000000003FFFE0
FFFF80000000000000000000003FFFE0
FFFF80000000000000000000003FFFE0
FFFF80000000000000000000003FFFE0
FFFF80000000000000000000003FFFE0
FFFF80000000000000000000003FFFE0
FFFF80000000000000000000003FFFE0
FFFF80000000000000000000003FFFE0
FFFF80000000000000000000003FFFE0
FFFF80000000000000000000003FFFE0
FFFF80000000000000000000003FFFE0
FFFF80000000000000000000003FFFE0
FFFF80000000000000000000003FFFE0
FFFF80000000000000000000003FFFE0
FFFF80000000000000000000003FFFE0
FFFF80000000000000000000003FFFE0
FFFF80000000000000000000003FFFE0
FFFF80000000000000000000003FFFE0
FFFF80000000000000000000003FFFE0
FFFF80000000000000000000003FFFE0
FFFF80000000000000000000003FFFE0
FFFF80000000000000000000003FFFE0
ENDCHAR
STARTCHAR 0049
ENCODING 73
SWIDTH 227 0
DWIDTH 55 0
BBX 17 174 19 0
BITMAP
FFFF80
FFFF80
FFFF80
FFFF80
FFFF80
FFFF80
FFFF80
FFFF80
FFFF80
FFFF80
FFFF80
FFFF80
FFFF80
FFFF80
FFFF80
FFFF80
FFFF80
FFFF80
FFFF80
FFFF80
FFFF80
FFFF80
FFFF80
FFFF80
FFFF80
FFFF80
FFFF80
FFFF80
FFFF80
FFFF80
FFFF80
FFFF80
FFFF80
FFFF80
FFFF80
FFFF80
FFFF80
FFFF80
FFFF80
FFFF80
FFFF80
FFFF80
FFFF80
FFFF80
FFFF80
FFFF80
FFFF80
FFFF80
FFFF80
FFFF80
FFFF80
FFFF80
FFFF80
FFFF80
FFFF80
FFFF80
FFFF80
FFFF80
FFFF80
FFFF80
FFFF80
FFFF80
FFFF80
FFFF80
FFFF80
FFFF80
FFFF80
FFFF80
FFFF80
FFFF80
FFFF80
FFFF80
FFFF80
FFFF80
FFFF80
FFFF80
FFFF80
FFFF80
FFFF80
FFFF80
FFFF80
FFFF80
FFFF80
FFFF80
FFFF80
FFFF80
FFFF80
FFFF80
FFFF80
FFFF80
FFFF80
FFFF80
FFFF80
FFFF80
FFFF80
FFFF80
FFFF80
FFFF80
FFFF80
FFFF80
FFFF80
FFFF80
FFFF80
FFFF80
FFFF80
FFFF80
FFFF80
FFFF80
FFFF80
FFFF80
FFFF80
FFFF80
FFFF80
FFFF80
FFFF80
FFFF80
FFFF80
FFFF80
FFFF80
FFFF80
FFFF80
FFFF80
FFFF80
FFFF80
FFFF80
FFFF80
FFFF80
FFFF80
FFFF80
FFFF80
FFFF80
FFFF80
FFFF80
FFFF80
FFFF80
FFFF80
FFFF80
FFFF80
FFFF80
FFFF80
FFFF80
FFFF80
FFFF80
FFFF80
FFFF80
FFFF80
FFFF80
FFFF80
FFFF80
FFFF80
FFFF80
FFFF80
FFFF80
FFFF80
FFFF80
FFFF80
FFFF80
FFFF80
FFFF80
FFFF80
FFFF80
FFFF80
FFFF80
FFFF80
FFFF80
FFFF80
FFFF80
FFFF80
FFFF80
FFFF80
FFFF80
FFFF80
FFFF80
FFFF80
ENDCHAR
STARTCHAR 004A
ENCODING 74
SWIDTH 483 0
DWIDTH 117 0
BBX 85 178 11 -4
BITMAP
00000000000000000FFFF8
00000000000000000FFFF8
00000000000000000FFFF8
00000000000000000FFFF8
00000000000000000FFFF8
00000000000000000FFFF8
00000000000000000FFFF8
00000000000000000FFFF8
00000000000000000FFFF8
00000000000000000FFFF8
00000000000000000FFFF8
00000000000000000FFFF8
00000000000000000FFFF8
00000000000000000FFFF8
00000000000000000FFFF8
00000000000000000FFFF8
00000000000000000FFFF8
00000000000000000FFFF8
00000000000000000FFFF8
00000000000000000FFFF8
00000000000000000FFFF8
00000000000000000FFFF8
00000000000000000FFFF8
00000000000000000FFFF8
00000000000000000FFFF8
00000000000000000FFFF8
00000000000000000FFFF8
00000000000000000FFFF8
00000000000000000FFFF8
00000000000000000FFFF8
00000000000000000FFFF8
00000000000000000FFFF8
00000000000000000FFFF8
00000000000000000FFFF8
00000000000000000FFFF8
00000000000000000FFFF8
00000000000000000FFFF8
00000000000000000FFFF8
00000000000000000FFFF8
00000000000000000FFFF8
00000000000000000FFFF8
00000000000000000FFFF8
00000000000000000FFFF8
00000000000000000FFFF8
00000000000000000FFFF8
00000000000000000FFFF8
00000000000000000FFFF8
00000000000000000FFFF8
00000000000000000FFFF8
00000000000000000FFFF8
00000000000000000FFFF8
00000000000000000FFFF8
00000000000000000FFFF8
00000000000000000FFFF8
00000000000000000FFFF8
00000000000000000FFFF8
00000000000000000FFFF8
00000000000000000FFFF8
00000000000000000FFFF8
00000000000000000FFFF8
00000000000000000FFFF8
00000000000000000FFFF8
00000000000000000FFFF8
00000000000000000FFFF8
00000000000000000FFFF8
00000000000000000FFFF8
00000000000000000FFFF8
00000000000000000FFFF8
00000000000000000FFFF8
00000000000000000FFFF8
00000000000000000FFFF8
00000000000000000FFFF8
00000000000000000FFFF8
00000000000000000FFFF8
00000000000000000FFFF8
00000000000000000FFFF8
00000000000000000FFFF8
00000000000000000FFFF8
00000000000000000FFFF8
00000000000000000FFFF8
00000000000000000FFFF8
00000000000000000FFFF8
00000000000000000FFFF8
00000000000000000FFFF8
00000000000000000FFFF8
00000000000000000FFFF8
00000000000000000FFFF8
00000000000000000FFFF8
00000000000000000FFFF8
00000000000000000FFFF8
00000000000000000FFFF8
00000000000000000FFFF8
00000000000000000FFFF8
00000000000000000FFFF8
00000000000000000FFFF8
00000000000000000FFFF8
00000000000000000FFFF8
00000000000000000FFFF8
00000000000000000FFFF8
00000000000000000FFFF8
00000000000000000FFFF8
00000000000000000FFFF8
00000000000000000FFFF8
00000000000000000FFFF8
00000000000000000FFFF8
00000000000000000FFFF8
00000000000000000FFFF8
00000000000000000FFFF8
00000000000000000FFFF8
00000000000000000FFFF8
00000000000000000FFFF8
00000000000000000FFFF8
00000000000000000FFFF8
00000000000000000FFFF8
00000000000000000FFFF8
00000000000000000FFFF8
00000000000000000FFFF8
00000000000000000FFFF8
00000000000000000FFFF8
00000000000000000FFFF8
00000000000000000FFFF8
00000000000000000FFFF8
00000000000000000FFFF8
00000000000000000FFFF8
00000000000000000FFFF8
00000000000000000FFFF8
00000000000000000FFFF8
00000000000000000FFFF8
00000000000000000FFFF8
00000000000000000FFFF8
00000000000000000FFFF8
00000000000000000FFFF8
00000000000000001FFFF8
00000000000000001FFFF8
00000000000000001FFFF8
00000000000000001FFFF0
00000000000000001FFFF0
00000000000000001FFFF0
00000000000000001FFFF0
00000000000000001FFFF0
00000000000000001FFFF0
00000000000000003FFFF0
00000000000000003FFFF0
00000000000000003FFFF0
00000000000000003FFFE0
00000000000000007FFFE0
00400000000000007FFFE0
00F0000000000000FFFFE0
00F8000000000000FFFFE0
01FE000000000001FFFFC0
03FF800000000001FFFFC0
03FFC00000000003FFFFC0
07FFF00000000007FFFF80
0FFFFC000000000FFFFF80
1FFFFF000000001FFFFF80
1FFFFFC00000003FFFFF00
3FFFFFF00000007FFFFF00
7FFFFFFE000000FFFFFE00
7FFFFFFF800003FFFFFE00
FFFFFFFFE0000FFFFFFC00
7FFFFFFFFE00FFFFFFFC00
3FFFFFFFFFFFFFFFFFF800
1FFFFFFFFFFFFFFFFFF000
07FFFFFFFFFFFFFFFFF000
03FFFFFFFFFFFFFFFFE000
00FFFFFFFFFFFFFFFFC000
007FFFFFFFFFFFFFFF8000
001FFFFFFFFFFFFFFF0000
000FFFFFFFFFFFFFFE0000
0003FFFFFFFFFFFFFC0000
0000FFFFFFFFFFFFF80000
00003FFFFFFFFFFFE00000
00000FFFFFFFFFFF800000
000003FFFFFFFFFF000000
0000007FFFFFFFFC000000
0000001FFFFFFFE0000000
00000001FFFFFF00000000
000000000FFFC000000000
ENDCHAR
STARTCHAR 004B
ENCODING 75
SWIDTH 590 0
DWIDTH 143 0
BBX 117 174 21 0
BITMAP
FFFF800000000000000003FFFFFC00
FFFF800000000000000007FFFFF800
FFFF80000000000000000FFFFFF000
FFFF80000000000000001FFFFFE000
FFFF80000000000000003FFFFFC000
FFFF80000000000000007FFFFF8000
FFFF8000000000000000FFFFFE0000
FFFF8000000000000001FFFFFC0000
FFFF8000000000000003FFFFF80000
FFFF8000000000000007FFFFF00000
FFFF800000000000000FFFFFE00000
FFFF800000000000003FFFFFC00000
FFFF800000000000007FFFFF800000
FFFF80000000000000FFFFFF000000
FFFF80000000000001FFFFFE000000
FFFF80000000000003FFFFFC000000
FFFF80000000000007FFFFF8000000
FFFF8000000000000FFFFFF0000000
FFFF8000000000001FFFFFE0000000
FFFF8000000000003FFFFF80000000
FFFF8000000000007FFFFF00000000
FFFF800000000000FFFFFE00000000
FFFF800000000001FFFFFC00000000
FFFF800000000003FFFFF800000000
FFFF800000000007FFFFF000000000
FFFF80000000000FFFFFE000000000
FFFF80000000003FFFFFC000000000
FFFF80000000007FFFFF8000000000
FFFF8000000000FFFFFF0000000000
FFFF8000000001FFFFFE0000000000
FFFF8000000003FFFFFC0000000000
FFFF8000000007FFFFF80000000000
FFFF800000000FFFFFE00000000000
FFFF800000001FFFFFC00000000000
FFFF800000003FFFFF800000000000
FFFF800000007FFFFF000000000000
FFFF80000000FFFFFE000000000000
FFFF80000001FFFFFC000000000000
FFFF80000003FFFFF8000000000000
FFFF80000007FFFFF0000000000000
FFFF8000001FFFFFE0000000000000
FFFF8000003FFFFFC0000000000000
FFFF8000007FFFFF80000000000000
FFFF800000FFFFFF00000000000000
FFFF800001FFFFFE00000000000000
FFFF800003FFFFF800000000000000
FFFF800007FFFFF000000000000000
FFFF80000FFFFFE000000000000000
FFFF80001FFFFFC000000000000000
FFFF80003FFFFF8000000000000000
FFFF80007FFFFF0000000000000000
FFFF8000FFFFFE0000000000000000
FFFF8001FFFFFC0000000000000000
FFFF8003FFFFF80000000000000000
FFFF8007FFFFF00000000000000000
FFFF801FFFFFE00000000000000000
FFFF803FFFFFC00000000000000000
FFFF807FFFFF800000000000000000
FFFF80FFFFFE000000000000000000
FFFF81FFFFFC000000000000000000
FFFF83FFFFF8000000000000000000
FFFF87FFFFF0000000000000000000
FFFF8FFFFFE0000000000000000000
FFFF9FFFFFC0000000000000000000
FFFFBFFFFF80000000000000000000
FFFFFFFFFF00000000000000000000
FFFFFFFFFE00000000000000000000
FFFFFFFFFC00000000000000000000
FFFFFFFFF800000000000000000000
FFFFFFFFF000000000000000000000
FFFFFFFFE000000000000000000000
FFFFFFFF8000000000000000000000
FFFFFFFF0000000000000000000000
FFFFFFFE0000000000000000000000
FFFFFFFC0000000000000000000000
FFFFFFF80000000000000000000000
FFFFFFF00000000000000000000000
FFFFFFE00000000000000000000000
FFFFFFE00000000000000000000000
FFFFFFF00000000000000000000000
FFFFFFF80000000000000000000000
FFFFFFFC0000000000000000000000
FFFFFFFE0000000000000000000000
FFFFFFFF0000000000000000000000
FFFFFFFF0000000000000000000000
FFFFFFFF8000000000000000000000
FFFFFFFFC000000000000000000000
FFFFFFFFE000000000000000000000
FFFFFFFFF000000000000000000000
FFFFFFFFF800000000000000000000
FFFFFFFFFC00000000000000000000
FFFFFFFFFE00000000000000000000
FFFFFFFFFF00000000000000000000
FFFFBFFFFF80000000000000000000
FFFF9FFFFFC0000000000000000000
FFFF8FFFFFE0000000000000000000
FFFF8FFFFFF0000000000000000000
FFFF87FFFFF8000000000000000000
FFFF83FFFFFC000000000000000000
FFFF81FFFFFE000000000000000000
FFFF80FFFFFF000000000000000000
FFFF807FFFFF800000000000000000
FFFF803FFFFF800000000000000000
FFFF801FFFFFC00000000000000000
FFFF800FFFFFE00000000000000000
FFFF8007FFFFF00000000000000000
FFFF8003FFFFF80000000000000000
FFFF8001FFFFFC0000000000000000
FFFF8000FFFFFE0000000000000000
FFFF80007FFFFF0000000000000000
FFFF80003FFFFF8000000000000000
FFFF80001FFFFFC000000000000000
FFFF80000FFFFFE000000000000000
FFFF800007FFFFF000000000000000
FFFF800003FFFFF800000000000000
FFFF800003FFFFFC00000000000000
FFFF800001FFFFFE00000000000000
FFFF800000FFFFFF00000000000000
FFFF8000007FFFFF80000000000000
FFFF8000003FFFFFC0000000000000
FFFF8000001FFFFFC0000000000000
FFFF8000000FFFFFE0000000000000
FFFF80000007FFFFF0000000000000
FFFF80000003FFFFF8000000000000
FFFF80000001FFFFFC000000000000
FFFF80000000FFFFFE000000000000
FFFF800000007FFFFF000000000000
FFFF800000003FFFFF800000000000
FFFF800000001FFFFFC00000000000
FFFF800000000FFFFFE00000000000
FFFF8000000007FFFFF00000000000
FFFF8000000003FFFFF80000000000
FFFF8000000001FFFFFC0000000000
FFFF8000000001FFFFFE0000000000
FFFF8000000000FFFFFF0000000000
FFFF80000000007FFFFF8000000000
FFFF80000000003FFFFFC000000000
FFFF80000000001FFFFFE000000000
FFFF80000000000FFFFFE000000000
FFFF800000000007FFFFF000000000
FFFF800000000003FFFFF800000000
FFFF800000000001FFFFFC00000000
FFFF800000000000FFFFFE00000000
FFFF8000000000007FFFFF00000000
FFFF8000000000003FFFFF80000000
FFFF8000000000001FFFFFC0000000
FFFF8000000000000FFFFFE0000000
FFFF80000000000007FFFFF0000000
FFFF80000000000003FFFFF8000000
FFFF80000000000001FFFFFC000000
FFFF80000000000000FFFFFE000000
FFFF800000000000007FFFFF000000
FFFF800000000000007FFFFF800000
FFFF800000000000003FFFFFC00000
FFFF800000000000001FFFFFE00000
FFFF800000000000000FFFFFF00000
FFFF8000000000000007FFFFF00000
FFFF8000000000000003FFFFF80000
FFFF8000000000000001FFFFFC0000
FFFF8000000000000000FFFFFE0000
FFFF80000000000000007FFFFF0000
FFFF80000000000000003FFFFF8000
FFFF80000000000000001FFFFFC000
FFFF80000000000000000FFFFFE000
FFFF800000000000000007FFFFF000
FFFF800000000000000003FFFFF800
FFFF800000000000000001FFFFFC00
FFFF800000000000000000FFFFFE00
FFFF8000000000000000007FFFFF00
FFFF8000000000000000003FFFFF80
FFFF8000000000000000001FFFFFC0
FFFF8000000000000000001FFFFFE0
FFFF8000000000000000000FFFFFF0
FFFF80000000000000000007FFFFF8
ENDCHAR
STARTCHAR 004C
ENCODING 76
SWIDTH 462 0
DWIDTH 112 0
BBX 84 174 21 0
BITMAP
FFFF800000000000000000
FFFF800000000000000000
FFFF800000000000000000
FFFF800000000000000000
FFFF800000000000000000
FFFF800000000000000000
FFFF800000000000000000
FFFF800000000000000000
FFFF800000000000000000
FFFF800000000000000000
FFFF800000000000000000
FFFF800000000000000000
FFFF800000000000000000
FFFF800000000000000000
FFFF800000000000000000
FFFF800000000000000000
FFFF800000000000000000
FFFF800000000000000000
FFFF800000000000000000
FFFF800000000000000000
FFFF800000000000000000
FFFF800000000000000000
FFFF800000000000000000
FFFF800000000000000000
FFFF800000000000000000
FFFF800000000000000000
FFFF800000000000000000
FFFF800000000000000000
FFFF800000000000000000
FFFF800000000000000000
FFFF800000000000000000
FFFF800000000000000000
FFFF800000000000000000
FFFF800000000000000000
FFFF800000000000000000
FFFF800000000000000000
FFFF800000000000000000
FFFF800000000000000000
FFFF800000000000000000
FFFF800000000000000000
FFFF800000000000000000
FFFF800000000000000000
FFFF800000000000000000
FFFF800000000000000000
FFFF800000000000000000
FFFF800000000000000000
FFFF800000000000000000
FFFF800000000000000000
FFFF800000000000000000
FFFF800000000000000000
FFFF800000000000000000
FFFF800000000000000000
FFFF800000000000000000
FFFF800000000000000000
FFFF800000000000000000
FFFF800000000000000000
FFFF800000000000000000
FFFF800000000000000000
FFFF800000000000000000
FFFF800000000000000000
FFFF800000000000000000
FFFF800000000000000000
FFFF800000000000000000
FFFF800000000000000000
FFFF800000000000000000
FFFF800000000000000000
FFFF800000000000000000
FFFF800000000000000000
FFFF800000000000000000
FFFF800000000000000000
FFFF800000000000000000
FFFF800000000000000000
FFFF800000000000000000
FFFF800000000000000000
FFFF800000000000000000
FFFF800000000000000000
FFFF800000000000000000
FFFF800000000000000000
FFFF800000000000000000
FFFF800000000000000000
FFFF800000000000000000
FFFF800000000000000000
FFFF800000000000000000
FFFF800000000000000000
FFFF800000000000000000
FFFF800000000000000000
FFFF800000000000000000
FFFF800000000000000000
FFFF800000000000000000
FFFF800000000000000000
FFFF800000000000000000
FFFF800000000000000000
FFFF800000000000000000
FFFF800000000000000000
FFFF800000000000000000
FFFF800000000000000000
FFFF800000000000000000
FFFF800000000000000000
FFFF800000000000000000
FFFF800000000000000000
FFFF800000000000000000
FFFF800000000000000000
FFFF800000000000000000
FFFF800000000000000000
FFFF800000000000000000
FFFF800000000000000000
FFFF800000000000000000
FFFF800000000000000000
FFFF800000000000000000
FFFF800000000000000000
FFFF800000000000000000
FFFF800000000000000000
FFFF800000000000000000
FFFF800000000000000000
FFFF800000000000000000
FFFF800000000000000000
FFFF800000000000000000
FFFF800000000000000000
FFFF800000000000000000
FFFF800000000000000000
FFFF800000000000000000
FFFF800000000000000000
FFFF800000000000000000
FFFF800000000000000000
FFFF800000000000000000
FFFF800000000000000000
FFFF800000000000000000
FFFF800000000000000000
FFFF800000000000000000
FFFF800000000000000000
FFFF800000000000000000
FFFF800000000000000000
FFFF800000000000000000
FFFF800000000000000000
FFFF800000000000000000
FFFF800000000000000000
FFFF800000000000000000
FFFF800000000000000000
FFFF800000000000000000
FFFF800000000000000000
FFFF800000000000000000
FFFF800000000000000000
FFFF800000000000000000
FFFF800000000000000000
FFFF800000000000000000
FFFF800000000000000000
FFFF800000000000000000
FFFF800000000000000000
FFFF800000000000000000
FFFF800000000000000000
FFFF800000000000000000
FFFF800000000000000000
FFFF800000000000000000
FFFF800000000000000000
FFFF800000000000000000
FFFF800000000000000000
FFFF800000000000000000
FFFFFFFFFFFFFFFFFFFFF0
FFFFFFFFFFFFFFFFFFFFF0
FFFFFFFFFFFFFFFFFFFFF0
FFFFFFFFFFFFFFFFFFFFF0
FFFFFFFFFFFFFFFFFFFFF0
FFFFFFFFFFFFFFFFFFFFF0
FFFFFFFFFFFFFFFFFFFFF0
FFFFFFFFFFFFFFFFFFFFF0
FFFFFFFFFFFFFFFFFFFFF0
FFFFFFFFFFFFFFFFFFFFF0
FFFFFFFFFFFFFFFFFFFFF0
FFFFFFFFFFFFFFFFFFFFF0
FFFFFFFFFFFFFFFFFFFFF0
FFFFFFFFFFFFFFFFFFFFF0
FFFFFFFFFFFFFFFFFFFFF0
FFFFFFFFFFFFFFFFFFFFF0
FFFFFFFFFFFFFFFFFFFFF0
ENDCHAR
STARTCHAR 004D
ENCODING 77
SWIDTH 917 0
DWIDTH 222 0
BBX 196 174 13 0
BITMAP
000000700000000000000000000000000000000000F0000000
000000780000000000000000000000000000000001F0000000
000000780000000000000000000000000000000001F0000000
000000FC0000000000000000000000000000000003F0000000
000000FC0000000000000000000000000000000003F8000000
000000FE0000000000000000000000000000000007F8000000
000000FE0000000000000000000000000000000007F8000000
000000FF000000000000000000000000000000000FF8000000
000000FF000000000000000000000000000000000FF8000000
000000FF800000000000000000000000000000001FF8000000
000001FF800000000000000000000000000000001FF8000000
000001FFC00000000000000000000000000000003FFC000000
000001FFC00000000000000000000000000000003FFC000000
000001FFE00000000000000000000000000000007FFC000000
000001FFE00000000000000000000000000000007FFC000000
000001FFF0000000000000000000000000000000FFFC000000
000001FFF0000000000000000000000000000000FFFC000000
000003FFF8000000000000000000000000000001FFFC000000
000003FFF8000000000000000000000000000001FFFE000000
000003FFFC000000000000000000000000000003FFFE000000
000003FFFC000000000000000000000000000003FFFE000000
000003FFFE000000000000000000000000000007FFFE000000
000003FFFE000000000000000000000000000007FFFE000000
000003FFFF00000000000000000000000000000FFFFE000000
000007FFFF00000000000000000000000000000FFFFE000000
000007FFFF00000000000000000000000000000FFFFF000000
000007FFFF80000000000000000000000000001FFFFF000000
000007FFFF80000000000000000000000000001FFFFF000000
000007FFFFC0000000000000000000000000003FFFFF000000
000007FFFFC0000000000000000000000000003FFFFF000000
000007FFFFE0000000000000000000000000007FFFFF000000
00000FFFFFE0000000000000000000000000007FFFFF000000
00000FFFFFF000000000000000000000000000FFFFFF000000
00000FFFFFF000000000000000000000000000FFFFFF800000
00000FFFFFF800000000000000000000000001FFFFFF800000
00000FFFFFF800000000000000000000000001FFFFFF800000
00000FFFFFFC00000000000000000000000003FFFFFF800000
00000FFFFFFC00000000000000000000000003FFFFFF800000
00001FFFFFFE00000000000000000000000007FFFFFF800000
00001FFFFFFE00000000000000000000000007FFFFFF800000
00001FFFFFFF0000000000000000000000000FFFFFFFC00000
00001FFFFFFF0000000000000000000000000FFFFFFFC00000
00001FFFFFFF8000000000000000000000001FFFFFFFC00000
00001FFFFFFF8000000000000000000000001FFFFFFFC00000
00001FFFFFFFC000000000000000000000003FFFFFFFC00000
00003FFFFFFFC000000000000000000000003FFFFFFFC00000
00003FFFFFFFE000000000000000000000007FFFFFFFC00000
00003FFFFFFFE000000000000000000000007FFFFFFFE00000
00003FFFFFFFF00000000000000000000000FFFFFFFFE00000
00003FFFDFFFF00000000000000000000000FFFFDFFFE00000
00003FFFDFFFF80000000000000000000001FFFFDFFFE00000
00003FFFCFFFF80000000000000000000001FFFF9FFFE00000
00007FFF8FFFFC0000000000000000000003FFFF9FFFE00000
00007FFF87FFFC0000000000000000000003FFFF1FFFE00000
00007FFF87FFFE0000000000000000000007FFFF1FFFF00000
00007FFF83FFFE0000000000000000000007FFFE0FFFF00000
00007FFF83FFFF000000000000000000000FFFFE0FFFF00000
00007FFF81FFFF000000000000000000000FFFFC0FFFF00000
00007FFF81FFFF800000000000000000001FFFFC0FFFF00000
0000FFFF00FFFF800000000000000000001FFFF80FFFF00000
0000FFFF00FFFFC00000000000000000003FFFF80FFFF00000
0000FFFF007FFFC00000000000000000003FFFF00FFFF00000
0000FFFF007FFFE00000000000000000007FFFF00FFFF80000
0000FFFF003FFFE00000000000000000007FFFE007FFF80000
0000FFFF003FFFF0000000000000000000FFFFE007FFF80000
0000FFFF001FFFF0000000000000000000FFFFC007FFF80000
0001FFFF001FFFF8000000000000000001FFFFC007FFF80000
0001FFFE000FFFF8000000000000000001FFFF8007FFF80000
0001FFFE000FFFFC000000000000000003FFFF8007FFF80000
0001FFFE0007FFFC000000000000000003FFFF0007FFFC0000
0001FFFE0007FFFE000000000000000007FFFF0003FFFC0000
0001FFFE0003FFFE000000000000000007FFFE0003FFFC0000
0001FFFE0003FFFF000000000000000007FFFE0003FFFC0000
0003FFFE0001FFFF00000000000000000FFFFC0003FFFC0000
0003FFFC0001FFFF00000000000000000FFFFC0003FFFC0000
0003FFFC0000FFFF80000000000000001FFFF80003FFFC0000
0003FFFC0000FFFF80000000000000001FFFF80003FFFE0000
0003FFFC00007FFFC0000000000000003FFFF00003FFFE0000
0003FFFC00007FFFC0000000000000003FFFF00001FFFE0000
0003FFFC00003FFFE0000000000000007FFFE00001FFFE0000
0007FFFC00003FFFE0000000000000007FFFE00001FFFE0000
0007FFFC00003FFFF000000000000000FFFFC00001FFFE0000
0007FFF800001FFFF000000000000000FFFFC00001FFFE0000
0007FFF800001FFFF800000000000001FFFF800001FFFF0000
0007FFF800000FFFF800000000000001FFFF800001FFFF0000
0007FFF800000FFFFC00000000000003FFFF000001FFFF0000
0007FFF8000007FFFC00000000000003FFFF000000FFFF0000
000FFFF8000007FFFE00000000000007FFFE000000FFFF0000
000FFFF8000003FFFE00000000000007FFFE000000FFFF0000
000FFFF0000003FFFF0000000000000FFFFC000000FFFF0000
000FFFF0000001FFFF0000000000000FFFFC000000FFFF0000
000FFFF0000001FFFF8000000000001FFFF8000000FFFF8000
000FFFF0000000FFFF8000000000001FFFF8000000FFFF8000
000FFFF0000000FFFFC000000000003FFFF00000007FFF8000
001FFFF00000007FFFC000000000003FFFF00000007FFF8000
001FFFF00000007FFFE000000000007FFFE00000007FFF8000
001FFFE00000003FFFE000000000007FFFE00000007FFF8000
001FFFE00000003FFFF00000000000FFFFC00000007FFF8000
001FFFE00000001FFFF00000000000FFFFC00000007FFFC000
001FFFE00000001FFFF80000000001FFFF800000007FFFC000
001FFFE00000000FFFF80000000001FFFF800000007FFFC000
003FFFE00000000FFFFC0000000003FFFF000000003FFFC000
003FFFE000000007FFFC0000000003FFFF000000003FFFC000
003FFFE000000007FFFE0000000007FFFE000000003FFFC000
003FFFC000000003FFFE0000000007FFFE000000003FFFC000
003FFFC000000003FFFF000000000FFFFC000000003FFFE000
003FFFC000000001FFFF000000000FFFFC000000003FFFE000
003FFFC000000001FFFF800000001FFFF8000000003FFFE000
007FFFC000000000FFFF800000001FFFF8000000003FFFE000
007FFFC000000000FFFFC00000003FFFF0000000001FFFE000
007FFFC0000000007FFFC00000003FFFF0000000001FFFE000
007FFF80000000007FFFE00000007FFFE0000000001FFFE000
007FFF80000000003FFFE00000007FFFE0000000001FFFF000
007FFF80000000003FFFF0000000FFFFC0000000001FFFF000
007FFF80000000001FFFF0000000FFFFC0000000001FFFF000
00FFFF80000000001FFFF8000001FFFF80000000001FFFF000
00FFFF80000000000FFFF8000001FFFF80000000000FFFF000
00FFFF80000000000FFFFC000003FFFF00000000000FFFF000
00FFFF800000000007FFFC000003FFFF00000000000FFFF000
00FFFF000000000007FFFE000003FFFE00000000000FFFF000
00FFFF000000000003FFFE000007FFFE00000000000FFFF800
00FFFF000000000003FFFF000007FFFC00000000000FFFF800
01FFFF000000000001FFFF00000FFFFC00000000000FFFF800
01FFFF000000000001FFFF80000FFFF800000000000FFFF800
01FFFF000000000000FFFF80001FFFF8000000000007FFF800
01FFFF000000000000FFFF80001FFFF0000000000007FFF800
01FFFE0000000000007FFFC0003FFFF0000000000007FFF800
01FFFE0000000000007FFFC0003FFFE0000000000007FFFC00
01FFFE0000000000003FFFE0007FFFE0000000000007FFFC00
03FFFE0000000000003FFFE0007FFFC0000000000007FFFC00
03FFFE0000000000001FFFF000FFFFC0000000000007FFFC00
03FFFE0000000000001FFFF000FFFF80000000000007FFFC00
03FFFE0000000000000FFFF801FFFF80000000000003FFFC00
03FFFC0000000000000FFFF801FFFF00000000000003FFFC00
03FFFC00000000000007FFFC03FFFF00000000000003FFFE00
03FFFC00000000000007FFFC03FFFE00000000000003FFFE00
07FFFC00000000000003FFFE07FFFE00000000000003FFFE00
07FFFC00000000000003FFFE07FFFC00000000000003FFFE00
07FFFC00000000000001FFFF0FFFFC00000000000003FFFE00
07FFFC00000000000001FFFF0FFFF800000000000001FFFE00
07FFFC00000000000000FFFF9FFFF800000000000001FFFE00
07FFF800000000000000FFFF9FFFF000000000000001FFFF00
07FFF800000000000000FFFFFFFFF000000000000001FFFF00
0FFFF8000000000000007FFFFFFFE000000000000001FFFF00
0FFFF8000000000000007FFFFFFFE000000000000001FFFF00
0FFFF8000000000000003FFFFFFFC000000000000001FFFF00
0FFFF8000000000000003FFFFFFFC000000000000001FFFF00
0FFFF8000000000000001FFFFFFF8000000000000000FFFF00
0FFFF0000000000000001FFFFFFF8000000000000000FFFF00
0FFFF0000000000000000FFFFFFF0000000000000000FFFF80
1FFFF0000000000000000FFFFFFF0000000000000000FFFF80
1FFFF00000000000000007FFFFFE0000000000000000FFFF80
1FFFF00000000000000007FFFFFE0000000000000000FFFF80
1FFFF00000000000000003FFFFFC0000000000000000FFFF80
1FFFF00000000000000003FFFFFC0000000000000000FFFF80
1FFFF00000000000000001FFFFF800000000000000007FFF80
1FFFE00000000000000001FFFFF800000000000000007FFFC0
3FFFE00000000000000000FFFFF000000000000000007FFFC0
3FFFE00000000000000000FFFFF000000000000000007FFFC0
3FFFE000000000000000007FFFE000000000000000007FFFC0
3FFFE000000000000000007FFFE000000000000000007FFFC0
3FFFE000000000000000003FFFC000000000000000007FFFC0
3FFFE000000000000000003FFFC000000000000000003FFFC0
7FFFC000000000000000001FFF8000000000000000003FFFE0
7FFFC000000000000000001FFF8000000000000000003FFFE0
7FFFC000000000000000000FFF0000000000000000003FFFE0
7FFFC000000000000000000FFF0000000000000000003FFFE0
7FFFC0000000000000000007FE0000000000000000003FFFE0
7FFFC0000000000000000007FE0000000000000000003FFFE0
7FFFC0000000000000000003FC0000000000000000003FFFE0
FFFF80000000000000000003FC0000000000000000001FFFF0
FFFF80000000000000000001F80000000000000000001FFFF0
FFFF80000000000000000001F80000000000000000001FFFF0
FFFF80000000000000000000F00000000000000000001FFFF0
ENDCHAR
ENDFONT
